<svg xmlns="http://www.w3.org/2000/svg" xmlns:xlink="http://www.w3.org/1999/xlink" width="1080" zoomAndPan="magnify" viewBox="0 0 810 809.999993" height="1080" preserveAspectRatio="xMidYMid meet" version="1.0"><defs><clipPath id="33dcf9c0f7"><path d="M 345 487 L 612 487 L 612 678.617188 L 345 678.617188 Z M 345 487 " clip-rule="nonzero"/></clipPath></defs><path fill="#000000" d="M 133.339844 466.21875 C 130.945312 466.226562 128.566406 466.042969 126.203125 465.664062 C 123.835938 465.285156 121.519531 464.71875 119.25 463.960938 C 116.976562 463.203125 114.78125 462.269531 112.664062 461.152344 C 110.542969 460.039062 108.53125 458.761719 106.621094 457.316406 L 19.925781 391.3125 C 15.902344 388.28125 12.515625 384.65625 9.769531 380.429688 C 8.621094 378.671875 7.609375 376.839844 6.730469 374.933594 C 5.851562 373.03125 5.109375 371.074219 4.515625 369.0625 C 3.917969 367.050781 3.46875 365.007812 3.164062 362.929688 C 2.863281 360.855469 2.714844 358.765625 2.714844 356.667969 C 2.714844 354.570312 2.863281 352.484375 3.164062 350.40625 C 3.46875 348.332031 3.917969 346.285156 4.515625 344.277344 C 5.109375 342.265625 5.851562 340.304688 6.730469 338.402344 C 7.609375 336.496094 8.621094 334.664062 9.769531 332.90625 C 10.511719 331.789062 11.257812 330.757812 12.070312 329.757812 L 144.496094 160.160156 C 145.386719 159.03125 146.324219 157.945312 147.320312 156.90625 C 148.3125 155.867188 149.355469 154.878906 150.445312 153.941406 C 151.535156 153.003906 152.664062 152.121094 153.839844 151.292969 C 155.015625 150.464844 156.230469 149.695312 157.480469 148.988281 C 158.730469 148.277344 160.011719 147.628906 161.324219 147.042969 C 162.636719 146.457031 163.976562 145.9375 165.339844 145.480469 C 166.703125 145.027344 168.085938 144.636719 169.488281 144.316406 C 170.886719 143.996094 172.300781 143.742188 173.726562 143.558594 C 175.152344 143.375 176.585938 143.261719 178.023438 143.21875 C 179.460938 143.171875 180.894531 143.199219 182.332031 143.292969 C 183.765625 143.386719 185.191406 143.550781 186.609375 143.785156 C 188.027344 144.019531 189.433594 144.320312 190.824219 144.6875 C 192.210938 145.058594 193.582031 145.496094 194.925781 145.996094 C 196.273438 146.5 197.59375 147.066406 198.886719 147.699219 C 200.175781 148.328125 201.433594 149.019531 202.660156 149.773438 C 203.882812 150.527344 205.070312 151.339844 206.214844 152.207031 L 292.992188 218.210938 C 294.058594 219.03125 295.085938 219.898438 296.070312 220.8125 C 297.054688 221.726562 297.996094 222.6875 298.894531 223.6875 C 299.792969 224.6875 300.640625 225.730469 301.445312 226.808594 C 302.246094 227.886719 302.996094 229.003906 303.695312 230.152344 C 304.394531 231.300781 305.039062 232.476562 305.628906 233.6875 C 306.21875 234.894531 306.753906 236.125 307.230469 237.382812 C 307.707031 238.640625 308.125 239.917969 308.484375 241.210938 C 308.839844 242.507812 309.140625 243.816406 309.378906 245.140625 C 309.617188 246.464844 309.792969 247.792969 309.910156 249.132812 C 310.027344 250.472656 310.078125 251.816406 310.070312 253.160156 C 310.0625 254.503906 309.996094 255.84375 309.863281 257.183594 C 309.730469 258.519531 309.539062 259.851562 309.285156 261.171875 C 309.03125 262.492188 308.714844 263.796875 308.339844 265.085938 C 307.96875 266.378906 307.535156 267.648438 307.042969 268.902344 C 306.550781 270.152344 306.003906 271.378906 305.398438 272.578125 C 304.792969 273.78125 304.136719 274.953125 303.421875 276.09375 C 302.648438 277.34375 301.804688 278.546875 300.882812 279.695312 L 168.320312 449.3125 C 166.949219 451.09375 165.445312 452.753906 163.800781 454.289062 C 161.753906 456.195312 159.542969 457.894531 157.171875 459.386719 C 154.804688 460.878906 152.316406 462.136719 149.707031 463.15625 C 147.101562 464.179688 144.421875 464.945312 141.667969 465.460938 C 138.914062 465.976562 136.140625 466.230469 133.339844 466.21875 Z M 179.445312 170.246094 C 178.132812 170.238281 176.839844 170.378906 175.558594 170.660156 C 174.28125 170.945312 173.046875 171.371094 171.863281 171.9375 C 170.679688 172.5 169.574219 173.191406 168.550781 174.003906 C 167.523438 174.820312 166.597656 175.738281 165.78125 176.761719 L 33.285156 346.464844 C 32.878906 346.972656 32.609375 347.34375 32.371094 347.699219 C 31.945312 348.359375 31.566406 349.046875 31.238281 349.761719 C 30.910156 350.476562 30.632812 351.210938 30.410156 351.96875 C 30.1875 352.722656 30.019531 353.488281 29.90625 354.269531 C 29.792969 355.046875 29.738281 355.832031 29.738281 356.617188 C 29.738281 357.40625 29.792969 358.1875 29.90625 358.964844 C 30.019531 359.746094 30.1875 360.511719 30.410156 361.265625 C 30.632812 362.023438 30.910156 362.757812 31.238281 363.472656 C 31.566406 364.1875 31.945312 364.875 32.371094 365.535156 C 33.378906 367.097656 34.621094 368.441406 36.097656 369.566406 L 36.234375 369.667969 L 122.992188 435.773438 C 123.800781 436.375 124.65625 436.902344 125.558594 437.355469 C 126.460938 437.808594 127.394531 438.179688 128.359375 438.472656 C 129.324219 438.761719 130.308594 438.96875 131.3125 439.085938 C 132.3125 439.207031 133.316406 439.238281 134.324219 439.179688 C 135.332031 439.125 136.328125 438.980469 137.308594 438.753906 C 138.292969 438.523438 139.246094 438.210938 140.175781 437.816406 C 141.101562 437.417969 141.988281 436.945312 142.835938 436.394531 C 143.679688 435.84375 144.472656 435.226562 145.207031 434.535156 L 145.359375 434.402344 C 145.917969 433.878906 146.433594 433.3125 146.902344 432.710938 L 279.480469 262.976562 L 279.617188 262.804688 C 279.847656 262.523438 280.054688 262.222656 280.242188 261.910156 L 280.394531 261.671875 C 280.9375 260.808594 281.398438 259.902344 281.773438 258.957031 C 282.148438 258.007812 282.433594 257.03125 282.628906 256.03125 C 282.824219 255.03125 282.925781 254.019531 282.933594 253 C 282.941406 251.980469 282.855469 250.96875 282.675781 249.964844 C 282.496094 248.964844 282.226562 247.984375 281.867188 247.03125 C 281.503906 246.078125 281.0625 245.164062 280.53125 244.292969 C 280.003906 243.421875 279.398438 242.605469 278.71875 241.84375 C 278.035156 241.085938 277.292969 240.394531 276.484375 239.773438 L 189.691406 173.769531 C 188.222656 172.636719 186.609375 171.769531 184.855469 171.167969 C 183.105469 170.5625 181.300781 170.257812 179.445312 170.246094 Z M 179.445312 170.246094 " fill-opacity="1" fill-rule="nonzero"/><path fill="#000000" d="M 578.894531 514.539062 C 577.234375 514.542969 575.632812 514.253906 574.078125 513.671875 C 572.527344 513.089844 571.128906 512.25 569.886719 511.152344 L 455.441406 409.355469 L 429.195312 385.457031 L 384.628906 407.457031 L 384.089844 407.710938 C 356.996094 419.710938 325.417969 410.199219 312.363281 386.066406 C 300.78125 364.65625 304.203125 331.570312 348.53125 302.816406 L 399.632812 269.675781 C 440.269531 243.226562 482.785156 245.984375 522.796875 251.0625 C 524.3125 251.253906 525.753906 251.691406 527.121094 252.375 C 528.488281 253.058594 529.707031 253.945312 530.773438 255.039062 C 531.160156 255.417969 531.515625 255.824219 531.839844 256.257812 L 657.644531 417.410156 C 658.453125 418.445312 659.097656 419.574219 659.578125 420.796875 C 660.058594 422.019531 660.351562 423.285156 660.464844 424.59375 C 660.574219 425.902344 660.5 427.199219 660.230469 428.484375 C 659.964844 429.773438 659.519531 430.992188 658.898438 432.152344 C 638.785156 469.46875 631.925781 476.152344 587.292969 511.441406 C 586.109375 512.417969 584.796875 513.171875 583.355469 513.703125 C 581.917969 514.234375 580.429688 514.511719 578.894531 514.539062 Z M 431.464844 355.71875 C 433.152344 355.71875 434.78125 356.019531 436.355469 356.628906 C 437.929688 357.234375 439.34375 358.105469 440.589844 359.242188 L 473.574219 389.265625 L 579.386719 483.328125 C 611.21875 457.941406 617.6875 450.96875 630.824219 427.242188 L 513.875 277.429688 C 472.898438 272.570312 443.046875 273.875 414.378906 292.507812 L 363.347656 325.644531 C 339.203125 341.300781 328.820312 359.496094 336.253906 373.289062 C 341.824219 383.59375 357.046875 390.078125 372.964844 383.171875 L 425.453125 357.125 C 427.347656 356.1875 429.351562 355.71875 431.464844 355.71875 Z M 431.464844 355.71875 " fill-opacity="1" fill-rule="nonzero"/><path fill="#000000" d="M 678 459.789062 C 676.320312 459.792969 674.648438 459.703125 672.980469 459.515625 C 671.3125 459.332031 669.660156 459.054688 668.023438 458.679688 C 666.386719 458.308594 664.777344 457.84375 663.195312 457.289062 C 661.609375 456.734375 660.0625 456.089844 658.554688 455.359375 C 657.042969 454.628906 655.578125 453.816406 654.160156 452.917969 C 652.742188 452.023438 651.378906 451.046875 650.074219 449.996094 C 648.765625 448.945312 647.523438 447.824219 646.34375 446.628906 C 645.164062 445.4375 644.054688 444.183594 643.015625 442.863281 L 636.242188 434.402344 L 510.691406 273.621094 L 510.285156 273.128906 C 509.410156 271.996094 508.59375 270.824219 507.832031 269.609375 C 507.074219 268.394531 506.375 267.144531 505.742188 265.863281 C 505.105469 264.578125 504.53125 263.269531 504.027344 261.929688 C 503.519531 260.589844 503.078125 259.230469 502.707031 257.847656 C 502.335938 256.464844 502.03125 255.066406 501.796875 253.65625 C 501.5625 252.242188 501.398438 250.820312 501.304688 249.394531 C 501.207031 247.964844 501.183594 246.535156 501.230469 245.101562 C 501.277344 243.671875 501.394531 242.246094 501.582031 240.828125 C 501.769531 239.40625 502.027344 238 502.351562 236.605469 C 502.675781 235.210938 503.070312 233.835938 503.53125 232.480469 C 503.996094 231.125 504.523438 229.796875 505.113281 228.492188 C 505.707031 227.191406 506.363281 225.917969 507.082031 224.679688 C 507.800781 223.441406 508.578125 222.242188 509.414062 221.078125 C 510.25 219.917969 511.140625 218.796875 512.089844 217.722656 C 513.035156 216.648438 514.03125 215.625 515.082031 214.648438 C 516.128906 213.671875 517.222656 212.75 518.359375 211.882812 L 605.105469 145.773438 C 606.253906 144.910156 607.441406 144.101562 608.667969 143.351562 C 609.894531 142.601562 611.152344 141.914062 612.445312 141.285156 C 613.738281 140.65625 615.058594 140.09375 616.40625 139.59375 C 617.753906 139.089844 619.125 138.65625 620.515625 138.289062 C 621.90625 137.921875 623.308594 137.625 624.726562 137.394531 C 626.148438 137.160156 627.574219 137 629.007812 136.90625 C 630.445312 136.816406 631.878906 136.792969 633.316406 136.835938 C 634.753906 136.882812 636.1875 137 637.613281 137.183594 C 639.039062 137.371094 640.449219 137.625 641.851562 137.945312 C 643.253906 138.269531 644.636719 138.660156 646 139.113281 C 647.363281 139.570312 648.699219 140.09375 650.011719 140.679688 C 651.324219 141.265625 652.605469 141.914062 653.855469 142.625 C 655.105469 143.332031 656.320312 144.101562 657.496094 144.929688 C 658.671875 145.757812 659.800781 146.640625 660.890625 147.578125 C 661.980469 148.515625 663.023438 149.503906 664.015625 150.542969 C 665.011719 151.582031 665.953125 152.667969 666.839844 153.796875 L 799.386719 323.496094 C 800.269531 324.628906 801.09375 325.804688 801.859375 327.015625 C 802.628906 328.230469 803.332031 329.480469 803.976562 330.765625 C 804.617188 332.046875 805.199219 333.359375 805.710938 334.703125 C 806.222656 336.042969 806.671875 337.40625 807.046875 338.792969 C 807.425781 340.175781 807.734375 341.578125 807.976562 342.992188 C 808.214844 344.410156 808.386719 345.832031 808.484375 347.265625 C 808.582031 348.699219 808.609375 350.132812 808.566406 351.566406 C 808.523438 353.003906 808.410156 354.433594 808.226562 355.855469 C 808.042969 357.28125 807.785156 358.691406 807.460938 360.09375 C 807.136719 361.492188 806.746094 362.871094 806.285156 364.230469 C 805.824219 365.589844 805.296875 366.925781 804.703125 368.234375 C 804.113281 369.539062 803.457031 370.816406 802.738281 372.058594 C 802.019531 373.300781 801.238281 374.507812 800.402344 375.671875 C 799.5625 376.839844 798.667969 377.960938 797.71875 379.039062 C 796.769531 380.117188 795.769531 381.144531 794.71875 382.125 C 793.667969 383.101562 792.570312 384.027344 791.425781 384.898438 L 704.632812 450.902344 C 702.730469 452.34375 700.722656 453.617188 698.609375 454.730469 C 696.496094 455.839844 694.308594 456.777344 692.046875 457.53125 C 689.78125 458.285156 687.46875 458.851562 685.113281 459.230469 C 682.757812 459.609375 680.386719 459.796875 678 459.789062 Z M 531.570312 256.105469 C 531.667969 256.210938 531.757812 256.324219 531.839844 256.441406 L 657.644531 417.597656 L 664.335938 426.058594 C 665.03125 426.925781 665.804688 427.722656 666.65625 428.441406 C 667.503906 429.164062 668.417969 429.796875 669.386719 430.34375 C 670.359375 430.890625 671.375 431.339844 672.429688 431.691406 C 673.488281 432.042969 674.570312 432.289062 675.675781 432.433594 C 676.78125 432.578125 677.890625 432.617188 679.003906 432.550781 C 680.113281 432.480469 681.210938 432.308594 682.289062 432.03125 C 683.371094 431.753906 684.414062 431.375 685.417969 430.894531 C 686.425781 430.417969 687.378906 429.847656 688.277344 429.1875 L 775.085938 363.183594 C 775.523438 362.855469 775.9375 362.507812 776.335938 362.140625 C 776.738281 361.769531 777.117188 361.382812 777.476562 360.976562 C 777.839844 360.570312 778.179688 360.148438 778.496094 359.707031 C 778.816406 359.269531 779.113281 358.8125 779.386719 358.34375 C 779.660156 357.875 779.910156 357.394531 780.136719 356.898438 C 780.363281 356.40625 780.566406 355.902344 780.742188 355.386719 C 780.917969 354.871094 781.070312 354.351562 781.195312 353.820312 C 781.320312 353.292969 781.417969 352.757812 781.488281 352.222656 C 781.5625 351.683594 781.605469 351.140625 781.625 350.597656 C 781.640625 350.054688 781.632812 349.511719 781.597656 348.96875 C 781.5625 348.429688 781.5 347.890625 781.410156 347.351562 C 781.324219 346.816406 781.207031 346.285156 781.066406 345.761719 C 780.925781 345.238281 780.757812 344.71875 780.566406 344.210938 C 780.375 343.703125 780.15625 343.207031 779.914062 342.71875 C 779.671875 342.234375 779.40625 341.761719 779.117188 341.300781 C 778.828125 340.839844 778.519531 340.394531 778.1875 339.964844 L 645.539062 170.265625 C 644.839844 169.394531 644.066406 168.601562 643.214844 167.882812 C 642.363281 167.160156 641.453125 166.527344 640.480469 165.984375 C 639.507812 165.4375 638.492188 164.988281 637.433594 164.636719 C 636.375 164.285156 635.292969 164.039062 634.1875 163.894531 C 633.078125 163.75 631.96875 163.714844 630.855469 163.78125 C 629.746094 163.851562 628.648438 164.027344 627.566406 164.304688 C 626.488281 164.582031 625.445312 164.960938 624.4375 165.441406 C 623.429688 165.917969 622.476562 166.488281 621.582031 167.152344 L 534.851562 233.15625 C 534 233.804688 533.21875 234.53125 532.507812 235.332031 C 531.796875 236.132812 531.171875 236.992188 530.628906 237.917969 C 530.085938 238.839844 529.640625 239.808594 529.285156 240.816406 C 528.929688 241.828125 528.679688 242.863281 528.527344 243.925781 C 528.375 244.984375 528.324219 246.046875 528.378906 247.117188 C 528.4375 248.1875 528.59375 249.242188 528.855469 250.28125 C 529.117188 251.316406 529.472656 252.320312 529.929688 253.289062 C 530.386719 254.257812 530.933594 255.175781 531.570312 256.035156 Z M 531.570312 256.105469 " fill-opacity="1" fill-rule="nonzero"/><path fill="#000000" d="M 330.734375 658.140625 C 327.992188 658.140625 325.273438 657.859375 322.589844 657.300781 C 319.902344 656.742188 317.300781 655.917969 314.78125 654.824219 C 312.261719 653.734375 309.882812 652.398438 307.640625 650.820312 C 305.394531 649.238281 303.335938 647.449219 301.460938 645.445312 C 300.585938 644.550781 299.757812 643.617188 298.976562 642.640625 C 298.195312 641.664062 297.464844 640.648438 296.78125 639.597656 C 296.101562 638.550781 295.476562 637.46875 294.902344 636.355469 C 294.328125 635.246094 293.8125 634.109375 293.351562 632.945312 C 292.890625 631.78125 292.488281 630.597656 292.148438 629.394531 C 291.804688 628.191406 291.523438 626.976562 291.300781 625.746094 C 291.078125 624.511719 290.917969 623.273438 290.820312 622.027344 C 290.722656 620.78125 290.683594 619.53125 290.710938 618.28125 C 290.738281 617.03125 290.824219 615.785156 290.972656 614.542969 C 291.121094 613.300781 291.332031 612.070312 291.605469 610.847656 C 291.878906 609.628906 292.207031 608.421875 292.601562 607.234375 C 292.992188 606.046875 293.441406 604.882812 293.949219 603.738281 C 294.457031 602.59375 295.019531 601.480469 295.636719 600.390625 C 296.253906 599.304688 296.925781 598.25 297.648438 597.230469 C 298.371094 596.207031 299.144531 595.226562 299.964844 594.28125 C 300.785156 593.335938 301.648438 592.4375 302.558594 591.578125 L 302.933594 591.222656 L 324.402344 571.828125 L 324.84375 571.453125 L 325.214844 571.148438 C 347.566406 551.414062 372.894531 556.308594 386.425781 571.402344 C 401.054688 587.753906 399.851562 611.089844 383.613281 625.695312 L 361.976562 645.109375 C 351.816406 654.230469 340.894531 658.140625 330.734375 658.140625 Z M 321.304688 611.125 C 313.835938 618.589844 320.457031 626.121094 321.304688 626.949219 C 323.503906 629.300781 331.632812 636.089844 343.925781 625.035156 L 365.429688 605.675781 C 373.574219 598.328125 366.953125 590.441406 366.175781 589.597656 C 363.988281 587.160156 355.894531 580.136719 342.960938 591.660156 L 342.585938 591.984375 L 342.265625 592.253906 Z M 374.488281 615.726562 Z M 374.488281 615.726562 " fill-opacity="1" fill-rule="nonzero"/><path fill="#000000" d="M 201.949219 547.574219 C 197.929688 547.566406 194.015625 546.933594 190.199219 545.679688 C 175.3125 540.820312 163.105469 526.773438 159.71875 510.714844 C 159.324219 508.941406 159.050781 507.152344 158.898438 505.347656 C 158.746094 503.539062 158.714844 501.730469 158.804688 499.917969 C 158.894531 498.105469 159.105469 496.308594 159.4375 494.523438 C 159.769531 492.742188 160.222656 490.988281 160.792969 489.265625 C 161.359375 487.542969 162.042969 485.867188 162.835938 484.238281 C 163.632812 482.605469 164.53125 481.035156 165.539062 479.527344 C 166.546875 478.015625 167.648438 476.582031 168.847656 475.222656 C 170.050781 473.859375 171.335938 472.585938 172.707031 471.398438 L 227.636719 422.605469 C 251.152344 401.753906 278.074219 407.171875 292.519531 423.28125 C 306.066406 438.328125 309.636719 463.902344 289.859375 481.804688 L 235.507812 530.886719 L 235.035156 531.34375 L 229.140625 536.589844 C 227.316406 538.308594 225.34375 539.84375 223.230469 541.195312 C 221.121094 542.546875 218.902344 543.691406 216.574219 544.628906 C 214.25 545.570312 211.859375 546.285156 209.398438 546.78125 C 206.941406 547.277344 204.457031 547.539062 201.949219 547.574219 Z M 260.703125 435.875 C 256.570312 435.875 251.492188 437.566406 245.617188 442.8125 L 190.636719 491.640625 C 189.667969 492.445312 188.828125 493.367188 188.117188 494.410156 C 187.40625 495.453125 186.855469 496.570312 186.460938 497.769531 C 186.066406 498.964844 185.847656 500.195312 185.800781 501.453125 C 185.753906 502.714844 185.882812 503.957031 186.183594 505.179688 C 187.574219 511.847656 192.769531 518.042969 198.527344 519.917969 C 202.761719 521.289062 206.808594 520.140625 210.957031 516.382812 L 216.425781 511.523438 L 217.152344 510.847656 L 271.640625 461.769531 C 279.871094 454.320312 275.910156 445.453125 272.269531 441.457031 C 271.550781 440.621094 270.75 439.867188 269.875 439.199219 C 269 438.527344 268.0625 437.953125 267.066406 437.476562 C 266.074219 437 265.039062 436.632812 263.964844 436.371094 C 262.894531 436.109375 261.804688 435.960938 260.703125 435.925781 Z M 280.785156 471.71875 Z M 280.785156 471.71875 " fill-opacity="1" fill-rule="nonzero"/><path fill="#000000" d="M 246.109375 586.382812 C 234.984375 586.382812 223.875 581.472656 214.953125 571.792969 C 198.597656 554.074219 198.222656 529.210938 214.070312 513.945312 L 215.902344 512.253906 L 216.359375 511.761719 L 216.644531 511.476562 L 217.101562 511.050781 L 222.265625 506.378906 C 233.613281 496.140625 259.824219 472.53125 261.820312 470.652344 C 262.058594 470.449219 262.3125 470.230469 262.566406 470.042969 C 276.5 457.960938 293.195312 453.984375 308.453125 459.109375 C 310.28125 459.742188 312.058594 460.484375 313.789062 461.34375 C 315.519531 462.203125 317.191406 463.171875 318.796875 464.242188 C 320.402344 465.316406 321.933594 466.492188 323.390625 467.761719 C 324.847656 469.03125 326.214844 470.390625 327.496094 471.839844 C 328.777344 473.285156 329.960938 474.808594 331.042969 476.40625 C 332.128906 478.007812 333.105469 479.667969 333.976562 481.394531 C 334.847656 483.117188 335.601562 484.890625 336.246094 486.714844 C 336.886719 488.535156 337.410156 490.394531 337.8125 492.28125 C 338.171875 494.011719 338.414062 495.757812 338.539062 497.519531 C 338.664062 499.28125 338.671875 501.042969 338.558594 502.804688 C 338.445312 504.570312 338.21875 506.316406 337.871094 508.046875 C 337.523438 509.777344 337.0625 511.480469 336.484375 513.148438 C 335.90625 514.820312 335.222656 516.441406 334.425781 518.019531 C 333.632812 519.597656 332.734375 521.113281 331.738281 522.570312 C 330.738281 524.027344 329.644531 525.410156 328.460938 526.722656 C 327.273438 528.03125 326.007812 529.257812 324.65625 530.394531 L 321.710938 532.96875 L 321.269531 533.359375 L 280.210938 569.472656 L 279.90625 569.746094 L 273.234375 575.601562 C 271.398438 577.289062 269.425781 578.796875 267.3125 580.125 C 265.203125 581.453125 262.988281 582.578125 260.667969 583.5 C 258.351562 584.421875 255.96875 585.125 253.519531 585.609375 C 251.074219 586.09375 248.601562 586.351562 246.109375 586.382812 Z M 235.117188 531.207031 C 234.355469 532.019531 233.5625 532.78125 232.816406 533.492188 C 226.042969 540.078125 231.121094 549.417969 234.863281 553.429688 C 237.914062 556.730469 245.988281 563.585938 255.300781 555.292969 L 261.738281 549.65625 L 262.125 549.316406 L 267.542969 544.578125 L 303.101562 513.320312 L 303.558594 512.914062 L 306.808594 510.070312 C 307.730469 509.347656 308.53125 508.515625 309.21875 507.570312 C 309.902344 506.625 310.445312 505.601562 310.84375 504.503906 C 311.242188 503.40625 311.480469 502.273438 311.558594 501.109375 C 311.640625 499.945312 311.558594 498.789062 311.3125 497.648438 C 310.988281 496.171875 310.484375 494.761719 309.800781 493.417969 C 309.117188 492.074219 308.273438 490.835938 307.273438 489.703125 C 306.273438 488.570312 305.148438 487.585938 303.898438 486.738281 C 302.644531 485.894531 301.308594 485.222656 299.882812 484.71875 C 292.078125 482.078125 284.816406 486.496094 280.089844 490.65625 L 279.71875 490.980469 L 240.417969 526.417969 L 235.492188 530.871094 C 235.375 530.992188 235.25 531.105469 235.117188 531.207031 Z M 298.886719 523.066406 Z M 298.886719 523.066406 Z M 298.886719 523.066406 Z M 299.324219 519.683594 C 299.027344 520.792969 298.878906 521.917969 298.886719 523.066406 C 298.882812 521.921875 299.03125 520.792969 299.324219 519.683594 Z M 315.699219 520.242188 Z M 312.3125 509.597656 C 311.226562 509.609375 310.152344 509.746094 309.097656 510.003906 C 310.152344 509.746094 311.226562 509.613281 312.3125 509.597656 Z M 312.3125 509.597656 Z M 312.3125 509.597656 Z M 312.3125 509.597656 " fill-opacity="1" fill-rule="nonzero"/><path fill="#000000" d="M 290.199219 625.390625 C 285.875 625.382812 281.65625 624.699219 277.550781 623.34375 C 275.683594 622.722656 273.867188 621.980469 272.097656 621.125 C 270.328125 620.265625 268.621094 619.296875 266.976562 618.21875 C 265.328125 617.140625 263.761719 615.964844 262.269531 614.683594 C 260.777344 613.402344 259.371094 612.03125 258.054688 610.570312 C 256.738281 609.109375 255.523438 607.570312 254.40625 605.953125 C 253.289062 604.332031 252.28125 602.648438 251.382812 600.902344 C 250.480469 599.152344 249.699219 597.355469 249.03125 595.503906 C 248.363281 593.65625 247.820312 591.769531 247.394531 589.851562 C 244.328125 575.109375 249.628906 560.386719 261.957031 549.46875 L 262.160156 549.300781 L 265.546875 546.269531 L 267.460938 544.578125 C 271.777344 540.753906 276.164062 536.910156 280.566406 533.070312 C 288.050781 526.503906 295.804688 519.714844 303.320312 512.996094 C 326.910156 492.25 353.609375 497.578125 367.851562 513.539062 C 381.140625 528.433594 384.628906 553.886719 364.886719 571.707031 L 356.574219 579.238281 C 351.867188 583.453125 347.175781 587.703125 342.519531 591.914062 L 317.628906 614.476562 C 315.78125 616.199219 313.792969 617.734375 311.660156 619.085938 C 309.527344 620.4375 307.289062 621.578125 304.941406 622.511719 C 302.59375 623.445312 300.183594 624.15625 297.703125 624.636719 C 295.226562 625.121094 292.722656 625.375 290.199219 625.390625 Z M 279.835938 569.8125 C 274.757812 574.28125 272.84375 579.171875 273.910156 584.351562 C 274.277344 585.875 274.828125 587.328125 275.5625 588.710938 C 276.296875 590.09375 277.191406 591.367188 278.246094 592.523438 C 279.300781 593.683594 280.484375 594.691406 281.792969 595.550781 C 283.105469 596.410156 284.5 597.09375 285.984375 597.601562 C 287.132812 597.996094 288.316406 598.21875 289.53125 598.277344 C 290.75 598.335938 291.949219 598.222656 293.132812 597.941406 C 294.3125 597.660156 295.433594 597.21875 296.496094 596.621094 C 297.554688 596.023438 298.507812 595.289062 299.359375 594.421875 L 302.882812 591.203125 L 324.402344 571.828125 C 329.058594 567.5625 333.816406 563.363281 338.589844 559.015625 L 346.886719 551.566406 C 355.101562 544.136719 351.324219 535.472656 347.785156 531.511719 C 345.28125 528.6875 335.933594 520.460938 321.4375 533.207031 C 313.90625 539.976562 306.117188 546.746094 298.5625 553.378906 L 285.457031 564.921875 L 283.613281 566.613281 C 282.324219 567.644531 281.089844 568.746094 279.835938 569.8125 Z M 355.898438 561.671875 Z M 355.898438 561.671875 " fill-opacity="1" fill-rule="nonzero"/><path fill="#000000" d="M 333.953125 594.996094 C 333.0625 594.996094 332.183594 594.910156 331.308594 594.734375 C 330.4375 594.5625 329.589844 594.304688 328.769531 593.964844 C 327.945312 593.625 327.167969 593.207031 326.425781 592.714844 C 325.6875 592.21875 325.003906 591.660156 324.375 591.03125 C 323.746094 590.402344 323.183594 589.71875 322.6875 588.976562 C 322.195312 588.238281 321.777344 587.460938 321.4375 586.636719 C 321.097656 585.816406 320.839844 584.96875 320.667969 584.097656 C 320.492188 583.226562 320.40625 582.34375 320.40625 581.457031 C 320.40625 580.566406 320.492188 579.6875 320.667969 578.816406 C 320.839844 577.941406 321.097656 577.097656 321.4375 576.273438 C 321.777344 575.453125 322.195312 574.671875 322.6875 573.933594 C 323.183594 573.195312 323.746094 572.511719 324.375 571.882812 C 325.003906 571.253906 325.6875 570.691406 326.425781 570.199219 C 327.167969 569.703125 327.945312 569.289062 328.769531 568.949219 C 329.589844 568.609375 330.4375 568.351562 331.308594 568.175781 C 332.183594 568.003906 333.0625 567.917969 333.953125 567.917969 C 334.839844 567.917969 335.722656 568.003906 336.59375 568.175781 C 337.46875 568.351562 338.3125 568.609375 339.136719 568.949219 C 339.957031 569.289062 340.738281 569.703125 341.476562 570.199219 C 342.21875 570.691406 342.902344 571.253906 343.53125 571.882812 C 344.160156 572.511719 344.722656 573.195312 345.214844 573.933594 C 345.710938 574.671875 346.125 575.453125 346.46875 576.273438 C 346.808594 577.097656 347.0625 577.941406 347.238281 578.816406 C 347.410156 579.6875 347.5 580.566406 347.5 581.457031 C 347.5 582.34375 347.410156 583.226562 347.238281 584.097656 C 347.0625 584.96875 346.808594 585.816406 346.46875 586.636719 C 346.125 587.460938 345.710938 588.238281 345.214844 588.980469 C 344.722656 589.71875 344.160156 590.402344 343.53125 591.03125 C 342.902344 591.660156 342.21875 592.21875 341.476562 592.714844 C 340.738281 593.207031 339.957031 593.625 339.136719 593.964844 C 338.3125 594.304688 337.46875 594.5625 336.59375 594.734375 C 335.722656 594.910156 334.839844 594.996094 333.953125 594.996094 Z M 333.953125 594.996094 " fill-opacity="1" fill-rule="nonzero"/><path fill="#000000" d="M 537.628906 561.671875 C 535.835938 561.671875 534.113281 561.332031 532.457031 560.648438 C 530.796875 559.964844 529.332031 558.992188 528.0625 557.730469 L 527.0625 556.695312 L 526.488281 556.085938 C 525.882812 555.464844 525.339844 554.789062 524.859375 554.0625 C 524.382812 553.335938 523.980469 552.566406 523.648438 551.761719 C 523.320312 550.957031 523.070312 550.128906 522.902344 549.273438 C 522.730469 548.421875 522.644531 547.558594 522.640625 546.691406 C 522.636719 545.820312 522.714844 544.957031 522.878906 544.101562 C 523.042969 543.246094 523.285156 542.417969 523.609375 541.609375 C 523.929688 540.800781 524.328125 540.03125 524.800781 539.300781 C 525.269531 538.566406 525.808594 537.886719 526.410156 537.261719 C 527.011719 536.632812 527.671875 536.066406 528.382812 535.566406 C 529.09375 535.066406 529.847656 534.636719 530.640625 534.28125 C 531.433594 533.925781 532.253906 533.648438 533.101562 533.449219 C 533.949219 533.25 534.808594 533.136719 535.679688 533.105469 C 536.550781 533.070312 537.414062 533.121094 538.273438 533.257812 C 539.132812 533.390625 539.972656 533.605469 540.792969 533.902344 C 541.609375 534.195312 542.394531 534.566406 543.140625 535.015625 C 543.886719 535.460938 544.585938 535.976562 545.234375 536.554688 C 546.230469 537.46875 547.042969 538.351562 547.636719 538.992188 C 548.523438 539.964844 549.253906 541.039062 549.828125 542.21875 C 550.402344 543.402344 550.796875 544.640625 551.007812 545.9375 C 551.222656 547.234375 551.246094 548.535156 551.082031 549.839844 C 550.914062 551.140625 550.566406 552.394531 550.035156 553.597656 C 549.507812 554.796875 548.816406 555.898438 547.964844 556.902344 C 547.113281 557.902344 546.136719 558.761719 545.035156 559.476562 C 543.933594 560.195312 542.753906 560.742188 541.492188 561.113281 C 540.230469 561.488281 538.945312 561.671875 537.628906 561.671875 Z M 537.628906 561.671875 " fill-opacity="1" fill-rule="nonzero"/><path fill="#000000" d="M 181.714844 495.074219 C 180.648438 495.074219 179.59375 494.953125 178.554688 494.703125 C 177.515625 494.453125 176.519531 494.089844 175.570312 493.605469 C 174.617188 493.121094 173.734375 492.53125 172.921875 491.839844 C 172.109375 491.148438 171.386719 490.371094 170.757812 489.507812 L 143.667969 452.359375 C 143.179688 451.691406 142.757812 450.988281 142.402344 450.242188 C 142.042969 449.5 141.753906 448.730469 141.539062 447.933594 C 141.320312 447.136719 141.179688 446.328125 141.109375 445.503906 C 141.039062 444.683594 141.046875 443.863281 141.128906 443.039062 C 141.210938 442.21875 141.363281 441.414062 141.59375 440.621094 C 141.820312 439.828125 142.121094 439.0625 142.488281 438.324219 C 142.859375 437.585938 143.292969 436.886719 143.789062 436.226562 C 144.285156 435.566406 144.835938 434.960938 145.445312 434.402344 C 146.003906 433.878906 146.515625 433.3125 146.988281 432.710938 L 279.566406 262.976562 L 279.703125 262.804688 C 279.933594 262.523438 280.144531 262.226562 280.328125 261.910156 C 281.023438 260.769531 281.871094 259.753906 282.867188 258.863281 C 283.867188 257.972656 284.972656 257.246094 286.183594 256.683594 C 287.398438 256.117188 288.664062 255.742188 289.988281 255.554688 C 291.3125 255.367188 292.636719 255.375 293.957031 255.578125 L 402.324219 272.148438 C 403.183594 272.304688 404.015625 272.542969 404.828125 272.863281 C 405.640625 273.179688 406.414062 273.574219 407.152344 274.042969 C 407.886719 274.511719 408.570312 275.042969 409.203125 275.644531 C 409.835938 276.246094 410.40625 276.898438 410.910156 277.609375 C 411.417969 278.320312 411.851562 279.070312 412.210938 279.867188 C 412.570312 280.660156 412.851562 281.480469 413.054688 282.328125 C 413.257812 283.175781 413.375 284.035156 413.414062 284.90625 C 413.449219 285.777344 413.402344 286.644531 413.269531 287.503906 C 413.136719 288.367188 412.925781 289.207031 412.632812 290.027344 C 412.335938 290.851562 411.96875 291.636719 411.519531 292.382812 C 411.074219 293.132812 410.5625 293.832031 409.980469 294.484375 C 409.402344 295.132812 408.761719 295.722656 408.066406 296.25 C 407.375 296.777344 406.636719 297.230469 405.851562 297.617188 C 405.070312 298 404.257812 298.308594 403.414062 298.535156 C 402.574219 298.761719 401.71875 298.90625 400.847656 298.96875 C 399.976562 299.03125 399.109375 299.011719 398.242188 298.90625 L 297.820312 283.554688 L 171.742188 444.894531 L 192.652344 473.511719 C 193.390625 474.523438 193.976562 475.613281 194.414062 476.785156 C 194.847656 477.957031 195.117188 479.164062 195.21875 480.410156 C 195.320312 481.65625 195.246094 482.894531 195.003906 484.121094 C 194.765625 485.347656 194.359375 486.519531 193.792969 487.632812 C 193.226562 488.746094 192.519531 489.765625 191.671875 490.683594 C 190.824219 491.601562 189.867188 492.386719 188.800781 493.042969 C 187.734375 493.695312 186.601562 494.191406 185.394531 494.53125 C 184.191406 494.871094 182.964844 495.042969 181.714844 495.042969 Z M 181.714844 495.074219 " fill-opacity="1" fill-rule="nonzero"/><g clip-path="url(#33dcf9c0f7)"><path fill="#000000" d="M 410.164062 678.738281 C 407.304688 678.726562 404.46875 678.449219 401.660156 677.90625 C 398.855469 677.359375 396.121094 676.558594 393.464844 675.496094 C 390.808594 674.4375 388.273438 673.136719 385.863281 671.601562 C 383.453125 670.0625 381.207031 668.3125 379.128906 666.347656 L 350.054688 639.183594 C 349.425781 638.574219 348.859375 637.90625 348.359375 637.183594 C 347.859375 636.464844 347.433594 635.699219 347.082031 634.894531 C 346.730469 634.09375 346.457031 633.261719 346.269531 632.402344 C 346.078125 631.546875 345.972656 630.679688 345.953125 629.800781 C 345.929688 628.925781 345.992188 628.054688 346.140625 627.1875 C 346.289062 626.324219 346.519531 625.480469 346.832031 624.660156 C 347.144531 623.839844 347.535156 623.054688 347.996094 622.3125 C 348.460938 621.566406 348.996094 620.871094 349.59375 620.230469 C 350.195312 619.589844 350.847656 619.011719 351.5625 618.496094 C 352.273438 617.984375 353.027344 617.542969 353.824219 617.175781 C 354.625 616.808594 355.449219 616.519531 356.304688 616.316406 C 357.15625 616.109375 358.023438 615.984375 358.898438 615.945312 C 359.777344 615.910156 360.648438 615.953125 361.519531 616.085938 C 362.386719 616.21875 363.234375 616.429688 364.0625 616.726562 C 364.886719 617.023438 365.679688 617.394531 366.433594 617.847656 C 367.1875 618.296875 367.890625 618.8125 368.542969 619.402344 L 397.617188 646.5625 C 404.695312 653.164062 415.261719 653.332031 421.660156 646.917969 C 425.878906 642.707031 428.65625 636.765625 428.570312 632.261719 C 428.628906 631.445312 428.511719 630.652344 428.214844 629.890625 C 427.917969 629.125 427.472656 628.460938 426.875 627.898438 C 426.203125 627.292969 425.597656 626.632812 425.058594 625.910156 C 424.519531 625.183594 424.054688 624.414062 423.667969 623.601562 C 423.28125 622.785156 422.980469 621.9375 422.765625 621.0625 C 422.546875 620.1875 422.421875 619.296875 422.382812 618.394531 C 422.34375 617.496094 422.394531 616.597656 422.535156 615.707031 C 422.675781 614.816406 422.902344 613.945312 423.214844 613.101562 C 423.53125 612.253906 423.925781 611.449219 424.398438 610.679688 C 424.875 609.914062 425.421875 609.199219 426.039062 608.542969 C 426.660156 607.886719 427.335938 607.296875 428.070312 606.773438 C 428.808594 606.25 429.589844 605.804688 430.414062 605.4375 C 431.238281 605.074219 432.089844 604.792969 432.972656 604.59375 C 433.855469 604.398438 434.746094 604.292969 435.648438 604.273438 C 436.550781 604.257812 437.445312 604.328125 438.335938 604.492188 C 439.222656 604.652344 440.085938 604.898438 440.925781 605.234375 C 441.765625 605.566406 442.5625 605.980469 443.316406 606.472656 C 444.074219 606.964844 444.773438 607.53125 445.417969 608.164062 L 449.820312 612.308594 C 455.882812 617.980469 467.363281 626.40625 476.167969 618.808594 C 482.429688 613.390625 484.632812 602.867188 480.570312 597.128906 C 480.085938 596.433594 479.667969 595.703125 479.320312 594.933594 C 478.976562 594.160156 478.703125 593.367188 478.503906 592.542969 C 478.308594 591.722656 478.1875 590.890625 478.144531 590.042969 C 478.105469 589.199219 478.140625 588.359375 478.257812 587.523438 C 478.375 586.683594 478.566406 585.867188 478.835938 585.066406 C 479.105469 584.265625 479.445312 583.496094 479.859375 582.757812 C 480.273438 582.019531 480.75 581.328125 481.296875 580.679688 C 481.839844 580.03125 482.4375 579.441406 483.089844 578.90625 C 483.746094 578.371094 484.441406 577.898438 485.183594 577.492188 C 485.925781 577.089844 486.699219 576.757812 487.503906 576.496094 C 488.308594 576.234375 489.132812 576.054688 489.972656 575.945312 C 490.808594 575.839844 491.652344 575.8125 492.496094 575.863281 C 493.339844 575.914062 494.171875 576.042969 494.992188 576.25 C 495.8125 576.457031 496.605469 576.738281 497.371094 577.09375 C 498.140625 577.449219 498.867188 577.871094 499.554688 578.363281 C 500.242188 578.855469 500.878906 579.40625 501.464844 580.019531 C 503.074219 581.585938 504.925781 582.78125 507.015625 583.613281 C 509.101562 584.441406 511.269531 584.839844 513.519531 584.808594 L 513.722656 584.808594 C 516.085938 584.855469 518.371094 584.449219 520.578125 583.59375 C 522.78125 582.738281 524.742188 581.496094 526.453125 579.867188 C 527.199219 579.125 527.867188 578.324219 528.460938 577.457031 C 529.054688 576.59375 529.5625 575.679688 529.984375 574.71875 C 530.40625 573.757812 530.734375 572.769531 530.972656 571.746094 C 531.210938 570.722656 531.347656 569.6875 531.390625 568.640625 C 531.433594 567.59375 531.378906 566.550781 531.226562 565.511719 C 531.074219 564.472656 530.828125 563.460938 530.484375 562.46875 C 530.140625 561.476562 529.710938 560.527344 529.1875 559.613281 C 528.667969 558.703125 528.066406 557.851562 527.386719 557.050781 C 526.808594 556.394531 526.304688 555.683594 525.863281 554.925781 C 525.425781 554.171875 525.0625 553.378906 524.78125 552.550781 C 524.496094 551.722656 524.292969 550.878906 524.171875 550.011719 C 524.050781 549.144531 524.015625 548.273438 524.0625 547.402344 C 524.109375 546.527344 524.242188 545.667969 524.457031 544.820312 C 524.671875 543.972656 524.964844 543.152344 525.339844 542.359375 C 525.714844 541.570312 526.160156 540.820312 526.679688 540.117188 C 527.199219 539.414062 527.78125 538.765625 528.425781 538.171875 C 529.070312 537.582031 529.765625 537.054688 530.511719 536.597656 C 531.257812 536.140625 532.039062 535.761719 532.859375 535.457031 C 533.679688 535.152344 534.523438 534.925781 535.386719 534.785156 C 536.25 534.644531 537.117188 534.585938 537.992188 534.609375 C 538.867188 534.636719 539.734375 534.746094 540.585938 534.941406 C 541.441406 535.132812 542.265625 535.40625 543.066406 535.761719 C 543.867188 536.117188 544.625 536.542969 545.34375 537.042969 C 546.0625 537.546875 546.722656 538.109375 547.332031 538.738281 C 556.171875 547.863281 565.804688 551.839844 573.730469 549.640625 C 574.929688 549.3125 576.0625 548.835938 577.128906 548.203125 C 578.195312 547.570312 579.160156 546.808594 580.023438 545.914062 C 580.882812 545.019531 581.605469 544.027344 582.199219 542.933594 C 582.789062 541.84375 583.222656 540.695312 583.5 539.484375 C 585.480469 530.9375 580.519531 520.597656 569.867188 511.136719 C 569.203125 510.546875 568.597656 509.898438 568.058594 509.1875 C 567.519531 508.480469 567.050781 507.722656 566.660156 506.925781 C 566.269531 506.125 565.960938 505.292969 565.734375 504.429688 C 565.507812 503.570312 565.367188 502.695312 565.3125 501.804688 C 565.257812 500.917969 565.289062 500.03125 565.410156 499.148438 C 565.53125 498.265625 565.734375 497.402344 566.027344 496.5625 C 566.316406 495.71875 566.683594 494.914062 567.132812 494.144531 C 567.582031 493.375 568.101562 492.65625 568.695312 491.988281 C 569.285156 491.320312 569.933594 490.71875 570.644531 490.179688 C 571.351562 489.640625 572.109375 489.175781 572.910156 488.785156 C 573.710938 488.394531 574.542969 488.085938 575.40625 487.859375 C 576.265625 487.632812 577.140625 487.492188 578.03125 487.441406 C 578.921875 487.386719 579.808594 487.417969 580.691406 487.539062 C 581.574219 487.660156 582.4375 487.867188 583.277344 488.15625 C 584.121094 488.449219 584.925781 488.816406 585.695312 489.265625 C 586.464844 489.714844 587.183594 490.234375 587.851562 490.828125 C 606.15625 507.089844 614.179688 527.011719 609.863281 545.527344 C 609.449219 547.308594 608.917969 549.058594 608.269531 550.769531 C 607.621094 552.480469 606.863281 554.144531 605.988281 555.753906 C 605.117188 557.363281 604.144531 558.910156 603.0625 560.386719 C 601.984375 561.867188 600.8125 563.269531 599.542969 564.589844 C 598.277344 565.910156 596.925781 567.140625 595.492188 568.28125 C 594.058594 569.421875 592.558594 570.460938 590.984375 571.402344 C 589.414062 572.339844 587.785156 573.167969 586.101562 573.890625 C 584.414062 574.609375 582.691406 575.214844 580.925781 575.703125 C 577.128906 576.746094 573.265625 577.28125 569.328125 577.308594 C 565.390625 577.335938 561.519531 576.847656 557.710938 575.855469 C 556.910156 580.234375 555.472656 584.398438 553.40625 588.34375 C 551.339844 592.285156 548.734375 595.835938 545.589844 598.988281 C 543.476562 601.050781 541.1875 602.890625 538.714844 604.503906 C 536.242188 606.117188 533.640625 607.476562 530.902344 608.582031 C 528.164062 609.6875 525.347656 610.515625 522.449219 611.066406 C 519.546875 611.621094 516.621094 611.886719 513.671875 611.871094 L 513.214844 611.871094 C 511.84375 611.871094 510.453125 611.769531 509.097656 611.632812 C 508.683594 614.292969 508.039062 616.894531 507.167969 619.441406 C 506.296875 621.988281 505.210938 624.441406 503.910156 626.796875 C 502.613281 629.15625 501.117188 631.382812 499.429688 633.480469 C 497.742188 635.578125 495.886719 637.511719 493.859375 639.285156 C 492.496094 640.472656 491.054688 641.5625 489.542969 642.550781 C 488.027344 643.542969 486.453125 644.425781 484.820312 645.199219 C 483.183594 645.972656 481.503906 646.632812 479.777344 647.179688 C 478.054688 647.722656 476.296875 648.148438 474.515625 648.453125 C 472.730469 648.757812 470.9375 648.9375 469.128906 648.996094 C 467.320312 649.054688 465.515625 648.992188 463.714844 648.804688 C 461.917969 648.613281 460.136719 648.304688 458.382812 647.875 C 456.625 647.441406 454.90625 646.890625 453.222656 646.226562 C 451.917969 649.949219 450.21875 653.480469 448.117188 656.820312 C 446.015625 660.160156 443.570312 663.222656 440.777344 666.011719 C 438.773438 668.027344 436.589844 669.828125 434.226562 671.414062 C 431.863281 673 429.371094 674.339844 426.742188 675.429688 C 424.117188 676.523438 421.40625 677.347656 418.617188 677.90625 C 415.828125 678.460938 413.007812 678.738281 410.164062 678.738281 Z M 410.164062 678.738281 " fill-opacity="1" fill-rule="nonzero"/></g><path fill="#000000" d="M 491.726562 602.96875 C 489.929688 602.96875 488.203125 602.625 486.539062 601.941406 C 484.878906 601.253906 483.414062 600.277344 482.144531 599.007812 L 442.929688 559.757812 C 442.324219 559.125 441.789062 558.441406 441.320312 557.703125 C 440.851562 556.964844 440.457031 556.1875 440.136719 555.375 C 439.816406 554.558594 439.578125 553.722656 439.421875 552.863281 C 439.265625 552.003906 439.191406 551.136719 439.203125 550.261719 C 439.214844 549.386719 439.308594 548.519531 439.488281 547.664062 C 439.667969 546.808594 439.925781 545.976562 440.265625 545.171875 C 440.605469 544.367188 441.023438 543.601562 441.511719 542.875 C 442 542.152344 442.550781 541.476562 443.171875 540.859375 C 443.789062 540.242188 444.460938 539.6875 445.1875 539.199219 C 445.914062 538.710938 446.679688 538.296875 447.484375 537.957031 C 448.289062 537.617188 449.121094 537.359375 449.976562 537.179688 C 450.835938 537.003906 451.699219 536.90625 452.574219 536.894531 C 453.449219 536.882812 454.316406 536.957031 455.179688 537.113281 C 456.039062 537.269531 456.875 537.507812 457.691406 537.828125 C 458.503906 538.148438 459.28125 538.542969 460.019531 539.011719 C 460.757812 539.480469 461.445312 540.015625 462.078125 540.617188 L 501.34375 579.847656 C 502.292969 580.796875 503.082031 581.859375 503.714844 583.039062 C 504.347656 584.222656 504.792969 585.46875 505.054688 586.785156 C 505.316406 588.097656 505.382812 589.421875 505.25 590.753906 C 505.121094 592.085938 504.796875 593.371094 504.285156 594.609375 C 503.773438 595.847656 503.089844 596.984375 502.238281 598.019531 C 501.390625 599.054688 500.40625 599.945312 499.292969 600.6875 C 498.175781 601.433594 496.976562 602 495.695312 602.386719 C 494.414062 602.773438 493.101562 602.96875 491.761719 602.96875 Z M 491.726562 602.96875 " fill-opacity="1" fill-rule="nonzero"/><path fill="#000000" d="M 536.054688 560.113281 C 534.257812 560.113281 532.527344 559.769531 530.867188 559.078125 C 529.207031 558.390625 527.742188 557.410156 526.472656 556.136719 L 485.257812 514.945312 C 484.65625 514.308594 484.121094 513.625 483.652344 512.886719 C 483.179688 512.148438 482.785156 511.371094 482.46875 510.558594 C 482.148438 509.746094 481.910156 508.90625 481.753906 508.046875 C 481.597656 507.1875 481.523438 506.320312 481.535156 505.445312 C 481.546875 504.570312 481.640625 503.707031 481.820312 502.851562 C 482 501.992188 482.257812 501.164062 482.597656 500.355469 C 482.9375 499.550781 483.351562 498.785156 483.839844 498.058594 C 484.328125 497.335938 484.882812 496.664062 485.5 496.042969 C 486.121094 495.425781 486.792969 494.875 487.519531 494.386719 C 488.242188 493.898438 489.007812 493.484375 489.816406 493.144531 C 490.621094 492.804688 491.453125 492.542969 492.308594 492.367188 C 493.164062 492.1875 494.03125 492.089844 494.90625 492.082031 C 495.78125 492.070312 496.648438 492.140625 497.507812 492.296875 C 498.371094 492.457031 499.207031 492.695312 500.023438 493.011719 C 500.835938 493.332031 501.613281 493.726562 502.351562 494.195312 C 503.089844 494.664062 503.773438 495.199219 504.410156 495.804688 L 545.621094 536.996094 C 546.570312 537.941406 547.359375 539.007812 547.992188 540.1875 C 548.625 541.367188 549.070312 542.613281 549.332031 543.925781 C 549.59375 545.238281 549.660156 546.5625 549.53125 547.894531 C 549.398438 549.226562 549.078125 550.511719 548.566406 551.75 C 548.054688 552.988281 547.375 554.125 546.523438 555.160156 C 545.675781 556.195312 544.695312 557.085938 543.582031 557.828125 C 542.46875 558.574219 541.269531 559.140625 539.988281 559.53125 C 538.707031 559.917969 537.394531 560.113281 536.054688 560.113281 Z M 536.054688 560.113281 " fill-opacity="1" fill-rule="nonzero"/><path fill="#000000" d="M 436.15625 631.550781 C 434.359375 631.554688 432.628906 631.210938 430.96875 630.523438 C 429.308594 629.839844 427.84375 628.859375 426.570312 627.59375 L 405.1875 606.199219 C 404.605469 605.5625 404.09375 604.875 403.644531 604.140625 C 403.199219 603.40625 402.824219 602.632812 402.523438 601.828125 C 402.222656 601.019531 402 600.191406 401.859375 599.34375 C 401.714844 598.492188 401.652344 597.640625 401.675781 596.777344 C 401.695312 595.917969 401.796875 595.066406 401.980469 594.226562 C 402.160156 593.382812 402.421875 592.566406 402.761719 591.777344 C 403.101562 590.984375 403.511719 590.230469 403.992188 589.519531 C 404.476562 588.804688 405.019531 588.144531 405.628906 587.535156 C 406.238281 586.925781 406.898438 586.378906 407.613281 585.894531 C 408.324219 585.410156 409.078125 585 409.867188 584.660156 C 410.660156 584.320312 411.476562 584.058594 412.316406 583.875 C 413.160156 583.691406 414.007812 583.585938 414.871094 583.566406 C 415.730469 583.542969 416.585938 583.601562 417.4375 583.742188 C 418.285156 583.882812 419.117188 584.105469 419.921875 584.402344 C 420.730469 584.703125 421.503906 585.074219 422.238281 585.523438 C 422.976562 585.96875 423.664062 586.480469 424.300781 587.058594 L 445.6875 608.433594 C 446.636719 609.378906 447.425781 610.441406 448.054688 611.621094 C 448.6875 612.800781 449.136719 614.042969 449.398438 615.355469 C 449.660156 616.667969 449.726562 617.988281 449.597656 619.320312 C 449.46875 620.652344 449.148438 621.9375 448.640625 623.171875 C 448.128906 624.410156 447.449219 625.546875 446.605469 626.582031 C 445.757812 627.617188 444.777344 628.507812 443.667969 629.253906 C 442.554688 630 441.359375 630.566406 440.082031 630.957031 C 438.800781 631.351562 437.492188 631.546875 436.15625 631.550781 Z M 436.15625 631.550781 " fill-opacity="1" fill-rule="nonzero"/></svg>