<svg xmlns="http://www.w3.org/2000/svg" xmlns:xlink="http://www.w3.org/1999/xlink" width="1080" zoomAndPan="magnify" viewBox="0 0 810 809.999993" height="1080" preserveAspectRatio="xMidYMid meet" version="1.0"><path fill="#000000" d="M 738.789062 168.871094 C 738.789062 129.484375 723.703125 89.675781 693.527344 59.503906 C 640.296875 5.867188 557.3125 0 496.960938 41.066406 C 486.066406 39.390625 474.75 42.742188 466.367188 51.121094 C 457.984375 59.503906 454.632812 70.816406 456.308594 81.710938 C 439.542969 106.015625 430.324219 134.09375 429.484375 163.84375 L 120.597656 514.578125 C 116.40625 519.1875 116.828125 526.3125 121.019531 530.921875 L 139.460938 549.359375 L 115.152344 587.492188 C 112.21875 592.101562 112.636719 598.386719 116.828125 602.15625 L 124.789062 610.117188 C 82.460938 656.214844 83.296875 728.707031 128.144531 773.542969 L 129.820312 775.21875 C 152.03125 797.429688 181.789062 810 213.640625 810 C 245.074219 810 274.832031 797.847656 297.046875 775.21875 L 491.515625 580.785156 C 505.34375 566.957031 527.976562 566.957031 542.226562 580.785156 C 548.933594 587.492188 552.703125 596.710938 552.703125 605.929688 C 552.703125 615.566406 548.933594 624.367188 542.226562 631.070312 L 424.457031 748.820312 C 419.84375 753.429688 419.84375 760.972656 424.457031 765.582031 C 429.066406 770.191406 436.609375 770.191406 441.21875 765.582031 L 558.992188 647.832031 C 570.308594 636.519531 576.59375 621.433594 576.59375 605.929688 C 576.59375 590.003906 570.308594 574.917969 558.992188 564.023438 C 547.675781 552.710938 533.003906 546.425781 517.078125 546.425781 C 501.152344 546.425781 486.066406 552.710938 475.167969 564.023438 L 280.699219 758.457031 C 262.679688 776.476562 239.207031 786.113281 214.0625 786.113281 C 188.914062 786.113281 165.023438 776.476562 147.421875 758.457031 L 145.746094 756.78125 C 110.121094 721.164062 109.285156 664.175781 142.394531 626.878906 L 151.195312 635.679688 C 153.289062 637.777344 156.644531 639.03125 159.578125 639.03125 C 161.671875 639.03125 164.1875 638.613281 165.863281 637.355469 L 204.003906 613.050781 L 222.445312 631.488281 C 224.957031 634.003906 227.890625 634.84375 230.824219 634.84375 C 233.757812 634.84375 236.273438 634.003906 238.789062 631.910156 L 589.585938 322.660156 C 619.34375 321.820312 647.421875 312.601562 671.730469 295.839844 C 673.410156 296.257812 675.503906 296.257812 677.179688 296.257812 C 686.820312 296.257812 695.621094 292.488281 702.328125 285.785156 C 709.03125 279.078125 712.804688 270.28125 712.804688 260.640625 C 712.804688 258.964844 712.386719 256.871094 712.386719 255.195312 C 729.988281 229.632812 738.789062 199.460938 738.789062 168.871094 Z M 483.132812 67.882812 C 485.644531 65.371094 488.578125 64.53125 491.515625 64.53125 C 494.449219 64.53125 497.800781 65.789062 499.894531 67.882812 L 685.144531 253.097656 C 687.238281 255.195312 688.496094 258.546875 688.496094 261.480469 C 688.496094 264.832031 687.238281 267.765625 685.144531 269.859375 C 680.535156 274.46875 672.988281 274.46875 668.378906 269.859375 L 483.132812 84.644531 C 478.519531 80.035156 478.519531 72.492188 483.132812 67.882812 Z M 633.59375 47.351562 C 649.519531 53.636719 664.1875 63.273438 676.761719 76.265625 C 719.089844 118.585938 726.214844 182.699219 698.554688 232.566406 L 520.433594 54.476562 C 540.128906 43.578125 561.925781 37.714844 584.136719 37.714844 C 600.902344 38.132812 617.667969 41.066406 633.59375 47.351562 Z M 469.71875 105.179688 L 647.84375 283.269531 C 628.5625 294.164062 606.769531 300.03125 584.136719 300.03125 C 548.933594 300.03125 516.242188 286.621094 491.515625 261.480469 C 466.785156 236.757812 452.957031 204.070312 452.957031 168.871094 C 453.375 146.246094 459.242188 124.453125 469.71875 105.179688 Z M 513.308594 358.695312 C 504.085938 357.019531 477.265625 348.640625 440.800781 312.183594 C 404.339844 275.726562 395.957031 249.328125 394.28125 239.691406 L 431.582031 197.367188 C 437.449219 227.957031 452.117188 256.03125 474.75 278.242188 C 497.382812 300.871094 525.460938 315.117188 556.058594 320.984375 Z M 160.414062 612.632812 L 140.296875 592.519531 L 156.644531 566.957031 L 185.980469 596.289062 Z M 231.246094 607.1875 L 146.164062 522.121094 L 376.257812 260.640625 C 382.542969 276.984375 395.957031 300.449219 424.457031 328.945312 C 452.957031 357.4375 476.425781 370.847656 492.769531 377.132812 Z M 231.246094 607.1875 " fill-opacity="1" fill-rule="nonzero"/></svg>