<svg xmlns="http://www.w3.org/2000/svg" width="159" height="28" viewBox="0 0 159 28" fill="none">
  <path fill-rule="evenodd" clip-rule="evenodd" d="M21.4703 11.7557L13.7504 16.5654V15.0765L21.4703 10.2668V11.7557ZM21.4703 18.9082L13.7504 23.718V22.2291L21.4703 17.4193V18.9082ZM13.7504 18.653L19.3395 15.0517V16.5406L13.7504 20.1419V18.653ZM22.7997 6.04844L13.7719 0.836295C12.7933 0.271365 11.5875 0.271365 10.6092 0.836295L1.58136 6.04844C0.602738 6.61336 0 7.65739 0 8.78753V19.2121C0 20.3417 0.602738 21.3862 1.58136 21.9509L10.6092 27.163C11.5875 27.7282 12.7933 27.7282 13.7719 27.163L22.7997 21.9509C23.7784 21.3862 24.3811 20.3417 24.3811 19.2121V8.78753C24.3811 7.65739 23.7784 6.61336 22.7997 6.04844Z" fill="#053E68"/>
  <path fill-rule="evenodd" clip-rule="evenodd" d="M36.2293 13.4541H42.618C42.4599 12.4849 41.2927 11.3774 39.4931 11.3774C37.9699 11.3774 36.6646 12.0894 36.2293 13.4541ZM42.8159 15.8278L45.1697 16.8363C44.4773 18.557 42.3608 19.981 39.6115 19.981C36.0317 19.981 33.4604 17.7856 33.4604 14.5619C33.4604 11.4961 35.992 9.16211 39.5919 9.16211C43.1917 9.16211 45.3474 11.4961 45.3474 14.4628V15.3333H36.1305C36.4667 16.8363 37.8314 17.7263 39.6115 17.7263C41.1545 17.7263 42.3412 16.9748 42.8159 15.8278Z" fill="#053E68"/>
  <path fill-rule="evenodd" clip-rule="evenodd" d="M54.7017 15.0363L50.7856 15.4715C49.5594 15.6098 48.9263 15.9065 48.9263 16.6778C48.9263 17.4691 49.6977 17.8648 50.9832 17.8648C52.6843 17.8648 54.7017 17.1329 54.7017 15.7483V15.0363ZM46.2363 16.7571C46.2363 14.8384 47.8778 13.7704 50.3702 13.5132L54.7017 13.0584V12.9792C54.7017 12.1093 53.9303 11.397 52.1105 11.397C50.5877 11.397 49.3416 12.0695 48.9856 12.9792L46.5923 12.1683C47.245 10.3488 49.5395 9.16211 52.2096 9.16211C55.4731 9.16211 57.3718 10.4874 57.3718 13.0186V17.1131C57.3718 17.6868 57.629 17.9438 58.8157 17.6868V19.7636C56.5411 20.2184 55.4137 19.4865 54.9788 18.4778C54.0291 19.3678 52.4666 19.981 50.6076 19.981C48.1155 19.981 46.2363 18.8537 46.2363 16.7571Z" fill="#053E68"/>
  <path fill-rule="evenodd" clip-rule="evenodd" d="M65.4228 11.3771C63.5436 11.3771 61.9615 12.4849 61.9615 14.3638C61.9615 16.2625 63.5436 17.3703 65.4228 17.3703C67.3215 17.3703 68.9434 16.2429 68.9434 14.4032V14.3243C68.9434 12.5045 67.3215 11.3771 65.4228 11.3771ZM65.1854 23.5017C62.3967 23.5017 60.1814 22.5129 59.3308 20.7723L61.5262 19.4271C62.0603 20.6141 63.4448 21.3262 65.146 21.3262C67.104 21.3262 68.8049 20.3765 68.8049 18.557V18.1612C68.0733 18.913 66.8074 19.6052 64.9282 19.6052C61.3681 19.6052 59.2715 17.2317 59.2715 14.3638C59.2715 11.5554 61.3681 9.16211 64.9282 9.16211C66.827 9.16211 68.0733 9.83439 68.8049 10.5663V9.35971H71.5741V18.2998C71.5741 21.5436 68.8248 23.5017 65.1854 23.5017Z" fill="#053E68"/>
  <path fill-rule="evenodd" clip-rule="evenodd" d="M75.8675 13.4541H82.2562C82.098 12.4849 80.9309 11.3774 79.1313 11.3774C77.6081 11.3774 76.3027 12.0894 75.8675 13.4541ZM82.454 15.8278L84.8076 16.8363C84.1152 18.557 81.999 19.981 79.2497 19.981C75.6699 19.981 73.0986 17.7856 73.0986 14.5619C73.0986 11.4961 75.6302 9.16211 79.2301 9.16211C82.8296 9.16211 84.9856 11.4961 84.9856 14.4628V15.3333H75.7687C76.1049 16.8363 77.4696 17.7263 79.2497 17.7263C80.7927 17.7263 81.9794 16.9748 82.454 15.8278Z" fill="#053E68"/>
  <path fill-rule="evenodd" clip-rule="evenodd" d="M94.3394 12.1681C93.8647 12.0491 93.647 12.0096 93.0934 12.0096C90.7989 12.0096 89.276 12.9394 89.276 15.3327V19.7633H86.5068V9.35942H89.276V11.1988C90.166 9.8341 91.4913 9.2998 93.1922 9.2998C93.6668 9.2998 94.0427 9.35942 94.3394 9.43835V12.1681Z" fill="#053E68"/>
  <path fill-rule="evenodd" clip-rule="evenodd" d="M105.141 9.36035L107.633 16.4017L110.165 9.36035H113.013L108.919 19.7639H106.427L103.875 12.8413L101.323 19.7639H98.8316L94.7173 9.36035H97.6645L100.256 16.4017L102.728 9.36035H105.141Z" fill="#053E68"/>
  <path fill-rule="evenodd" clip-rule="evenodd" d="M122.344 14.5616C122.344 12.6033 120.821 11.4759 118.962 11.4759C117.063 11.4759 115.56 12.6033 115.56 14.5616C115.56 16.5396 117.063 17.667 118.962 17.667C120.821 17.667 122.344 16.5396 122.344 14.5616ZM125.014 14.5616C125.014 17.8251 122.344 19.981 118.962 19.981C115.56 19.981 112.87 17.8251 112.87 14.5616C112.87 11.3178 115.56 9.16211 118.962 9.16211C122.344 9.16211 125.014 11.3178 125.014 14.5616Z" fill="#053E68"/>
  <path fill-rule="evenodd" clip-rule="evenodd" d="M134.394 12.1681C133.919 12.0491 133.701 12.0096 133.147 12.0096C130.853 12.0096 129.33 12.9394 129.33 15.3327V19.7633H126.561V9.35942H129.33V11.1988C130.22 9.8341 131.545 9.2998 133.246 9.2998C133.721 9.2998 134.097 9.35942 134.394 9.43835V12.1681Z" fill="#053E68"/>
  <path fill-rule="evenodd" clip-rule="evenodd" d="M138.444 14.1659L144.061 9.35976H147.879L142.499 13.8295L148.037 19.7633H144.556L140.521 15.4912L138.444 17.2119V19.7633H135.675V5.56201H138.444V14.1659Z" fill="#053E68"/>
  <path fill-rule="evenodd" clip-rule="evenodd" d="M149.189 15.9855C150.356 17.2514 151.919 17.8249 153.719 17.8249C155.242 17.8249 156.25 17.4885 156.25 16.7171C156.25 15.9261 155.301 15.9261 152.908 15.6295C150.297 15.293 148.22 14.8382 148.22 12.623C148.22 10.5658 150.198 9.16162 153.362 9.16162C155.835 9.16162 157.773 10.0119 158.742 11.1197L157.16 12.801C156.29 11.8516 154.905 11.2977 153.224 11.2977C151.681 11.2977 150.93 11.7133 150.93 12.3263C150.93 12.9787 151.661 13.0582 153.916 13.335C156.646 13.6515 159 14.047 159 16.44C159 18.8137 156.567 19.9808 153.6 19.9808C151.088 19.9808 148.794 19.1896 147.607 17.805L149.189 15.9855Z" fill="#053E68"/>
</svg>