<?xml version="1.0" encoding="UTF-8" standalone="no"?>
<svg
   enable-background="new 512 135 512 135"
   width="512"
   height="135"
   viewBox="512 135 512 135"
   version="1.1"
   id="svg44"
   xmlns="http://www.w3.org/2000/svg"
   xmlns:svg="http://www.w3.org/2000/svg">
  <defs
     id="defs48" />
  <path
     d="m 522.04449,137.23642 h 113.7 c 4.6,0 8.4,4.1 8.4,9.1 v 112.3 c 0,5 -3.7,9.1 -8.4,9.1 h -113.7 c -4.6,0 -8.4,-4.1 -8.4,-9.1 v -112.3 c 0,-5 3.8,-9.1 8.4,-9.1 z"
     fill="#e60f05"
     id="path26" />
  <g
     fill="#ffffff"
     id="g36"
     transform="translate(512.14449,134.73642)">
    <path
       d="m 93.6,85.9 c -1.1,-1.1 -2.4,-1.8 -3.9,-2.1 -1.5,-0.3 -3,-0.1 -4.4,0.4 -1.4,0.6 -2.6,1.5 -3.4,2.8 -0.8,1.2 -1.3,2.7 -1.3,4.2 0,1 0.2,2 0.6,2.9 0.4,0.9 0.9,1.8 1.6,2.5 0.7,0.7 1.5,1.3 2.5,1.6 0.9,0.4 1.9,0.6 2.9,0.6 1.5,0 3,-0.4 4.2,-1.3 1.2,-0.8 2.2,-2 2.8,-3.4 0.6,-1.4 0.7,-2.9 0.4,-4.4 -0.2,-1.4 -0.9,-2.7 -2,-3.8 z M 88.3,95 c -2,0 -3.7,-1.7 -3.7,-3.7 0,-2 1.7,-3.7 3.7,-3.7 2,0 3.8,1.7 3.8,3.7 0,2 -1.8,3.7 -3.8,3.7 z"
       id="path28" />
    <path
       d="m 107,81.5 h -2.2 c -2,0 -3,-0.9 -3.9,-1.9 C 99.3,77.8 97.4,76.4 95.2,75.4 93,74.4 90.7,74 88.3,74 H 27.1 c -0.2,0 -0.4,0.1 -0.6,0.2 -0.2,0.1 -0.3,0.2 -0.5,0.3 -0.1,0.1 -0.2,0.3 -0.3,0.5 -0.1,0.2 -0.2,0.4 -0.2,0.6 v 2.8 7.3 c 0,1.1 -0.9,0.7 -0.9,2.5 v 1 c 0,1.2 0.7,1.9 1.8,1.9 h 2 c 0.3,0 1,-0.2 1,-1 0,-6.2 5.1,-11.3 11.1,-11.3 6,0 11.3,4.8 11.3,11.3 0,0.6 0.4,0.9 0.9,0.9 H 76 c 0.6,0 1,-0.4 1,-1 0,-5.9 4.7,-11.3 11.3,-11.3 6.2,0 11.2,5.1 11.2,11.3 0,0.4 0.2,1 1,1 h 6.6 c 1,0 1.9,-1 1.9,-1.9 v -5.6 c -0.2,-1.3 -0.8,-2 -2,-2 z"
       id="path30" />
    <path
       d="m 45.9,85.9 c -1.1,-1.1 -2.4,-1.8 -3.9,-2.1 -1.5,-0.3 -3,-0.1 -4.4,0.4 -1.4,0.6 -2.6,1.5 -3.4,2.8 -0.8,1.2 -1.3,2.7 -1.3,4.2 0,1 0.2,2 0.6,2.9 0.4,0.9 0.9,1.8 1.6,2.5 0.7,0.7 1.5,1.3 2.5,1.6 0.9,0.4 1.9,0.6 2.9,0.6 1.5,0 3,-0.4 4.2,-1.3 1.2,-0.8 2.2,-2 2.8,-3.4 0.6,-1.4 0.7,-2.9 0.4,-4.4 C 47.7,88.3 47,87 45.9,85.9 Z M 40.6,95 c -2,0 -3.7,-1.7 -3.7,-3.7 0,-2 1.7,-3.7 3.7,-3.7 2,0 3.8,1.7 3.8,3.7 0,2 -1.8,3.7 -3.8,3.7 z"
       id="path32" />
    <path
       d="m 25.9,68.3 c 0.1,0.2 0.3,0.3 0.5,0.4 0.2,0.1 0.4,0.1 0.6,0.1 h 61.2 c 5.3,-0.1 10.5,2 14.3,5.6 0.6,0.6 1.4,1.9 2.6,1.9 h 1.2 c 0.6,0 0.8,-0.3 0.8,-1 v -8.7 c 0,-12.2 -7.4,-22 -20,-26.8 -13.1,-5.2 -44.3,-3.2 -56.9,0.1 -2,0.5 -4.7,1.5 -4.7,5.3 v 20 l 0.1,1.9 c -0.1,0.5 0.1,0.9 0.3,1.2 z m 50.8,-21 c 0,-0.6 0.2,-1 1,-1 h 3.9 c 9.4,0 15.8,6.4 19.3,15.9 0.2,0.5 0.1,1.3 -0.9,1.3 H 77.7 c -0.6,0 -1,-0.6 -1,-1 z m -22.8,0 c 0,-0.1 0,-0.3 0.1,-0.4 0,-0.1 0.1,-0.2 0.2,-0.3 0.1,-0.1 0.2,-0.2 0.3,-0.2 0.1,0 0.2,-0.1 0.4,-0.1 h 16.5 c 0.6,0 1,0.4 1,1 v 15.1 c 0,0.5 -0.4,1 -1,1 H 54.8 c -0.5,0 -1,-0.2 -1,-1 V 47.3 Z m -23.1,0 c 0,-0.2 0,-1 0.9,-1 h 16.9 c 0.6,0 1,0.4 1,0.9 v 15.3 c 0,0.3 -0.2,0.9 -1,0.9 H 31.7 c -0.7,0 -0.9,-0.6 -0.9,-1 z"
       id="path34" />
  </g>
  <path
     d="m 678.34449,172.63642 c -0.1,0 -0.2,0 -0.3,0.1 -0.1,0 -0.2,0.1 -0.2,0.2 -0.1,0.1 -0.1,0.2 -0.2,0.2 0,0.1 -0.1,0.2 -0.1,0.3 v 44.6 c 0,5.4 1.5,9.3 4.6,11.7 3.3,2.7 8.6,3.3 14.7,1.9 0.2,0 0.3,-0.1 0.4,-0.3 0.1,-0.1 0.2,-0.3 0.2,-0.5 l -0.1,-7.6 c 0,-0.1 0,-0.2 -0.1,-0.3 0,-0.1 -0.1,-0.2 -0.2,-0.3 -0.1,-0.1 -0.2,-0.1 -0.3,-0.1 -0.1,0 -0.2,0 -0.3,0 -2.4,0.5 -4.2,0.2 -5.5,-0.8 -1.4,-1.1 -2,-3.1 -2,-6 v -42.3 c 0,-0.2 -0.1,-0.4 -0.2,-0.5 -0.1,-0.1 -0.3,-0.2 -0.5,-0.2 h -9.9 z"
     fill="#ffffff"
     id="path38" />
  <path
     d="m 721.44449,185.43642 c -6.6,0 -12,2.3 -16.1,6.8 -4.1,4.5 -6.2,10.1 -6.2,16.7 0,6.8 2.1,12.4 6.2,16.9 4.1,4.4 9.6,6.7 16.3,6.7 5.1,0 9.6,-1.4 13.4,-4.2 3.7,-2.7 6.5,-6.6 7.8,-11.1 0,-0.1 0,-0.2 0,-0.3 0,-0.1 -0.1,-0.2 -0.1,-0.3 -0.1,-0.1 -0.1,-0.2 -0.2,-0.2 -0.1,0 -0.2,-0.1 -0.3,-0.1 h -10.1 c -0.1,0 -0.3,0 -0.4,0.1 -0.1,0.1 -0.2,0.2 -0.2,0.3 -0.7,1.8 -2,3.3 -3.7,4.2 -1.8,1.1 -3.8,1.6 -5.9,1.6 -3.3,0 -5.9,-0.9 -7.9,-2.9 -1.9,-1.9 -3.1,-4.3 -3.4,-6.9 v -0.2 h 32.5 c 0.2,0 0.3,-0.1 0.5,-0.2 0.1,-0.1 0.2,-0.3 0.2,-0.5 l 0.1,-3.1 c 0,-6.6 -2.1,-12.2 -6.1,-16.6 -4.5,-4.5 -9.8,-6.7 -16.4,-6.7 z m 10.7,18.3 h -21.6 l 0.1,-0.2 c 0.5,-2.3 1.7,-4.4 3.5,-6 2,-1.8 4.4,-2.6 7.4,-2.6 3,0 5.5,0.9 7.4,2.6 1.7,1.6 2.9,3.7 3.3,6 z"
     fill="#ffffff"
     id="path40" />
  <path
     d="m 954.84449,221.53642 c -6.9,0 -12.4,-5.6 -12.4,-12.4 0,-6.8 5.6,-12.4 12.4,-12.4 6.8,0 12.4,5.6 12.4,12.4 0,6.8 -5.6,12.4 -12.4,12.4 z m 0,-35.8 c -9.5,0 -17.8,5.6 -21.6,14.4 -1.8,4.2 -2.2,8.9 -1.3,13.5 0.9,4.5 3.1,8.6 6.4,11.9 3.3,3.3 7.4,5.4 11.9,6.4 4.5,0.9 9.2,0.4 13.5,-1.3 4.3,-1.8 7.9,-4.8 10.5,-8.6 2.5,-3.9 3.9,-8.3 3.9,-12.9 -0.1,-12.8 -10.2,-23.4 -23.3,-23.4 z m 63.90001,4.9 c -2.9,-3.3 -7.1,-4.9 -12.4,-4.9 -3.3,0 -6.3,0.7 -8.70004,2 -1.3,0.8 -2.5,1.8 -3.59997,2.9 l -0.3,0.3 v -3.6 c 0,-0.1 -0.1,-0.3 -0.2,-0.4 -0.1,-0.1 -0.3,-0.2 -0.5,-0.2 h -9.2 c -0.1,0 -0.3,0.1 -0.4,0.2 -0.1,0.1 -0.2,0.3 -0.2,0.4 v 43.3 c 0,0.1 0,0.2 0.1,0.3 0,0.1 0.1,0.2 0.2,0.2 0.1,0.1 0.3,0.2 0.4,0.2 h 10 c 0.1,0 0.4,-0.1 0.4,-0.2 0.2,-0.1 0.2,-0.3 0.2,-0.5 v -25.1 c 0,-3 0.89997,-5.6 2.49997,-7.3 1.7,-1.8 4.00004,-2.7 7.00004,-2.7 2.7,0 4.7,0.8 6,2.4 1.3,1.6 2,3.9 2,6.8 v 25.9 c 0,0.2 0,0.4 0.1,0.5 0.2,0.1 0.4,0.2 0.6,0.2 h 9.8 c 0.2,0 0.4,-0.1 0.5,-0.2 l 0.2,-0.2 c 0,-0.1 0.1,-0.2 0.1,-0.3 v -27.2 c -0.2,-5.3 -1.7,-9.6 -4.6,-12.8 z m -103.20001,17.6 c 0,7.1 -4.6,12.4 -11.4,12.4 -6.6,0 -11.4,-5.1 -11.4,-12.4 0,-6.9 4.1,-12.4 11.4,-12.4 7,0.1 11.4,5.3 11.4,12.4 z m 10.1,-21.5 h -9.2 c -0.1,0 -0.2,0 -0.3,0.1 -0.1,0 -0.2,0.1 -0.2,0.2 -0.1,0.1 -0.2,0.3 -0.2,0.4 v 4.1 l -0.3,-0.3 c -3.1,-3.6 -7.6,-5.4 -13.4,-5.4 -12.6,0 -20.6,9.8 -20.6,22.5 0,6.3 1.9,11.7 5.6,15.9 3.7,4.3 8.8,6.5 15,6.5 5.4,0 9.7,-1.7 12.7,-5 l 0.3,-0.4 v 4.7 c 0,5.9 -4.8,10.5 -10.3,10.5 -5.6,0 -8.3,-3.3 -9.6,-5.7 -0.3,-0.5 -0.4,-0.6 -0.7,-0.5 -1,0.5 -8.6,4.5 -9,4.7 -0.2,0.1 -0.2,0.4 -0.1,0.6 3.1,6.9 10,11.3 19.5,11.3 11.9,0 21.5,-8.4 21.5,-22.3 v -41.3 c 0,-0.1 0,-0.3 -0.2,-0.4 -0.2,-0.1 -0.3,-0.2 -0.5,-0.2 z m -60.3,22.3 c 0,7.6 -4.2,13.2 -11.5,13.2 -7.3,0 -11.5,-5.9 -11.5,-13.2 0,-7.1 4.1,-13.1 11.5,-13.1 7.1,0 11.5,5.3 11.5,13.1 z m 10.2,-22.2 h -9.2 c -0.1,0 -0.3,0.1 -0.5,0.2 -0.1,0.1 -0.1,0.3 -0.1,0.4 v 4.1 l -0.4,-0.3 c -3,-3.6 -7.6,-5.4 -13.6,-5.4 -12.9,0 -20.5,10 -20.5,23.2 0,13.2 7.6,23.3 20.5,23.3 5.9,0 10.6,-1.8 13.6,-5.4 l 0.4,-0.4 v 4.1 c 0,0.2 0.1,0.3 0.1,0.5 0.2,0.1 0.4,0.2 0.5,0.2 h 9.2 c 0.2,0 0.4,-0.1 0.4,-0.2 0.2,-0.1 0.2,-0.3 0.2,-0.5 v -43.2 c 0,-0.1 0,-0.3 -0.2,-0.4 -0.1,0 -0.2,-0.2 -0.4,-0.2 z m -43.9,0.5 c 0,-0.1 -0.1,-0.1 -0.1,-0.3 -0.1,-0.1 -0.2,-0.2 -0.3,-0.2 -0.1,-0.1 -0.2,-0.1 -0.3,-0.1 h -10.1 c -0.1,0 -0.2,0 -0.3,0.1 -0.2,0.1 -0.2,0.2 -0.3,0.4 l -8.9,28.5 -9,-28.4 c -0.1,-0.2 -0.1,-0.3 -0.3,-0.4 -0.1,0 -0.2,-0.1 -0.4,-0.1 h -9.5 c -0.2,0 -0.3,0.1 -0.4,0.1 -0.1,0.1 -0.2,0.2 -0.2,0.4 l -9.3,28.8 -9.1,-28.9 c 0,-0.2 -0.1,-0.3 -0.2,-0.4 -0.1,0 -0.3,-0.1 -0.4,-0.1 h -10.3 c -0.1,0 -0.2,0 -0.4,0.1 -0.1,0 -0.1,0.1 -0.1,0.2 -0.1,0.1 -0.1,0.2 -0.1,0.3 v 0.4 l 15.1,43.2 c 0,0.1 0.1,0.2 0.2,0.3 0.2,0.1 0.3,0.1 0.4,0.1 h 9.2 0.2 c 0.1,0 0.1,-0.1 0.2,-0.1 0.1,0 0.1,-0.1 0.1,-0.1 0,0 0.1,-0.1 0.1,-0.2 l 9.4,-28.2 9.3,28.1 c 0,0.1 0.1,0.3 0.2,0.4 0.1,0 0.3,0.1 0.4,0.1 h 9.3 c 0.2,0 0.4,-0.1 0.4,-0.1 0.1,-0.1 0.2,-0.2 0.3,-0.4 l 15.2,-43.1 z"
     fill="#ffffff"
     id="path42" />
</svg>
