<?xml version="1.0" encoding="UTF-8" standalone="no"?>
<svg
   width="303"
   height="65"
   viewBox="0 0 303 65"
   version="1.1"
   id="svg28"
   xmlns="http://www.w3.org/2000/svg"
   xmlns:svg="http://www.w3.org/2000/svg"
   xmlns:sketch="http://www.bohemiancoding.com/sketch/ns">
  <defs
     id="defs19" />
  <g
     id="Page-1"
     stroke="none"
     stroke-width="1"
     fill="none"
     fill-rule="evenodd"
     sketch:type="MSPage">
    <g
       id="Group"
       sketch:type="MSLayerGroup">
      <rect
         id="Rectangle-1"
         sketch:type="MSShapeGroup"
         x="0"
         y="0"
         width="77"
         height="77" />
      <g
         id="Fill-1-+-Fill-2-+-Fill-3"
         transform="translate(7,4)"
         sketch:type="MSShapeGroup">
        <path
           d="m 25.031798,18.132691 c 1.838001,5.848 5.85,11.32 10.162,9.965 4.315,-1.356 4.473,-8.139 2.637,-13.986 -1.838,-5.8470001 -5.955,-10.3420001 -11.062,-12.8290001 -2.768,4.961 -3.572,11.0030001 -1.737,16.8500001"
           id="Fill-1"
           fill="#ffffff"
           transform="rotate(18,31.49288,14.794439)" />
        <path
           d="m 18.865158,49.184263 c 4.145,-4.515 6.877,-10.725 3.547,-13.782 -3.33,-3.058 -9.283,0.195 -13.4300004,4.71 -4.144,4.514 -5.978,10.327001 -5.578,15.993 5.68,-0.084 11.3150004,-2.406 15.4610004,-6.921"
           id="Fill-2"
           fill="#ffcc00"
           transform="rotate(18,13.625216,45.155667)" />
        <path
           d="m 48.824055,38.978959 c -5.982,-1.333 -12.726,-0.595 -13.709,3.819 -0.982,4.412 4.811,7.942 10.793,9.274 5.983,1.333 11.934,0.014 16.641,-3.165 -2.912,-4.877 -7.741,-8.596 -13.725,-9.928"
           id="Fill-3"
           fill="#f8097c"
           transform="rotate(18,48.777354,45.484357)" />
      </g>
    </g>
  </g>
  <path
     d="m 106.13865,22.60189 q 0,3.22 -1.02,5.92 -1.02,2.68 -2.88,4.62 -1.86,1.94 -4.48,3.02 -2.6,1.06 -5.76,1.06 -3.16,0 -5.76,-1.06 -2.6,-1.08 -4.46,-3.02 -1.86,-1.94 -2.88,-4.62 -1.02,-2.7 -1.02,-5.92 0,-3.22 1.02,-5.9 1.02,-2.7 2.88,-4.64 1.86,-1.96 4.46,-3.0399997 2.6,-1.08 5.76,-1.08 3.16,0 5.76,1.08 2.62,1.0799997 4.48,3.0399997 1.86,1.94 2.88,4.64 1.02,2.68 1.02,5.9 z m -3.98,0 q 0,-2.64 -0.72,-4.74 -0.72,-2.1 -2.04,-3.54 -1.32,-1.46 -3.2,-2.24 -1.88,-0.78 -4.2,-0.78 -2.3,0 -4.18,0.78 -1.88,0.78 -3.22,2.24 -1.32,1.44 -2.04,3.54 -0.72,2.1 -0.72,4.74 0,2.64 0.72,4.74 0.72,2.08 2.04,3.54 1.34,1.44 3.22,2.22 1.88,0.76 4.18,0.76 2.32,0 4.2,-0.76 1.88,-0.78 3.2,-2.22 1.32,-1.46 2.04,-3.54 0.72,-2.1 0.72,-4.74 z"
     style="font-size:40px;line-height:1.25;fill:white;font-family:Lato;-inkscape-font-specification:Lato;letter-spacing:0px;word-spacing:0px"
     id="path21412" />
  <path
     d="m 125.77861,26.56189 q 0.24,0.48 0.46,1.02 0.22,0.52 0.44,1.04 0.2,-0.54 0.42,-1.06 0.22,-0.54 0.48,-1.02 l 9.72,-17.6199997 q 0.24,-0.46 0.52,-0.56 0.3,-0.1 0.82,-0.1 h 2.86 V 36.92189 h -3.4 v -21.06 q 0,-0.42 0.02,-0.9 0.02,-0.48 0.06,-0.98 l -9.82,17.92 q -0.46,0.9 -1.4,0.9 h -0.56 q -0.94,0 -1.4,-0.9 l -10.04,-17.98 q 0.06,0.52 0.08,1.02 0.04,0.5 0.04,0.92 v 21.06 h -3.4 V 8.2618903 h 2.86 q 0.52,0 0.8,0.1 0.28,0.1 0.54,0.56 z"
     style="font-size:40px;line-height:1.25;fill:white;font-family:Lato;-inkscape-font-specification:Lato;letter-spacing:0px;word-spacing:0px"
     id="path21414" />
  <path
     d="M 148.81858,36.92189 V 8.2618903 h 9.14 q 2.64,0 4.54,0.52 1.92,0.52 3.14,1.4799997 1.24,0.96 1.82,2.36 0.58,1.38 0.58,3.12 0,1.06 -0.34,2.04 -0.32,0.98 -0.98,1.82 -0.66,0.84 -1.68,1.5 -1,0.66 -2.36,1.08 3.14,0.62 4.74,2.26 1.6,1.64 1.6,4.32 0,1.82 -0.68,3.32 -0.66,1.5 -1.96,2.58 -1.28,1.08 -3.16,1.68 -1.88,0.58 -4.28,0.58 z m 3.86,-13.06 v 9.98 h 6.2 q 1.66,0 2.86,-0.38 1.2,-0.38 1.96,-1.06 0.78,-0.7 1.14,-1.64 0.36,-0.96 0.36,-2.1 0,-2.22 -1.58,-3.5 -1.58,-1.3 -4.74,-1.3 z m 0,-2.76 h 5.12 q 1.64,0 2.84,-0.36 1.22,-0.36 2,-1 0.8,-0.64 1.18,-1.54 0.38,-0.92 0.38,-2 0,-2.54 -1.52,-3.7 -1.52,-1.18 -4.72,-1.18 h -5.28 z"
     style="font-size:40px;line-height:1.25;fill:white;font-family:Lato;-inkscape-font-specification:Lato;letter-spacing:0px;word-spacing:0px"
     id="path21416" />
  <path
     d="m 185.73856,33.84189 q 1.78,0 3.18,-0.6 1.4,-0.6 2.36,-1.68 0.98,-1.08 1.48,-2.58 0.52,-1.5 0.52,-3.3 V 8.2618903 h 3.86 V 25.68189 q 0,2.48 -0.8,4.6 -0.78,2.12 -2.26,3.68 -1.46,1.54 -3.58,2.42 -2.12,0.88 -4.76,0.88 -2.64,0 -4.76,-0.88 -2.12,-0.88 -3.6,-2.42 -1.48,-1.56 -2.28,-3.68 -0.78,-2.12 -0.78,-4.6 V 8.2618903 h 3.86 V 25.66189 q 0,1.8 0.5,3.3 0.52,1.5 1.48,2.58 0.98,1.08 2.38,1.7 1.42,0.6 3.2,0.6 z"
     style="font-size:40px;line-height:1.25;fill:white;font-family:Lato;-inkscape-font-specification:Lato;letter-spacing:0px;word-spacing:0px"
     id="path21418" />
  <path
     d="m 207.9585,33.66189 h 12.4 v 3.26 h -16.26 V 8.2618903 h 3.86 z"
     style="font-size:40px;line-height:1.25;fill:white;font-family:Lato;-inkscape-font-specification:Lato;letter-spacing:0px;word-spacing:0px"
     id="path21420" />
  <path
     d="m 247.93843,36.92189 h -3 q -0.52,0 -0.84,-0.26 -0.32,-0.26 -0.48,-0.66 l -2.68,-6.92 h -12.86 l -2.68,6.92 q -0.12,0.36 -0.46,0.64 -0.34,0.28 -0.84,0.28 h -3 l 11.46,-28.6599997 h 3.92 z m -18.78,-10.64 h 10.7 l -4.5,-11.66 q -0.22,-0.52 -0.44,-1.2 -0.2,-0.68 -0.42,-1.46 -0.2,0.78 -0.42,1.48 -0.2,0.68 -0.42,1.2 z"
     style="font-size:40px;line-height:1.25;fill:white;font-family:Lato;-inkscape-font-specification:Lato;letter-spacing:0px;word-spacing:0px"
     id="path21422" />
  <path
     d="M 251.71836,36.92189 V 8.2618903 h 9.14 q 2.64,0 4.54,0.52 1.92,0.52 3.14,1.4799997 1.24,0.96 1.82,2.36 0.58,1.38 0.58,3.12 0,1.06 -0.34,2.04 -0.32,0.98 -0.98,1.82 -0.66,0.84 -1.68,1.5 -1,0.66 -2.36,1.08 3.14,0.62 4.74,2.26 1.6,1.64 1.6,4.32 0,1.82 -0.68,3.32 -0.66,1.5 -1.96,2.58 -1.28,1.08 -3.16,1.68 -1.88,0.58 -4.28,0.58 z m 3.86,-13.06 v 9.98 h 6.2 q 1.66,0 2.86,-0.38 1.2,-0.38 1.96,-1.06 0.78,-0.7 1.14,-1.64 0.36,-0.96 0.36,-2.1 0,-2.22 -1.58,-3.5 -1.58,-1.3 -4.74,-1.3 z m 0,-2.76 h 5.12 q 1.64,0 2.84,-0.36 1.22,-0.36 2,-1 0.8,-0.64 1.18,-1.54 0.38,-0.92 0.38,-2 0,-2.54 -1.52,-3.7 -1.52,-1.18 -4.72,-1.18 h -5.28 z"
     style="font-size:40px;line-height:1.25;fill:white;font-family:Lato;-inkscape-font-specification:Lato;letter-spacing:0px;word-spacing:0px"
     id="path21424" />
  <path
     d="m 292.23834,12.74189 q -0.18,0.3 -0.4,0.46 -0.2,0.14 -0.5,0.14 -0.34,0 -0.8,-0.34 -0.46,-0.34 -1.16,-0.74 -0.68,-0.42 -1.66,-0.76 -0.96,-0.34 -2.34,-0.34 -1.3,0 -2.3,0.36 -0.98,0.34 -1.66,0.94 -0.66,0.6 -1,1.42 -0.34,0.8 -0.34,1.74 0,1.2 0.58,2 0.6,0.78 1.56,1.34 0.98,0.56 2.2,0.98 1.24,0.4 2.52,0.84 1.3,0.44 2.52,1 1.24,0.54 2.2,1.38 0.98,0.84 1.56,2.06 0.6,1.22 0.6,3 0,1.88 -0.64,3.54 -0.64,1.64 -1.88,2.86 -1.22,1.22 -3.02,1.92 -1.78,0.7 -4.06,0.7 -2.8,0 -5.08,-1 -2.28,-1.02 -3.9,-2.74 l 1.12,-1.84 q 0.16,-0.22 0.38,-0.36 0.24,-0.16 0.52,-0.16 0.26,0 0.58,0.22 0.34,0.2 0.76,0.52 0.42,0.32 0.96,0.7 0.54,0.38 1.22,0.7 0.7,0.32 1.58,0.54 0.88,0.2 1.98,0.2 1.38,0 2.46,-0.38 1.08,-0.38 1.82,-1.06 0.76,-0.7 1.16,-1.66 0.4,-0.96 0.4,-2.14 0,-1.3 -0.6,-2.12 -0.58,-0.84 -1.54,-1.4 -0.96,-0.56 -2.2,-0.94 -1.24,-0.4 -2.52,-0.8 -1.28,-0.42 -2.52,-0.96 -1.24,-0.54 -2.2,-1.4 -0.96,-0.86 -1.56,-2.14 -0.58,-1.3 -0.58,-3.2 0,-1.52 0.58,-2.94 0.6,-1.42 1.72,-2.52 1.14,-1.0999997 2.78,-1.7599997 1.66,-0.66 3.8,-0.66 2.4,0 4.36,0.76 1.98,0.76 3.48,2.1999997 z"
     style="font-size:40px;line-height:1.25;fill:white;font-family:Lato;-inkscape-font-specification:Lato;letter-spacing:0px;word-spacing:0px"
     id="path21426" />
  <g
     aria-label="SOFTWARE BOUTIQUE"
     id="text3118"
     style="font-size:18.6667px;line-height:1.25;letter-spacing:0px;word-spacing:0px">
    <path
       d="m 86.215802,52.567877 q 0,1.184898 -0.592449,2.023442 -0.583335,0.829428 -1.640628,1.266929 -1.057294,0.437501 -2.488286,0.437501 -0.756512,0 -1.430992,-0.07292 -0.674481,-0.07292 -1.239586,-0.209636 -0.565105,-0.136719 -0.993491,-0.33724 v -1.48568 q 0.683595,0.282553 1.667972,0.528647 0.984376,0.23698 2.059899,0.23698 1.002606,0 1.695316,-0.264324 0.692709,-0.273438 1.048179,-0.774741 0.364584,-0.510417 0.364584,-1.221356 0,-0.683595 -0.300782,-1.139325 -0.300782,-0.464845 -1.002606,-0.838543 -0.69271,-0.382814 -1.895837,-0.8112 -0.847658,-0.300782 -1.494794,-0.656251 -0.647137,-0.364584 -1.084638,-0.820314 -0.4375,-0.45573 -0.665365,-1.057293 -0.218751,-0.601564 -0.218751,-1.376305 0,-1.066408 0.537762,-1.82292 0.546876,-0.765626 1.503909,-1.166669 0.966147,-0.410157 2.214847,-0.410157 1.066408,0 1.968754,0.200521 0.91146,0.200522 1.667972,0.537762 l -0.483074,1.330731 q -0.720054,-0.300781 -1.531253,-0.501303 -0.802085,-0.200521 -1.658857,-0.200521 -0.856773,0 -1.449221,0.255209 -0.583335,0.246094 -0.893231,0.701824 -0.309897,0.45573 -0.309897,1.084638 0,0.701824 0.291668,1.166668 0.300781,0.464845 0.947918,0.829429 0.656251,0.355469 1.731774,0.747397 1.175783,0.428386 1.996097,0.91146 0.820314,0.473959 1.2487,1.166669 0.428387,0.683595 0.428387,1.740888 z"
       style="fill: white;font-family:'Open Sans';-inkscape-font-specification:'Open Sans'"
       id="path21455" />
    <path
       d="m 100.48927,49.432455 q 0,1.540367 -0.39193,2.807297 -0.39193,1.257815 -1.166671,2.169275 -0.765627,0.902345 -1.904952,1.394533 -1.139325,0.492189 -2.643234,0.492189 -1.549482,0 -2.707036,-0.492189 -1.148439,-0.492188 -1.914066,-1.403648 -0.756512,-0.91146 -1.139325,-2.178389 -0.373698,-1.26693 -0.373698,-2.807297 0,-2.04167 0.67448,-3.582038 0.67448,-1.540367 2.04167,-2.39714 1.376305,-0.856772 3.445319,-0.856772 1.977868,0 3.326829,0.847658 1.358075,0.847658 2.050785,2.388025 0.701829,1.531253 0.701829,3.618496 z m -10.609399,0 q 0,1.695316 0.483074,2.934901 0.483074,1.239586 1.476565,1.914066 1.002606,0.674481 2.542973,0.674481 1.549482,0 2.533859,-0.674481 0.993491,-0.67448 1.467451,-1.914066 0.473959,-1.239585 0.473959,-2.934901 0,-2.579432 -1.084638,-4.028653 -1.075522,-1.458336 -3.363287,-1.458336 -1.549482,0 -2.552088,0.665366 -1.002606,0.665366 -1.494794,1.895837 -0.483074,1.221356 -0.483074,2.925786 z"
       style="fill: white;font-family:'Open Sans';-inkscape-font-specification:'Open Sans'"
       id="path21457" />
    <path
       d="m 105.00099,56.113457 h -1.54948 V 42.787912 h 7.41928 v 1.36719 h -5.8698 v 4.885425 h 5.51433 v 1.358076 h -5.51433 z"
       style="fill: white;font-family:'Open Sans';-inkscape-font-specification:'Open Sans'"
       id="path21459" />
    <path
       d="m 117.1781,56.113457 h -1.5586 V 44.155102 h -4.19272 v -1.36719 h 9.9258 v 1.36719 h -4.17448 z"
       style="fill: white;font-family:'Open Sans';-inkscape-font-specification:'Open Sans'"
       id="path21461" />
    <path
       d="m 138.50626,42.787912 -3.56381,13.325545 h -1.55859 l -2.64324,-8.968766 q -0.11849,-0.382814 -0.22786,-0.765627 -0.10026,-0.391928 -0.19141,-0.738282 -0.0911,-0.35547 -0.15495,-0.619793 -0.0547,-0.273438 -0.082,-0.410157 -0.0182,0.136719 -0.0729,0.401042 -0.0456,0.264324 -0.1276,0.610678 -0.0729,0.346355 -0.18229,0.738283 -0.10026,0.391928 -0.21875,0.79297 l -2.57032,8.959652 h -1.5586 l -3.53646,-13.325545 h 1.61328 l 2.14193,8.358088 q 0.10938,0.419271 0.20053,0.829428 0.10026,0.401043 0.17317,0.783856 0.082,0.382813 0.14584,0.747397 0.0638,0.364584 0.11849,0.710939 0.0456,-0.355469 0.11849,-0.738283 0.0729,-0.391927 0.15494,-0.79297 0.0911,-0.401042 0.19141,-0.811199 0.10938,-0.410157 0.22787,-0.820314 l 2.39714,-8.266942 h 1.59505 l 2.4974,8.330744 q 0.12761,0.428386 0.23698,0.847658 0.10938,0.419271 0.19141,0.820314 0.0911,0.391928 0.15495,0.756512 0.0729,0.355469 0.1276,0.67448 0.0638,-0.446615 0.15495,-0.938804 0.0911,-0.492188 0.20963,-1.02995 0.12761,-0.537761 0.27344,-1.111981 l 2.14193,-8.348973 z"
       style="fill: white;font-family:'Open Sans';-inkscape-font-specification:'Open Sans'"
       id="path21463" />
    <path
       d="m 148.96071,56.113457 -1.64063,-4.229175 h -5.34116 l -1.63151,4.229175 h -1.56771 l 5.21355,-13.380233 h 1.39453 l 5.17709,13.380233 z m -2.10548,-5.605479 -1.55859,-4.201831 q -0.0547,-0.164062 -0.1823,-0.537761 -0.11849,-0.373699 -0.24609,-0.774741 -0.1276,-0.401042 -0.20964,-0.647137 -0.0911,0.373699 -0.20052,0.747398 -0.10026,0.364584 -0.20052,0.683595 -0.10026,0.309896 -0.17318,0.528646 l -1.58594,4.201831 z"
       style="fill: white;font-family:'Open Sans';-inkscape-font-specification:'Open Sans'"
       id="path21465" />
    <path
       d="m 156.00629,42.787912 q 1.64063,0 2.70704,0.410157 1.07552,0.401042 1.60417,1.230471 0.52865,0.829428 0.52865,2.114587 0,1.057294 -0.38282,1.768232 -0.38281,0.701824 -1.0026,1.139325 -0.6198,0.437501 -1.32162,0.674481 l 3.65495,5.988292 h -1.80469 l -3.26302,-5.559906 h -2.77084 v 5.559906 h -1.54948 V 42.787912 Z m -0.0911,1.339846 h -1.95964 v 5.11329 h 2.11459 q 1.63151,0 2.39714,-0.665365 0.77474,-0.665366 0.77474,-1.959639 0,-1.358076 -0.82032,-1.923181 -0.8112,-0.565105 -2.50651,-0.565105 z"
       style="fill: white;font-family:'Open Sans';-inkscape-font-specification:'Open Sans'"
       id="path21467" />
    <path
       d="m 171.34616,56.113457 h -7.41928 V 42.787912 h 7.41928 v 1.36719 h -5.8698 v 4.311206 h 5.53256 v 1.34896 h -5.53256 v 4.930999 h 5.8698 z"
       style="fill: white;font-family:'Open Sans';-inkscape-font-specification:'Open Sans'"
       id="path21469" />
    <path
       d="m 179.14826,42.787912 h 3.77344 q 2.4974,0 3.75522,0.747397 1.25781,0.747397 1.25781,2.542973 0,0.774741 -0.30078,1.394534 -0.29166,0.610678 -0.85677,1.011721 -0.5651,0.401042 -1.39453,0.55599 v 0.09115 q 0.875,0.136719 1.54948,0.501303 0.67448,0.364584 1.05729,1.020835 0.38282,0.656252 0.38282,1.667972 0,1.230471 -0.57422,2.078129 -0.56511,0.847658 -1.60417,1.285159 -1.03907,0.428386 -2.46095,0.428386 h -4.58464 z m 1.54948,5.714854 h 2.55209 q 1.74089,0 2.40625,-0.57422 0.67448,-0.57422 0.67448,-1.677086 0,-1.139325 -0.80208,-1.640628 -0.79297,-0.501303 -2.53386,-0.501303 h -2.29688 z m 0,1.303388 v 4.985686 h 2.77084 q 1.77735,0 2.51563,-0.69271 0.73828,-0.701824 0.73828,-1.886722 0,-0.756512 -0.33724,-1.294273 -0.32812,-0.537762 -1.07552,-0.820314 -0.73828,-0.291667 -1.97787,-0.291667 z"
       style="fill: white;font-family:'Open Sans';-inkscape-font-specification:'Open Sans'"
       id="path21471" />
    <path
       d="m 202.76419,49.432455 q 0,1.540367 -0.39193,2.807297 -0.39193,1.257815 -1.16667,2.169275 -0.76562,0.902345 -1.90495,1.394533 -1.13932,0.492189 -2.64323,0.492189 -1.54948,0 -2.70704,-0.492189 -1.14844,-0.492188 -1.91406,-1.403648 -0.75652,-0.91146 -1.13933,-2.178389 -0.3737,-1.26693 -0.3737,-2.807297 0,-2.04167 0.67448,-3.582038 0.67448,-1.540367 2.04167,-2.39714 1.37631,-0.856772 3.44532,-0.856772 1.97787,0 3.32683,0.847658 1.35808,0.847658 2.05079,2.388025 0.70182,1.531253 0.70182,3.618496 z m -10.60939,0 q 0,1.695316 0.48307,2.934901 0.48307,1.239586 1.47656,1.914066 1.00261,0.674481 2.54298,0.674481 1.54948,0 2.53386,-0.674481 0.99349,-0.67448 1.46745,-1.914066 0.47396,-1.239585 0.47396,-2.934901 0,-2.579432 -1.08464,-4.028653 -1.07552,-1.458336 -3.36329,-1.458336 -1.54948,0 -2.55209,0.665366 -1.0026,0.665366 -1.49479,1.895837 -0.48307,1.221356 -0.48307,2.925786 z"
       style="fill: white;font-family:'Open Sans';-inkscape-font-specification:'Open Sans'"
       id="path21473" />
    <path
       d="m 215.80718,42.787912 v 8.622411 q 0,1.412763 -0.57422,2.51563 -0.56511,1.102866 -1.71355,1.740888 -1.14844,0.628908 -2.88021,0.628908 -2.47006,0 -3.76433,-1.339846 -1.28516,-1.339847 -1.28516,-3.582038 v -8.585953 h 1.5586 v 8.631526 q 0,1.695315 0.89323,2.61589 0.90234,0.920575 2.68881,0.920575 1.22135,0 1.99609,-0.437501 0.78386,-0.446616 1.15756,-1.239586 0.38281,-0.802085 0.38281,-1.850264 v -8.64064 z"
       style="fill: white;font-family:'Open Sans';-inkscape-font-specification:'Open Sans'"
       id="path21475" />
    <path
       d="m 223.42699,56.113457 h -1.5586 V 44.155102 h -4.19272 v -1.36719 h 9.9258 v 1.36719 h -4.17448 z"
       style="fill: white;font-family:'Open Sans';-inkscape-font-specification:'Open Sans'"
       id="path21477" />
    <path
       d="M 229.6158,56.113457 V 42.787912 h 1.54948 v 13.325545 z"
       style="fill: white;font-family:'Open Sans';-inkscape-font-specification:'Open Sans'"
       id="path21479" />
    <path
       d="m 246.38666,49.432455 q 0,1.640628 -0.44662,2.97136 -0.44661,1.330731 -1.33073,2.251306 -0.875,0.920574 -2.1875,1.339846 l 3.13542,3.29037 h -2.21485 l -2.57943,-3.007817 q -0.11849,0 -0.2461,0.0091 -0.11849,0.0091 -0.23698,0.0091 -1.54948,0 -2.70703,-0.492189 -1.14844,-0.492188 -1.91407,-1.403648 -0.75651,-0.91146 -1.13932,-2.178389 -0.3737,-1.26693 -0.3737,-2.807297 0,-2.04167 0.67448,-3.582038 0.67448,-1.540367 2.04167,-2.39714 1.3763,-0.856772 3.44532,-0.856772 1.97787,0 3.32683,0.847658 1.35807,0.847658 2.05078,2.388025 0.70183,1.531253 0.70183,3.618496 z m -10.6094,0 q 0,1.695316 0.48308,2.934901 0.48307,1.239586 1.47656,1.914066 1.00261,0.674481 2.54297,0.674481 1.54949,0 2.53386,-0.674481 0.99349,-0.67448 1.46745,-1.914066 0.47396,-1.239585 0.47396,-2.934901 0,-2.579432 -1.08463,-4.028653 -1.07553,-1.458336 -3.36329,-1.458336 -1.54948,0 -2.55209,0.665366 -1.00261,0.665366 -1.49479,1.895837 -0.48308,1.221356 -0.48308,2.925786 z"
       style="fill: white;font-family:'Open Sans';-inkscape-font-specification:'Open Sans'"
       id="path21481" />
    <path
       d="m 259.42965,42.787912 v 8.622411 q 0,1.412763 -0.57422,2.51563 -0.5651,1.102866 -1.71354,1.740888 -1.14844,0.628908 -2.88022,0.628908 -2.47005,0 -3.76432,-1.339846 -1.28516,-1.339847 -1.28516,-3.582038 v -8.585953 h 1.55859 v 8.631526 q 0,1.695315 0.89323,2.61589 0.90235,0.920575 2.68881,0.920575 1.22136,0 1.9961,-0.437501 0.78385,-0.446616 1.15755,-1.239586 0.38282,-0.802085 0.38282,-1.850264 v -8.64064 z"
       style="fill: white;font-family:'Open Sans';-inkscape-font-specification:'Open Sans'"
       id="path21483" />
    <path
       d="M 270.37628,56.113457 H 262.957 V 42.787912 h 7.41928 v 1.36719 h -5.8698 v 4.311206 h 5.53256 v 1.34896 h -5.53256 v 4.930999 h 5.8698 z"
       style="fill: white;font-family:'Open Sans';-inkscape-font-specification:'Open Sans'"
       id="path21485" />
  </g>
</svg>
