<?xml version="1.0" encoding="UTF-8" standalone="no"?>
<svg
   height="24"
   width="211"
   viewBox="0 0 211 24"
   fill="none"
   version="1.1"
   id="svg4"
   xmlns="http://www.w3.org/2000/svg"
   xmlns:svg="http://www.w3.org/2000/svg">
  <defs
     id="defs8" />
  <path
     d="m 53.030757,1.1675443 -15.4487,15.3308997 c -1.5353,-4.0476 -4.442,-7.4389697 -8.2216,-9.5922197 -3.7795,-2.15324 -8.1963,-2.93419 -12.4927,-2.20886 -4.2964,0.72533 -8.2045603,2.91172 -11.0540203,6.1840897 -2.84946,3.27239 -4.4626349,7.42679 -4.5627799,11.75049 h 6.5600199 c 0.11901,-3.0641 1.40323,-5.9698 3.5941803,-8.1322 2.1909,-2.1623 5.1259,-3.4208 8.2143,-3.52211 3.0883,-0.1013 6.1006,0.96211 8.4307,2.97611 2.33,2.0141 3.8048,4.8293 4.1274,7.8789 l -0.0642,0.0753 h 0.0817 c 0,0.2491 0.0409,0.6951 0.0467,0.6951 h 8.3051 l 17.0829,-16.9005197 z"
     fill="white"
     id="path2" />
  <path
     d="m 61.093558,3.6057767 h 5.836309 c 3.50179,0 5.28773,2.015551 5.28773,4.969371 0,2.3630503 -1.0973,4.2048393 -3.36174,4.7492593 l 3.86364,7.1413 h -3.02905 l -3.50179,-6.6664 h -2.33452 v 6.6664 h -2.760579 z m 5.369409,8.0390203 c 1.97851,0 2.99986,-0.944059 2.99986,-2.9306493 0,-1.73754 -0.88128,-2.8959 -2.8773,-2.8959 h -2.67303 v 5.7917993 z"
     fill="white"
     id="path2-3" />
  <path
     d="M 78.433297,15.380507 V 8.8589377 c 0,-3.61987 2.5971,-5.554335 5.9588,-5.554335 3.3617,0 5.9998,1.615915 5.9998,5.363205 v 6.5273993 c 0,3.7588 -2.6964,5.5543 -5.9823,5.5543 -3.2858,0 -5.9822,-1.587 -5.9822,-5.369 z m 9.1221,-0.0927 V 8.6214777 c 0,-1.89392 -1.2606,-3.00015 -3.2158,-3.00015 -1.9552,0 -3.0991,1.29736 -3.0991,3.21445 v 6.4520293 c 0,1.9113 1.1673,3.1218 3.1925,3.1218 0.4199,0.0306 0.8416,-0.0293 1.236,-0.1757 0.3944,-0.1464 0.7522,-0.3758 1.0489,-0.6723 0.2966,-0.2966 0.5251,-0.6534 0.6697,-1.0459 0.1445,-0.3925 0.2018,-0.8113 0.1678,-1.2279 z"
     fill="white"
     id="path4" />
  <path
     d="M 96.519997,15.380507 V 8.8589377 c 0,-3.61987 2.5972,-5.554335 5.958893,-5.554335 3.3617,0 6.0055,1.615915 6.0055,5.363205 v 6.5273993 c 0,3.7588 -2.6905,5.5543 -5.9764,5.5543 -3.285793,0 -5.982193,-1.587 -5.982193,-5.369 z m 9.133793,-0.0927 V 8.6214777 c 0,-1.89392 -1.2665,-3.00015 -3.2158,-3.00015 -1.9493,0 -3.099093,1.29736 -3.099093,3.21445 v 6.4520293 c 0,1.9113 1.167293,3.1218 3.192493,3.1218 0.4199,0.0306 0.8416,-0.0293 1.236,-0.1757 0.3944,-0.1464 0.7522,-0.3758 1.0489,-0.6723 0.2966,-0.2966 0.5251,-0.6534 0.6697,-1.0459 0.1445,-0.3925 0.2018,-0.8113 0.1678,-1.2279 z"
     fill="white"
     id="path6" />
  <path
     d="m 118.03849,5.8819577 h -4.6457 v -2.276181 h 12.052 v 2.276181 h -4.599 V 20.465707 h -2.8073 z"
     fill="white"
     id="path8" />
  <path
     d="m 129.75199,18.786107 1.424,-1.9866 c 1.2891,1.0661 2.9212,1.6375 4.599,1.6101 1.5992,0 2.7898,-0.9441 2.7898,-2.2704 0,-1.4653 -1.1206,-2.1545 -2.4046,-2.67 l -2.387,-0.94985 c -2.142,-0.85139 -3.2158,-2.386219 -3.2158,-4.4423093 0,-2.60052 2.0018,-4.749276 5.3636,-4.749276 1.7767,-0.07857 3.5216,0.487621 4.9083,1.592746 l -1.4532,1.98659 c -1.2665,-0.89773 -2.2412,-1.37266 -3.6011,-1.37266 -1.4999,0 -2.5971,0.71239 -2.5971,2.15455 0,1.15836 0.7178,1.81862 2.1711,2.4325603 l 2.2353,0.94406 c 2.4104,1.019359 3.7644,2.507889 3.7644,4.587089 0,3.145 -2.6438,5.0852 -5.8363,5.0852 -2.1088,0.095 -4.1754,-0.6066 -5.7838,-1.9634"
     fill="white"
     id="path10" />
  <path
     d="m 150.19659,5.8819577 h -4.6457 v -2.276181 h 12.052 v 2.276181 h -4.5991 V 20.465707 h -2.8072 z"
     fill="white"
     id="path12" />
  <path
     d="m 163.24079,3.6057767 h 5.836 c 3.502,0 5.288,2.015551 5.288,4.969371 0,2.3630503 -1.097,4.2048393 -3.362,4.7492593 l 3.864,7.1413 h -3.029 l -3.502,-6.6664 h -2.334 v 6.6664 h -2.814 z m 5.358,8.0390203 c 1.978,0 3,-0.944059 3,-2.9306493 0,-1.73754 -0.882,-2.8959 -2.884,-2.8959 h -2.667 v 5.7917993 z"
     fill="white"
     id="path14" />
  <path
     d="m 184.35679,3.5594457 h 3.332 l 5.008,16.9062613 h -2.813 l -1.261,-4.5408 h -5.434 l -1.26,4.5176 h -2.597 z m 3.642,10.2398613 -2.072,-7.4713793 h -0.047 l -2.107,7.4713793 z"
     fill="white"
     id="path16" />
  <path
     d="m 198.07779,3.6115717 h 5.883 c 3.402,0 5.025,2.270386 5.025,5.102576 0,3.0986093 -1.751,5.4384593 -5.288,5.4384593 h -2.813 v 6.3131 h -2.807 z m 5.072,8.3923153 c 1.978,0 3.093,-1.158359 3.093,-3.1970693 0,-1.697 -0.951,-2.97699 -2.761,-2.97699 h -2.597 v 6.1740593 z"
     fill="white"
     id="path18" />
</svg>
