<svg width="155" height="32" viewBox="0 0 155 32" fill="none" xmlns="http://www.w3.org/2000/svg">
<path fill-rule="evenodd" clip-rule="evenodd" d="M37.1327 9.59667C39.7705 9.59667 41.9088 7.45835 41.9088 4.8206C41.9088 2.18285 39.7705 0.044529 37.1327 0.044529C34.4949 0.044529 32.3566 2.18285 32.3566 4.8206C32.3566 7.45835 34.4949 9.59667 37.1327 9.59667ZM27.6294 20.1499C27.853 20.3738 28.1568 20.4999 28.4733 20.4999H40.7129C41.3726 20.4999 41.9071 19.9653 41.9071 19.3056V11.5007H31.7908C31.4736 11.5007 31.1698 11.3747 30.9461 11.1507C29.5986 9.80366 24.6284 4.83344 20.7616 0.966363C20.538 0.742382 20.2341 0.616348 19.917 0.616348H11.3535C10.4252 1.54492 9.72399 2.24588 9.72399 2.24588C9.72399 2.24588 25.101 17.6221 27.6294 20.1499ZM14.2787 11.8499C14.0551 11.6259 13.7512 11.4998 13.4348 11.4998H1.19518C0.535485 11.4998 0.000976562 12.0344 0.000976562 12.6941V20.499H10.118C10.4345 20.499 10.7383 20.625 10.9619 20.849C11.7726 21.6594 13.8943 23.7809 16.2982 26.1847L16.3101 26.1966L21.1472 31.0333C21.3708 31.2573 21.6746 31.3834 21.9911 31.3834H30.5545C31.4829 30.4548 32.1841 29.7538 32.1841 29.7538C32.1841 29.7538 16.8071 14.3776 14.2787 11.8499ZM4.29153e-05 27.1794C4.29153e-05 24.5416 2.13836 22.4033 4.77611 22.4033C7.41387 22.4033 9.55219 24.5416 9.55219 27.1794C9.55219 29.8171 7.41387 31.9555 4.77611 31.9555C2.13836 31.9555 4.29153e-05 29.8171 4.29153e-05 27.1794Z" fill="#A576FA"/>
<path d="M61.4034 2.95126H51.4966V28.8271H54.7127V18.8834H61.3295L66.6895 28.8271H70.3121L64.5085 18.2549C66.1842 17.7867 67.5212 16.8934 68.5192 15.5749C69.5173 14.2565 70.0163 12.6978 70.0163 10.8988C70.0163 9.29696 69.659 7.89843 68.9443 6.70322C68.2297 5.508 67.2193 4.58388 65.9131 3.93083C64.607 3.27777 63.1038 2.95126 61.4034 2.95126ZM54.7127 15.9262V5.90847H61.1816C62.8574 5.90847 64.2004 6.36438 65.2108 7.2762C66.2212 8.18801 66.7264 9.39553 66.7264 10.8988C66.7264 12.4267 66.2212 13.6466 65.2108 14.5584C64.2004 15.4702 62.845 15.9262 61.1446 15.9262H54.7127Z" fill="white"/>
<path d="M75.0253 27.8289C76.4423 28.6422 78.0626 29.0488 79.8862 29.0488C81.7099 29.0488 83.3302 28.6422 84.7472 27.8289C86.1642 27.0157 87.267 25.8821 88.0556 24.4281C88.8442 22.9741 89.2385 21.2984 89.2385 19.4008C89.2385 17.5033 88.8442 15.8275 88.0556 14.3736C87.267 12.9196 86.1642 11.786 84.7472 10.9727C83.3302 10.1595 81.7099 9.75287 79.8862 9.75287C78.0626 9.75287 76.4423 10.1595 75.0253 10.9727C73.6083 11.786 72.5054 12.9196 71.7168 14.3736C70.9282 15.8275 70.5339 17.5033 70.5339 19.4008C70.5339 21.2984 70.9282 22.9741 71.7168 24.4281C72.5054 25.8821 73.6083 27.0157 75.0253 27.8289ZM83.1577 25.4631C82.2089 26.0546 81.1184 26.3504 79.8862 26.3504C78.654 26.3504 77.5635 26.0546 76.6148 25.4631C75.666 24.8717 74.9329 24.0461 74.4153 22.9865C73.8978 21.9268 73.639 20.7316 73.639 19.4008C73.639 18.0701 73.8978 16.8748 74.4153 15.8152C74.9329 14.7555 75.666 13.93 76.6148 13.3385C77.5635 12.7471 78.654 12.4513 79.8862 12.4513C81.1184 12.4513 82.2089 12.7471 83.1577 13.3385C84.1065 13.93 84.8396 14.7555 85.3571 15.8152C85.8746 16.8748 86.1333 18.0701 86.1333 19.4008C86.1333 20.7316 85.8746 21.9268 85.3571 22.9865C84.8396 24.0461 84.1065 24.8717 83.1577 25.4631Z" fill="white"/>
<path d="M95.8922 19.1421L88.7209 28.827H92.0847L97.6296 21.2491L103.174 28.827H106.797L99.5887 19.1421L106.316 9.97467H102.953L97.8514 16.9612L92.824 9.97467H89.2014L95.8922 19.1421Z" fill="white"/>
<path d="M110.623 27.8289C112.04 28.6422 113.66 29.0488 115.484 29.0488C117.308 29.0488 118.928 28.6422 120.345 27.8289C121.762 27.0157 122.865 25.8821 123.653 24.4281C124.442 22.9741 124.836 21.2984 124.836 19.4008C124.836 17.5033 124.442 15.8275 123.653 14.3736C122.865 12.9196 121.762 11.786 120.345 10.9727C118.928 10.1595 117.308 9.75287 115.484 9.75287C113.66 9.75287 112.04 10.1595 110.623 10.9727C109.206 11.786 108.103 12.9196 107.314 14.3736C106.526 15.8275 106.132 17.5033 106.132 19.4008C106.132 21.2984 106.526 22.9741 107.314 24.4281C108.103 25.8821 109.206 27.0157 110.623 27.8289ZM118.755 25.4631C117.807 26.0546 116.716 26.3504 115.484 26.3504C114.252 26.3504 113.161 26.0546 112.212 25.4631C111.264 24.8717 110.531 24.0461 110.013 22.9865C109.495 21.9268 109.237 20.7316 109.237 19.4008C109.237 18.0701 109.495 16.8748 110.013 15.8152C110.531 14.7555 111.264 13.93 112.212 13.3385C113.161 12.7471 114.252 12.4513 115.484 12.4513C116.716 12.4513 117.807 12.7471 118.755 13.3385C119.704 13.93 120.437 14.7555 120.955 15.8152C121.472 16.8748 121.731 18.0701 121.731 19.4008C121.731 20.7316 121.472 21.9268 120.955 22.9865C120.437 24.0461 119.704 24.8717 118.755 25.4631Z" fill="white"/>
<path d="M153.022 11.7489C151.704 10.4182 149.985 9.75287 147.866 9.75287C144.859 9.75287 142.678 10.9481 141.323 13.3385C140.805 12.1556 140.023 11.2622 138.975 10.6584C137.928 10.0547 136.727 9.75287 135.371 9.75287C133.055 9.75287 131.219 10.6893 129.863 12.5622L129.457 9.97463H126.832V28.827H129.863V18.8833C129.863 16.9857 130.313 15.4517 131.213 14.2811C132.112 13.1106 133.326 12.5253 134.854 12.5253C136.308 12.5253 137.429 13.0058 138.218 13.9669C139.006 14.928 139.401 16.3204 139.401 18.144V28.827H142.432V18.7354C142.432 16.8132 142.881 15.2977 143.781 14.1887C144.68 13.0798 145.919 12.5253 147.496 12.5253C148.925 12.5253 150.028 13.0058 150.804 13.9669C151.581 14.928 151.969 16.3204 151.969 18.144V28.827H155V17.9592C155 15.1498 154.341 13.0797 153.022 11.7489Z" fill="white"/>
</svg>
