<?xml version="1.0" encoding="UTF-8" standalone="no"?>
<!-- Generator: Adobe Illustrator 21.1.0, SVG Export Plug-In . SVG Version: 6.00 Build 0)  -->

<svg
   version="1.1"
   id="Layer_1"
   x="0px"
   y="0px"
   viewBox="0 0 377 86"
   style="enable-background:new 0 0 377 86;"
   xml:space="preserve"
   sodipodi:docname="svitla-dark-mode.svg"
   inkscape:version="1.1.2 (0a00cf5339, 2022-02-04)"
   xmlns:inkscape="http://www.inkscape.org/namespaces/inkscape"
   xmlns:sodipodi="http://sodipodi.sourceforge.net/DTD/sodipodi-0.dtd"
   xmlns="http://www.w3.org/2000/svg"
   xmlns:svg="http://www.w3.org/2000/svg"><defs
   id="defs23" /><sodipodi:namedview
   id="namedview21"
   pagecolor="#ffffff"
   bordercolor="#666666"
   borderopacity="1.0"
   inkscape:pageshadow="2"
   inkscape:pageopacity="0.0"
   inkscape:pagecheckerboard="0"
   showgrid="false"
   inkscape:zoom="3.530504"
   inkscape:cx="287.77761"
   inkscape:cy="42.911721"
   inkscape:window-width="1920"
   inkscape:window-height="1021"
   inkscape:window-x="1920"
   inkscape:window-y="0"
   inkscape:window-maximized="1"
   inkscape:current-layer="Layer_1" />
<style
   type="text/css"
   id="style2">
	.st0{fill:#231F20;}
	.st1{fill:#FF6E00;}
</style>
<circle
   class="st0"
   cx="229.4"
   cy="12.7"
   r="6.5"
   id="circle4"
   style="fill:#ffffff" />
<path
   class="st0"
   d="M125.4,50c3.4,0,10.4,0,10.4,0s-0.5,4.6,7.2,6.3c2.6,0.6,4.8,0,5.8-0.3c1.6-0.5,3.6-1.4,3.7-3.3  c0.2-2.1-1.6-3-3.4-3.4c-3-0.7-6.1-1.1-9.2-1.7c-1.5-0.3-3-0.5-4.4-1.1c-4.9-1.8-8.4-4.7-8.8-10.4c-0.4-5.7,1.9-10,7.1-12.5  c7.2-3.5,15.6-3.3,22.3,0.3c4.4,2.3,6.9,6.5,6.8,11.4c-3.4,0-6.8,0-10.3,0c-1.1-5.6-9.4-6.7-13.4-3.6c-1.8,1.4-1.6,4,0.6,5.1  c1.8,0.9,3.8,1.2,5.7,1.6c3.5,0.8,7.1,1.3,10.4,2.4c9.9,3.4,8.9,16.1,2.5,20.7c-3,2.2-6.3,3.3-9.8,3.7c-5.3,0.6-10.3,0.2-15.2-2.2  C128.2,60.4,126,55.9,125.4,50z"
   id="path6"
   style="fill:#ffffff" />
<path
   class="st0"
   d="M251.4,32h-8.9v-9.7h8.8V7.2h11.6v15.1h15.4V32H263l0,6c0,0,0,6.4,0,9.5c0,5,2.9,7.7,7.9,7.4  c2.2-0.2,5.1-0.8,7.4-1.6c0,3.6,0,7.2,0,10.6c-6.5,2.9-18.9,2.7-23.9-5.2c-1.9-3.1-2.9-6.4-3-10c-0.1-4.7,0-14.1,0-14.1L251.4,32z"
   id="path8"
   style="fill:#ffffff" />
<rect
   x="287.5"
   y="7.2"
   class="st0"
   width="11.3"
   height="57.3"
   id="rect10"
   style="fill:#ffffff" />
<rect
   x="223.7"
   y="22.3"
   class="st0"
   width="11.3"
   height="42.1"
   id="rect12"
   style="fill:#ffffff" />
<path
   class="st1"
   d="M61.5,21.1c-19.4,0-37,7.9-49.7,20.7l23.6,23.6c6.7-6.7,15.9-10.9,26-10.9c10.2,0,19.4,4.2,26,10.9l23.6-23.6  C98.5,29.1,80.9,21.1,61.5,21.1"
   id="path14" />
<polygon
   class="st0"
   points="203.4,22.3 191.2,49.2 178.9,22.3 166.9,22.3 186,64.4 196.3,64.4 215.5,22.3 "
   id="polygon16"
   style="fill:#ffffff" />
<path
   class="st0"
   d="M340.4,22.3v2c-3.2-1.9-7-3-11.1-3c-12.1,0-21.9,10-21.9,22.1c0,12.1,9.8,22,21.9,22c4,0,7.8-1.1,11.1-3v2.1  H352V22.3H340.4z M330.6,55.2c-6.5,0-11.7-5.3-11.7-11.7c0-6.5,5.3-11.7,11.7-11.7c4.1,0,7.7,2.1,9.8,5.3v12.8  C338.3,53.1,334.7,55.2,330.6,55.2z"
   id="path18"
   style="fill:#ffffff" />
</svg>
