<svg xmlns="http://www.w3.org/2000/svg"
  xmlns:xlink="http://www.w3.org/1999/xlink" width="1080" zoomAndPan="magnify" viewBox="0 0 810 809.999993" height="1080" preserveAspectRatio="xMidYMid meet" version="1.0">
  <path fill="var(--fill)" d="M 740.679688 0.339844 L 635.375 15.367188 C 573.5625 24.210938 519.234375 61.066406 488.257812 115.261719 L 455.945312 171.761719 L 237.195312 171.761719 C 234.933594 171.757812 232.703125 172.011719 230.503906 172.527344 C 228.304688 173.042969 226.195312 173.808594 224.171875 174.816406 C 222.152344 175.828125 220.273438 177.058594 218.542969 178.507812 C 216.808594 179.960938 215.269531 181.589844 213.917969 183.402344 C 144.054688 277.699219 63.640625 419.296875 63.640625 547.835938 C 63.640625 695.1875 209.585938 808.191406 381.820312 808.191406 C 554.058594 808.191406 700.003906 695.1875 700.003906 547.835938 C 700.003906 419.296875 619.589844 277.699219 549.726562 183.402344 C 548.375 181.589844 546.835938 179.960938 545.101562 178.507812 C 543.367188 177.058594 541.492188 175.828125 539.472656 174.816406 C 537.449219 173.808594 535.339844 173.042969 533.140625 172.527344 C 530.941406 172.011719 528.710938 171.757812 526.449219 171.761719 L 522.496094 171.761719 L 538.425781 143.964844 C 560.558594 105.242188 599.335938 78.976562 643.507812 72.660156 L 748.816406 57.519531 Z M 216.066406 287.476562 L 547.578125 287.476562 C 597.835938 369.554688 642.152344 468.328125 642.152344 547.835938 C 642.152344 656.09375 529.039062 750.335938 381.820312 750.335938 C 234.605469 750.335938 121.492188 656.09375 121.492188 547.835938 C 121.492188 468.328125 165.804688 369.554688 216.066406 287.476562 Z M 216.066406 287.476562 " fill-opacity="1" fill-rule="nonzero"/>
</svg>