<svg xmlns="http://www.w3.org/2000/svg"
  xmlns:xlink="http://www.w3.org/1999/xlink" width="1080" zoomAndPan="magnify" viewBox="0 0 810 809.999993" height="1080" preserveAspectRatio="xMidYMid meet" version="1.0">
  <defs>
    <clipPath id="c953e84a67">
      <path d="M 159.265625 0 L 697.765625 0 L 697.765625 810 L 159.265625 810 Z M 159.265625 0 " clip-rule="nonzero"/>
    </clipPath>
  </defs>
  <g clip-path="url(#c953e84a67)">
    <path fill="var(--fill)" d="M 676.863281 348.933594 C 665.34375 348.933594 656.007812 358.273438 656.007812 369.792969 L 656.007812 434.550781 C 656.007812 495.34375 632.339844 552.5 589.363281 595.484375 C 546.386719 638.472656 489.25 662.148438 428.472656 662.148438 C 367.695312 662.148438 310.554688 638.472656 267.578125 595.484375 C 224.605469 552.5 200.933594 495.34375 200.933594 434.550781 L 200.933594 369.792969 C 200.933594 358.273438 191.597656 348.933594 180.078125 348.933594 C 168.558594 348.933594 159.222656 358.273438 159.222656 369.792969 L 159.222656 434.550781 C 159.222656 506.488281 187.230469 574.121094 238.082031 624.988281 C 283.988281 670.90625 343.554688 698.195312 407.613281 703.074219 L 407.613281 768.226562 L 340.390625 768.226562 C 328.871094 768.226562 319.53125 777.570312 319.53125 789.089844 C 319.53125 800.609375 328.871094 809.953125 340.390625 809.953125 L 516.554688 809.953125 C 528.074219 809.953125 537.410156 800.609375 537.410156 789.089844 C 537.410156 777.570312 528.074219 768.226562 516.554688 768.226562 L 449.328125 768.226562 L 449.328125 703.074219 C 513.386719 698.195312 572.953125 670.90625 618.863281 624.988281 C 669.714844 574.121094 697.722656 506.488281 697.722656 434.550781 L 697.722656 369.792969 C 697.722656 358.273438 688.382812 348.933594 676.863281 348.933594 Z M 428.472656 42.5625 C 391.464844 42.5625 356.671875 56.976562 330.503906 83.152344 C 304.335938 109.324219 289.925781 144.125 289.925781 181.144531 L 289.925781 429.878906 C 289.925781 466.898438 304.335938 501.699219 330.503906 527.875 C 356.671875 554.050781 391.464844 568.460938 428.472656 568.460938 C 465.480469 568.460938 500.269531 554.050781 526.4375 527.875 C 552.609375 501.699219 567.015625 466.898438 567.015625 429.878906 L 567.015625 181.144531 C 567.015625 144.125 552.609375 109.324219 526.4375 83.152344 C 500.269531 56.976562 465.480469 42.5625 428.472656 42.5625 Z M 428.472656 610.890625 C 380.136719 610.890625 334.691406 592.0625 300.511719 557.875 C 266.332031 523.6875 247.507812 478.230469 247.507812 429.878906 L 247.507812 181.144531 C 247.507812 132.796875 266.332031 87.335938 300.511719 53.152344 C 334.691406 18.964844 380.132812 0.132812 428.472656 0.132812 C 476.808594 0.132812 522.253906 18.964844 556.429688 53.152344 C 590.609375 87.335938 609.433594 132.796875 609.433594 181.144531 L 609.433594 429.878906 C 609.433594 478.230469 590.609375 523.6875 556.429688 557.875 C 522.253906 592.0625 476.808594 610.890625 428.472656 610.890625 " fill-opacity="1" fill-rule="nonzero"/>
  </g>
</svg>