<svg xmlns="http://www.w3.org/2000/svg"
  xmlns:xlink="http://www.w3.org/1999/xlink" width="1080" zoomAndPan="magnify" viewBox="0 0 810 809.999993" height="1080" preserveAspectRatio="xMidYMid meet" version="1.0">
  <defs>
    <clipPath id="eb44f61327">
      <path d="M 143 308 L 210 308 L 210 376.371094 L 143 376.371094 Z M 143 308 " clip-rule="nonzero"/>
    </clipPath>
    <clipPath id="51850b8f02">
      <path d="M 122 289.371094 L 210 289.371094 L 210 376.371094 L 122 376.371094 Z M 122 289.371094 " clip-rule="nonzero"/>
    </clipPath>
    <clipPath id="d7f19b3bd3">
      <path d="M 122 289.371094 L 210 289.371094 L 210 376.371094 L 122 376.371094 Z M 122 289.371094 " clip-rule="nonzero"/>
    </clipPath>
    <clipPath id="2e9b682315">
      <path d="M 122 289.371094 L 184 289.371094 L 184 347 L 122 347 Z M 122 289.371094 " clip-rule="nonzero"/>
    </clipPath>
    <clipPath id="3d4642677d">
      <path d="M 362 347 L 449 347 L 449 388 L 362 388 Z M 362 347 " clip-rule="nonzero"/>
    </clipPath>
    <clipPath id="b7e3c739b4">
      <path d="M 399.023438 266.683594 L 471.382812 336.425781 L 411.007812 399.066406 L 338.648438 329.320312 Z M 399.023438 266.683594 " clip-rule="nonzero"/>
    </clipPath>
    <clipPath id="30efe67efc">
      <path d="M 399.023438 266.683594 L 471.382812 336.425781 L 411.007812 399.066406 L 338.648438 329.320312 Z M 399.023438 266.683594 " clip-rule="nonzero"/>
    </clipPath>
    <clipPath id="c4db3707a8">
      <path d="M 399.023438 266.683594 L 471.382812 336.425781 L 411.007812 399.066406 L 338.648438 329.320312 Z M 399.023438 266.683594 " clip-rule="nonzero"/>
    </clipPath>
    <clipPath id="2cfd9cc039">
      <path d="M 358 345 L 454 345 L 454 390 L 358 390 Z M 358 345 " clip-rule="nonzero"/>
    </clipPath>
    <clipPath id="23b5381994">
      <path d="M 399.023438 266.683594 L 471.382812 336.425781 L 411.007812 399.066406 L 338.648438 329.320312 Z M 399.023438 266.683594 " clip-rule="nonzero"/>
    </clipPath>
    <clipPath id="87cd0533b4">
      <path d="M 399.023438 266.683594 L 471.382812 336.425781 L 411.007812 399.066406 L 338.648438 329.320312 Z M 399.023438 266.683594 " clip-rule="nonzero"/>
    </clipPath>
    <clipPath id="1193b1c109">
      <path d="M 399.023438 266.683594 L 471.382812 336.425781 L 411.007812 399.066406 L 338.648438 329.320312 Z M 399.023438 266.683594 " clip-rule="nonzero"/>
    </clipPath>
    <clipPath id="91e321492e">
      <path d="M 405 347 L 449 347 L 449 388 L 405 388 Z M 405 347 " clip-rule="nonzero"/>
    </clipPath>
    <clipPath id="0a9b2e44a9">
      <path d="M 399.023438 266.683594 L 471.382812 336.425781 L 411.007812 399.066406 L 338.648438 329.320312 Z M 399.023438 266.683594 " clip-rule="nonzero"/>
    </clipPath>
    <clipPath id="4631d7d19d">
      <path d="M 399.023438 266.683594 L 471.382812 336.425781 L 411.007812 399.066406 L 338.648438 329.320312 Z M 399.023438 266.683594 " clip-rule="nonzero"/>
    </clipPath>
    <clipPath id="aae6f45e9d">
      <path d="M 399.023438 266.683594 L 471.382812 336.425781 L 411.007812 399.066406 L 338.648438 329.320312 Z M 399.023438 266.683594 " clip-rule="nonzero"/>
    </clipPath>
    <clipPath id="d6a14d5721">
      <path d="M 403 346 L 453 346 L 453 390 L 403 390 Z M 403 346 " clip-rule="nonzero"/>
    </clipPath>
    <clipPath id="5537de7241">
      <path d="M 399.023438 266.683594 L 471.382812 336.425781 L 411.007812 399.066406 L 338.648438 329.320312 Z M 399.023438 266.683594 " clip-rule="nonzero"/>
    </clipPath>
    <clipPath id="a25c10e0b5">
      <path d="M 399.023438 266.683594 L 471.382812 336.425781 L 411.007812 399.066406 L 338.648438 329.320312 Z M 399.023438 266.683594 " clip-rule="nonzero"/>
    </clipPath>
    <clipPath id="73c45a3aa1">
      <path d="M 399.023438 266.683594 L 471.382812 336.425781 L 411.007812 399.066406 L 338.648438 329.320312 Z M 399.023438 266.683594 " clip-rule="nonzero"/>
    </clipPath>
    <clipPath id="5b2b2a556b">
      <path d="M 351 306 L 458 306 L 458 360 L 351 360 Z M 351 306 " clip-rule="nonzero"/>
    </clipPath>
    <clipPath id="8c1f98d1e0">
      <path d="M 399.023438 266.683594 L 471.382812 336.425781 L 411.007812 399.066406 L 338.648438 329.320312 Z M 399.023438 266.683594 " clip-rule="nonzero"/>
    </clipPath>
    <clipPath id="254230a632">
      <path d="M 399.023438 266.683594 L 471.382812 336.425781 L 411.007812 399.066406 L 338.648438 329.320312 Z M 399.023438 266.683594 " clip-rule="nonzero"/>
    </clipPath>
    <clipPath id="ba306427cf">
      <path d="M 399.023438 266.683594 L 471.382812 336.425781 L 411.007812 399.066406 L 338.648438 329.320312 Z M 399.023438 266.683594 " clip-rule="nonzero"/>
    </clipPath>
    <clipPath id="dd71a80828">
      <path d="M 350 304 L 460 304 L 460 361 L 350 361 Z M 350 304 " clip-rule="nonzero"/>
    </clipPath>
    <clipPath id="2bec5ba426">
      <path d="M 399.023438 266.683594 L 471.382812 336.425781 L 411.007812 399.066406 L 338.648438 329.320312 Z M 399.023438 266.683594 " clip-rule="nonzero"/>
    </clipPath>
    <clipPath id="e6dd15be57">
      <path d="M 399.023438 266.683594 L 471.382812 336.425781 L 411.007812 399.066406 L 338.648438 329.320312 Z M 399.023438 266.683594 " clip-rule="nonzero"/>
    </clipPath>
    <clipPath id="05f4fd603a">
      <path d="M 399.023438 266.683594 L 471.382812 336.425781 L 411.007812 399.066406 L 338.648438 329.320312 Z M 399.023438 266.683594 " clip-rule="nonzero"/>
    </clipPath>
    <clipPath id="cb1bedbc78">
      <path d="M 359 298 L 451 298 L 451 358 L 359 358 Z M 359 298 " clip-rule="nonzero"/>
    </clipPath>
    <clipPath id="dd37f59294">
      <path d="M 399.023438 266.683594 L 471.382812 336.425781 L 411.007812 399.066406 L 338.648438 329.320312 Z M 399.023438 266.683594 " clip-rule="nonzero"/>
    </clipPath>
    <clipPath id="e253f946aa">
      <path d="M 399.023438 266.683594 L 471.382812 336.425781 L 411.007812 399.066406 L 338.648438 329.320312 Z M 399.023438 266.683594 " clip-rule="nonzero"/>
    </clipPath>
    <clipPath id="c44ff2a76f">
      <path d="M 399.023438 266.683594 L 471.382812 336.425781 L 411.007812 399.066406 L 338.648438 329.320312 Z M 399.023438 266.683594 " clip-rule="nonzero"/>
    </clipPath>
    <clipPath id="b4a528640c">
      <path d="M 355 297 L 455 297 L 455 361 L 355 361 Z M 355 297 " clip-rule="nonzero"/>
    </clipPath>
    <clipPath id="6b46369e44">
      <path d="M 399.023438 266.683594 L 471.382812 336.425781 L 411.007812 399.066406 L 338.648438 329.320312 Z M 399.023438 266.683594 " clip-rule="nonzero"/>
    </clipPath>
    <clipPath id="c5406bc1af">
      <path d="M 399.023438 266.683594 L 471.382812 336.425781 L 411.007812 399.066406 L 338.648438 329.320312 Z M 399.023438 266.683594 " clip-rule="nonzero"/>
    </clipPath>
    <clipPath id="b5c5ed3222">
      <path d="M 399.023438 266.683594 L 471.382812 336.425781 L 411.007812 399.066406 L 338.648438 329.320312 Z M 399.023438 266.683594 " clip-rule="nonzero"/>
    </clipPath>
    <clipPath id="ec8bf5338b">
      <path d="M 373 298 L 439 298 L 439 329 L 373 329 Z M 373 298 " clip-rule="nonzero"/>
    </clipPath>
    <clipPath id="01ac7b9ab2">
      <path d="M 399.023438 266.683594 L 471.382812 336.425781 L 411.007812 399.066406 L 338.648438 329.320312 Z M 399.023438 266.683594 " clip-rule="nonzero"/>
    </clipPath>
    <clipPath id="b22da9ff5b">
      <path d="M 399.023438 266.683594 L 471.382812 336.425781 L 411.007812 399.066406 L 338.648438 329.320312 Z M 399.023438 266.683594 " clip-rule="nonzero"/>
    </clipPath>
    <clipPath id="b1c416034c">
      <path d="M 399.023438 266.683594 L 471.382812 336.425781 L 411.007812 399.066406 L 338.648438 329.320312 Z M 399.023438 266.683594 " clip-rule="nonzero"/>
    </clipPath>
    <clipPath id="f821b6f118">
      <path d="M 371 297 L 441 297 L 441 331 L 371 331 Z M 371 297 " clip-rule="nonzero"/>
    </clipPath>
    <clipPath id="07e3c6db96">
      <path d="M 399.023438 266.683594 L 471.382812 336.425781 L 411.007812 399.066406 L 338.648438 329.320312 Z M 399.023438 266.683594 " clip-rule="nonzero"/>
    </clipPath>
    <clipPath id="f13fefbb2c">
      <path d="M 399.023438 266.683594 L 471.382812 336.425781 L 411.007812 399.066406 L 338.648438 329.320312 Z M 399.023438 266.683594 " clip-rule="nonzero"/>
    </clipPath>
    <clipPath id="af64d63149">
      <path d="M 399.023438 266.683594 L 471.382812 336.425781 L 411.007812 399.066406 L 338.648438 329.320312 Z M 399.023438 266.683594 " clip-rule="nonzero"/>
    </clipPath>
    <clipPath id="8959661072">
      <path d="M 601 315 L 665 315 L 665 374 L 601 374 Z M 601 315 " clip-rule="nonzero"/>
    </clipPath>
    <clipPath id="c9ee9083b6">
      <path d="M 685.65625 281.460938 L 688.445312 381.925781 L 601.476562 384.335938 L 598.691406 283.875 Z M 685.65625 281.460938 " clip-rule="nonzero"/>
    </clipPath>
    <clipPath id="cc91629ad0">
      <path d="M 685.65625 281.460938 L 688.445312 381.925781 L 601.476562 384.335938 L 598.691406 283.875 Z M 685.65625 281.460938 " clip-rule="nonzero"/>
    </clipPath>
    <clipPath id="de62e07e76">
      <path d="M 685.65625 281.460938 L 688.445312 381.925781 L 601.476562 384.335938 L 598.691406 283.875 Z M 685.65625 281.460938 " clip-rule="nonzero"/>
    </clipPath>
    <clipPath id="728cb46950">
      <path d="M 599 311 L 669 311 L 669 376 L 599 376 Z M 599 311 " clip-rule="nonzero"/>
    </clipPath>
    <clipPath id="51844e7494">
      <path d="M 685.65625 281.460938 L 688.445312 381.925781 L 601.476562 384.335938 L 598.691406 283.875 Z M 685.65625 281.460938 " clip-rule="nonzero"/>
    </clipPath>
    <clipPath id="ef913acc36">
      <path d="M 685.65625 281.460938 L 688.445312 381.925781 L 601.476562 384.335938 L 598.691406 283.875 Z M 685.65625 281.460938 " clip-rule="nonzero"/>
    </clipPath>
    <clipPath id="92efe1b557">
      <path d="M 685.65625 281.460938 L 688.445312 381.925781 L 601.476562 384.335938 L 598.691406 283.875 Z M 685.65625 281.460938 " clip-rule="nonzero"/>
    </clipPath>
    <clipPath id="1035598feb">
      <path d="M 606 343 L 664 343 L 664 374 L 606 374 Z M 606 343 " clip-rule="nonzero"/>
    </clipPath>
    <clipPath id="d459f5160d">
      <path d="M 685.65625 281.460938 L 688.445312 381.925781 L 601.476562 384.335938 L 598.691406 283.875 Z M 685.65625 281.460938 " clip-rule="nonzero"/>
    </clipPath>
    <clipPath id="dadf3c53b8">
      <path d="M 685.65625 281.460938 L 688.445312 381.925781 L 601.476562 384.335938 L 598.691406 283.875 Z M 685.65625 281.460938 " clip-rule="nonzero"/>
    </clipPath>
    <clipPath id="f165cd7a53">
      <path d="M 685.65625 281.460938 L 688.445312 381.925781 L 601.476562 384.335938 L 598.691406 283.875 Z M 685.65625 281.460938 " clip-rule="nonzero"/>
    </clipPath>
    <clipPath id="929d82da30">
      <path d="M 604 341 L 669 341 L 669 376 L 604 376 Z M 604 341 " clip-rule="nonzero"/>
    </clipPath>
    <clipPath id="85e9985481">
      <path d="M 685.65625 281.460938 L 688.445312 381.925781 L 601.476562 384.335938 L 598.691406 283.875 Z M 685.65625 281.460938 " clip-rule="nonzero"/>
    </clipPath>
    <clipPath id="80fe2c30e0">
      <path d="M 685.65625 281.460938 L 688.445312 381.925781 L 601.476562 384.335938 L 598.691406 283.875 Z M 685.65625 281.460938 " clip-rule="nonzero"/>
    </clipPath>
    <clipPath id="fd194ec41f">
      <path d="M 685.65625 281.460938 L 688.445312 381.925781 L 601.476562 384.335938 L 598.691406 283.875 Z M 685.65625 281.460938 " clip-rule="nonzero"/>
    </clipPath>
    <clipPath id="bf8c5d837b">
      <path d="M 601 291 L 687 291 L 687 374 L 601 374 Z M 601 291 " clip-rule="nonzero"/>
    </clipPath>
    <clipPath id="a81b2330d4">
      <path d="M 685.65625 281.460938 L 688.445312 381.925781 L 601.476562 384.335938 L 598.691406 283.875 Z M 685.65625 281.460938 " clip-rule="nonzero"/>
    </clipPath>
    <clipPath id="59b0d5323c">
      <path d="M 685.65625 281.460938 L 688.445312 381.925781 L 601.476562 384.335938 L 598.691406 283.875 Z M 685.65625 281.460938 " clip-rule="nonzero"/>
    </clipPath>
    <clipPath id="9f1ebc6641">
      <path d="M 685.65625 281.460938 L 688.445312 381.925781 L 601.476562 384.335938 L 598.691406 283.875 Z M 685.65625 281.460938 " clip-rule="nonzero"/>
    </clipPath>
    <clipPath id="f9dbc30a01">
      <path d="M 599 289 L 688 289 L 688 376 L 599 376 Z M 599 289 " clip-rule="nonzero"/>
    </clipPath>
    <clipPath id="e44060f056">
      <path d="M 685.65625 281.460938 L 688.445312 381.925781 L 601.476562 384.335938 L 598.691406 283.875 Z M 685.65625 281.460938 " clip-rule="nonzero"/>
    </clipPath>
    <clipPath id="1d4857a90c">
      <path d="M 685.65625 281.460938 L 688.445312 381.925781 L 601.476562 384.335938 L 598.691406 283.875 Z M 685.65625 281.460938 " clip-rule="nonzero"/>
    </clipPath>
    <clipPath id="14568fb011">
      <path d="M 685.65625 281.460938 L 688.445312 381.925781 L 601.476562 384.335938 L 598.691406 283.875 Z M 685.65625 281.460938 " clip-rule="nonzero"/>
    </clipPath>
    <clipPath id="463acb4ca4">
      <path d="M 605 290 L 687 290 L 687 371 L 605 371 Z M 605 290 " clip-rule="nonzero"/>
    </clipPath>
    <clipPath id="c0df182a30">
      <path d="M 685.65625 281.460938 L 688.445312 381.925781 L 601.476562 384.335938 L 598.691406 283.875 Z M 685.65625 281.460938 " clip-rule="nonzero"/>
    </clipPath>
    <clipPath id="348a27e5bf">
      <path d="M 685.65625 281.460938 L 688.445312 381.925781 L 601.476562 384.335938 L 598.691406 283.875 Z M 685.65625 281.460938 " clip-rule="nonzero"/>
    </clipPath>
    <clipPath id="c9259f9928">
      <path d="M 685.65625 281.460938 L 688.445312 381.925781 L 601.476562 384.335938 L 598.691406 283.875 Z M 685.65625 281.460938 " clip-rule="nonzero"/>
    </clipPath>
    <clipPath id="9b3d5c1fc8">
      <path d="M 599 289 L 688 289 L 688 376 L 599 376 Z M 599 289 " clip-rule="nonzero"/>
    </clipPath>
    <clipPath id="e3e141a134">
      <path d="M 685.65625 281.460938 L 688.445312 381.925781 L 601.476562 384.335938 L 598.691406 283.875 Z M 685.65625 281.460938 " clip-rule="nonzero"/>
    </clipPath>
    <clipPath id="3a3808207a">
      <path d="M 685.65625 281.460938 L 688.445312 381.925781 L 601.476562 384.335938 L 598.691406 283.875 Z M 685.65625 281.460938 " clip-rule="nonzero"/>
    </clipPath>
    <clipPath id="929a169fc2">
      <path d="M 685.65625 281.460938 L 688.445312 381.925781 L 601.476562 384.335938 L 598.691406 283.875 Z M 685.65625 281.460938 " clip-rule="nonzero"/>
    </clipPath>
    <clipPath id="c09467d7cf">
      <path d="M 631 291 L 686 291 L 686 347 L 631 347 Z M 631 291 " clip-rule="nonzero"/>
    </clipPath>
    <clipPath id="334360b4ca">
      <path d="M 685.65625 281.460938 L 688.445312 381.925781 L 601.476562 384.335938 L 598.691406 283.875 Z M 685.65625 281.460938 " clip-rule="nonzero"/>
    </clipPath>
    <clipPath id="050342170f">
      <path d="M 685.65625 281.460938 L 688.445312 381.925781 L 601.476562 384.335938 L 598.691406 283.875 Z M 685.65625 281.460938 " clip-rule="nonzero"/>
    </clipPath>
    <clipPath id="2034ba2250">
      <path d="M 685.65625 281.460938 L 688.445312 381.925781 L 601.476562 384.335938 L 598.691406 283.875 Z M 685.65625 281.460938 " clip-rule="nonzero"/>
    </clipPath>
    <clipPath id="1437d7ea4d">
      <path d="M 629 289 L 688 289 L 688 349 L 629 349 Z M 629 289 " clip-rule="nonzero"/>
    </clipPath>
    <clipPath id="c78f97bd3f">
      <path d="M 685.65625 281.460938 L 688.445312 381.925781 L 601.476562 384.335938 L 598.691406 283.875 Z M 685.65625 281.460938 " clip-rule="nonzero"/>
    </clipPath>
    <clipPath id="8bd71c1178">
      <path d="M 685.65625 281.460938 L 688.445312 381.925781 L 601.476562 384.335938 L 598.691406 283.875 Z M 685.65625 281.460938 " clip-rule="nonzero"/>
    </clipPath>
    <clipPath id="44ab9a8559">
      <path d="M 685.65625 281.460938 L 688.445312 381.925781 L 601.476562 384.335938 L 598.691406 283.875 Z M 685.65625 281.460938 " clip-rule="nonzero"/>
    </clipPath>
  </defs>
  <path fill="var(--fill)" d="M 405.007812 515.503906 C 398.183594 515.503906 392.644531 521.035156 392.644531 527.863281 L 392.644531 770.984375 C 392.644531 777.804688 398.183594 783.34375 405.007812 783.34375 C 411.828125 783.34375 417.359375 777.804688 417.359375 770.984375 L 417.359375 527.863281 C 417.359375 521.035156 411.828125 515.503906 405.007812 515.503906 " fill-opacity="1" fill-rule="nonzero"/>
  <path fill="var(--fill)" d="M 564.453125 127.402344 C 564.453125 85.324219 598.691406 51.089844 640.78125 51.089844 C 682.859375 51.089844 717.097656 85.324219 717.097656 127.402344 C 717.097656 169.472656 682.859375 203.703125 640.78125 203.703125 C 598.691406 203.703125 564.453125 169.472656 564.453125 127.402344 Z M 328.675781 127.402344 C 328.675781 85.324219 362.917969 51.089844 405.007812 51.089844 C 447.082031 51.089844 481.324219 85.324219 481.324219 127.402344 C 481.324219 169.472656 447.082031 203.703125 405.007812 203.703125 C 362.917969 203.703125 328.675781 169.472656 328.675781 127.402344 Z M 92.902344 127.402344 C 92.902344 85.324219 127.140625 51.089844 169.230469 51.089844 C 211.308594 51.089844 245.546875 85.324219 245.546875 127.402344 C 245.546875 169.472656 211.308594 203.703125 169.230469 203.703125 C 127.140625 203.703125 92.902344 169.472656 92.902344 127.402344 Z M 699.671875 209.40625 C 725.171875 191.050781 741.8125 161.136719 741.8125 127.402344 C 741.8125 71.703125 696.488281 26.378906 640.78125 26.378906 C 585.0625 26.378906 539.738281 71.703125 539.738281 127.402344 C 539.738281 161.117188 556.367188 191.011719 581.835938 209.371094 C 560.132812 215.472656 540.03125 226.410156 522.835938 241.628906 C 506.0625 226.824219 486 215.660156 463.894531 209.40625 C 489.386719 191.050781 506.039062 161.136719 506.039062 127.402344 C 506.039062 71.703125 460.714844 26.378906 405.007812 26.378906 C 349.285156 26.378906 303.960938 71.703125 303.960938 127.402344 C 303.960938 161.144531 320.613281 191.050781 346.105469 209.40625 C 324 215.660156 303.941406 226.824219 287.171875 241.632812 C 269.976562 226.410156 249.875 215.476562 228.171875 209.371094 C 253.632812 191.011719 270.261719 161.117188 270.261719 127.402344 C 270.261719 71.703125 224.9375 26.378906 169.230469 26.378906 C 113.511719 26.378906 68.1875 71.703125 68.1875 127.402344 C 68.1875 161.136719 84.835938 191.050781 110.328125 209.40625 C 46.738281 227.402344 0.015625 285.960938 0.015625 355.222656 L 0.015625 500.410156 C 0.015625 528.503906 22.871094 551.351562 51.75 551.351562 C 61.332031 551.351562 70.3125 548.6875 77.980469 544.070312 L 77.980469 770.984375 C 77.980469 777.804688 83.515625 783.34375 90.335938 783.34375 C 97.160156 783.34375 102.699219 777.804688 102.699219 770.984375 L 102.699219 355.257812 C 102.699219 348.429688 97.160156 342.902344 90.335938 342.902344 C 83.515625 342.902344 77.980469 348.429688 77.980469 355.257812 L 77.980469 500.410156 C 77.980469 514.875 66.21875 526.636719 50.96875 526.636719 C 36.5 526.636719 24.730469 514.875 24.730469 500.410156 L 24.730469 355.222656 C 24.730469 285.304688 81.621094 228.417969 151.558594 228.417969 L 186.898438 228.417969 C 217.765625 228.417969 246.925781 239.40625 269.988281 259.464844 C 248.871094 285.292969 236.101562 318.179688 235.816406 353.992188 C 235.769531 354.40625 235.75 354.828125 235.75 355.257812 L 235.75 770.984375 C 235.75 777.804688 241.285156 783.34375 248.105469 783.34375 C 254.933594 783.34375 260.464844 777.804688 260.464844 770.984375 L 260.464844 543.902344 C 268.304688 548.621094 277.554688 551.351562 287.527344 551.351562 C 297.109375 551.351562 306.085938 548.6875 313.757812 544.070312 L 313.757812 770.984375 C 313.757812 777.804688 319.289062 783.34375 326.113281 783.34375 C 332.941406 783.34375 338.472656 777.804688 338.472656 770.984375 L 338.472656 355.257812 C 338.472656 348.429688 332.941406 342.902344 326.113281 342.902344 C 319.289062 342.902344 313.757812 348.429688 313.757812 355.257812 L 313.757812 500.410156 C 313.757812 514.875 301.992188 526.636719 286.742188 526.636719 C 272.28125 526.636719 260.519531 514.875 260.519531 500.410156 L 260.519531 355.222656 C 260.519531 285.304688 317.410156 228.417969 387.332031 228.417969 L 422.671875 228.417969 C 492.601562 228.417969 549.488281 285.304688 549.488281 355.222656 L 549.488281 500.410156 C 549.488281 514.875 537.730469 526.636719 522.480469 526.636719 C 508.011719 526.636719 496.242188 514.875 496.242188 500.410156 L 496.242188 355.257812 C 496.242188 348.429688 490.710938 342.902344 483.886719 342.902344 C 477.058594 342.902344 471.527344 348.429688 471.527344 355.257812 L 471.527344 770.984375 C 471.527344 777.804688 477.058594 783.34375 483.886719 783.34375 C 490.710938 783.34375 496.242188 777.804688 496.242188 770.984375 L 496.242188 543.933594 C 504.074219 548.640625 513.3125 551.351562 523.261719 551.351562 C 532.863281 551.351562 541.855469 548.679688 549.535156 544.042969 L 549.535156 770.984375 C 549.535156 777.804688 555.066406 783.34375 561.894531 783.34375 C 568.714844 783.34375 574.25 777.804688 574.25 770.984375 L 574.25 355.257812 C 574.25 354.898438 574.222656 354.550781 574.195312 354.199219 C 573.957031 318.308594 561.175781 285.335938 540.015625 259.464844 C 563.078125 239.398438 592.246094 228.417969 623.117188 228.417969 L 658.449219 228.417969 C 728.378906 228.417969 785.269531 285.304688 785.269531 355.222656 L 785.269531 500.410156 C 785.269531 514.875 773.503906 526.636719 758.261719 526.636719 C 743.789062 526.636719 732.03125 514.875 732.03125 500.410156 L 732.03125 355.257812 C 732.03125 348.429688 726.492188 342.902344 719.671875 342.902344 C 712.847656 342.902344 707.308594 348.429688 707.308594 355.257812 L 707.308594 770.984375 C 707.308594 777.804688 712.847656 783.34375 719.671875 783.34375 C 726.492188 783.34375 732.03125 777.804688 732.03125 770.984375 L 732.03125 543.933594 C 739.855469 548.640625 749.09375 551.351562 759.039062 551.351562 C 787.128906 551.351562 809.984375 528.503906 809.984375 500.410156 L 809.984375 355.222656 C 809.984375 285.960938 763.261719 227.402344 699.671875 209.40625 " fill-opacity="1" fill-rule="nonzero"/>
  <path fill="var(--fill)" d="M 640.78125 515.503906 C 633.960938 515.503906 628.421875 521.035156 628.421875 527.863281 L 628.421875 770.984375 C 628.421875 777.804688 633.960938 783.34375 640.78125 783.34375 C 647.605469 783.34375 653.136719 777.804688 653.136719 770.984375 L 653.136719 527.863281 C 653.136719 521.035156 647.605469 515.503906 640.78125 515.503906 " fill-opacity="1" fill-rule="nonzero"/>
  <path fill="var(--fill)" d="M 169.230469 515.503906 C 162.402344 515.503906 156.871094 521.035156 156.871094 527.863281 L 156.871094 770.984375 C 156.871094 777.804688 162.402344 783.34375 169.230469 783.34375 C 176.050781 783.34375 181.585938 777.804688 181.585938 770.984375 L 181.585938 527.863281 C 181.585938 521.035156 176.050781 515.503906 169.230469 515.503906 " fill-opacity="1" fill-rule="nonzero"/>
  <path fill="#d84e4e" d="M 207.808594 313.046875 L 204.765625 371.433594 L 147.773438 374.472656 Z M 207.808594 313.046875 " fill-opacity="1" fill-rule="nonzero"/>
  <g clip-path="url(#eb44f61327)">
    <path fill="#c74343" d="M 205.90625 317.386719 L 203.171875 369.84375 L 151.96875 372.574219 L 205.90625 317.386719 M 209.710938 308.707031 L 143.578125 376.371094 L 206.359375 373.023438 Z M 209.710938 308.707031 " fill-opacity="1" fill-rule="nonzero"/>
  </g>
  <path fill="#e26666" d="M 204.542969 371.351562 L 176.929688 343.757812 L 207.8125 313.636719 L 204.769531 371.351562 Z M 204.542969 371.351562 " fill-opacity="1" fill-rule="nonzero"/>
  <path fill="#c74343" d="M 205.914062 317.828125 L 203.289062 367.730469 L 179.316406 343.777344 L 205.914062 317.828125 M 209.710938 309.449219 L 174.550781 343.746094 L 203.851562 373.023438 L 206.359375 373.023438 Z M 209.710938 309.449219 " fill-opacity="1" fill-rule="nonzero"/>
  <path fill="#ed7e7e" d="M 140.902344 374.699219 C 135.683594 374.699219 131.570312 373.230469 128.683594 370.34375 C 118.339844 360.003906 126.742188 334.785156 147.421875 314.121094 C 161.660156 299.886719 178.535156 291.042969 191.453125 291.042969 C 196.671875 291.042969 200.785156 292.511719 203.675781 295.398438 C 214.019531 305.738281 205.613281 330.957031 184.9375 351.621094 C 170.695312 365.855469 153.824219 374.699219 140.902344 374.699219 Z M 140.902344 374.699219 " fill-opacity="1" fill-rule="nonzero"/>
  <g clip-path="url(#51850b8f02)">
    <path fill="#c74343" d="M 191.453125 292.71875 C 196.210938 292.71875 199.925781 294.019531 202.488281 296.582031 C 212.015625 306.101562 203.4375 330.765625 183.75 350.433594 C 170.027344 364.15625 153.203125 373.023438 140.902344 373.023438 C 136.144531 373.023438 132.429688 371.722656 129.863281 369.160156 C 120.335938 359.636719 128.917969 334.976562 148.601562 315.308594 C 162.332031 301.585938 179.15625 292.71875 191.453125 292.71875 M 191.453125 289.371094 C 178.605469 289.371094 161.214844 297.96875 146.234375 312.9375 C 124.871094 334.285156 116.484375 360.515625 127.496094 371.527344 C 130.785156 374.8125 135.433594 376.371094 140.902344 376.371094 C 153.753906 376.371094 171.140625 367.773438 186.121094 352.804688 C 207.484375 331.457031 215.875 305.226562 204.859375 294.214844 C 201.574219 290.929688 196.925781 289.371094 191.453125 289.371094 Z M 191.453125 289.371094 " fill-opacity="1" fill-rule="nonzero"/>
  </g>
  <path fill="#f7a3a3" d="M 133.28125 342.722656 L 124.320312 354.492188 L 124.320312 333.335938 L 134.023438 317.175781 L 150.425781 300.785156 L 169.921875 291.042969 L 188.925781 291.042969 L 179.898438 300.0625 L 204.472656 309.269531 L 174.144531 318.363281 L 183.511719 349.949219 L 151.664062 337.316406 L 142.578125 370.597656 Z M 133.28125 342.722656 " fill-opacity="1" fill-rule="nonzero"/>
  <g clip-path="url(#d7f19b3bd3)">
    <path fill="#c74343" d="M 184.882812 292.71875 L 180.554688 297.042969 L 176.878906 300.71875 L 181.746094 302.542969 L 199.230469 309.09375 L 175.261719 316.28125 L 172.066406 317.238281 L 173.011719 320.4375 L 180.925781 347.121094 L 154.015625 336.453125 L 150.539062 335.074219 L 149.554688 338.683594 L 142.417969 364.828125 L 135.867188 345.195312 L 133.867188 339.1875 L 130.027344 344.230469 L 125.996094 349.527344 L 125.996094 333.796875 L 135.351562 318.214844 L 151.417969 302.160156 L 170.316406 292.71875 L 184.882812 292.71875 M 192.96875 289.371094 L 169.527344 289.371094 L 149.4375 299.410156 L 132.695312 316.140625 L 122.648438 332.871094 L 122.648438 359.453125 L 132.695312 346.253906 L 142.738281 376.371094 L 152.785156 339.5625 L 186.097656 352.773438 L 176.222656 319.488281 L 209.710938 309.449219 L 182.921875 299.410156 Z M 192.96875 289.371094 " fill-opacity="1" fill-rule="nonzero"/>
  </g>
  <path fill="#ed7e7e" d="M 124.664062 332.765625 L 134.023438 317.175781 L 150.425781 300.785156 L 169.375 291.320312 L 181.125 299.679688 L 174.785156 318.515625 L 151.945312 338.082031 L 133.308594 344.289062 Z M 124.664062 332.765625 " fill-opacity="1" fill-rule="nonzero"/>
  <g clip-path="url(#2e9b682315)">
    <path fill="#c74343" d="M 169.222656 293.261719 L 179.140625 300.324219 L 173.34375 317.546875 L 151.105469 336.59375 L 133.925781 342.316406 L 126.679688 332.664062 L 135.355469 318.214844 L 151.421875 302.160156 L 169.222656 293.261719 M 169.527344 289.371094 L 149.4375 299.410156 L 132.695312 316.140625 L 122.648438 332.871094 L 132.695312 346.253906 L 152.785156 339.5625 L 176.222656 319.488281 L 183.109375 299.039062 Z M 169.527344 289.371094 " fill-opacity="1" fill-rule="nonzero"/>
  </g>
  <g clip-path="url(#3d4642677d)">
    <g clip-path="url(#b7e3c739b4)">
      <g clip-path="url(#30efe67efc)">
        <g clip-path="url(#c4db3707a8)">
          <path fill="#d84e4e" d="M 448.628906 347.375 L 405.917969 387.304688 L 362.773438 349.9375 Z M 448.628906 347.375 " fill-opacity="1" fill-rule="nonzero"/>
        </g>
      </g>
    </g>
  </g>
  <g clip-path="url(#2cfd9cc039)">
    <g clip-path="url(#23b5381994)">
      <g clip-path="url(#87cd0533b4)">
        <g clip-path="url(#1193b1c109)">
          <path fill="#c74343" d="M 444.246094 349.179688 L 405.875 385.050781 L 367.113281 351.480469 L 444.246094 349.179688 M 453.007812 345.570312 L 358.433594 348.390625 L 405.960938 389.554688 Z M 453.007812 345.570312 " fill-opacity="1" fill-rule="nonzero"/>
        </g>
      </g>
    </g>
  </g>
  <g clip-path="url(#91e321492e)">
    <g clip-path="url(#0a9b2e44a9)">
      <g clip-path="url(#4631d7d19d)">
        <g clip-path="url(#aae6f45e9d)">
          <path fill="#e26666" d="M 405.8125 387.089844 L 405.082031 348.058594 L 448.222656 347.804688 L 405.976562 387.246094 Z M 405.8125 387.089844 " fill-opacity="1" fill-rule="nonzero"/>
        </g>
      </g>
    </g>
  </g>
  <g clip-path="url(#d6a14d5721)">
    <g clip-path="url(#5537de7241)">
      <g clip-path="url(#a25c10e0b5)">
        <g clip-path="url(#73c45a3aa1)">
          <path fill="#c74343" d="M 443.945312 349.503906 L 407.421875 383.609375 L 406.785156 349.726562 L 443.945312 349.503906 M 452.492188 346.101562 L 403.375 346.398438 L 404.152344 387.8125 L 405.960938 389.554688 Z M 452.492188 346.101562 " fill-opacity="1" fill-rule="nonzero"/>
        </g>
      </g>
    </g>
  </g>
  <g clip-path="url(#5b2b2a556b)">
    <g clip-path="url(#8c1f98d1e0)">
      <g clip-path="url(#254230a632)">
        <g clip-path="url(#ba306427cf)">
          <path fill="#ed7e7e" d="M 357.671875 345.332031 C 353.914062 341.710938 351.96875 337.800781 351.894531 333.71875 C 351.621094 319.09375 375.175781 306.769531 404.402344 306.242188 C 424.535156 305.875 442.820312 311.21875 452.121094 320.183594 C 455.878906 323.804688 457.824219 327.714844 457.898438 331.800781 C 458.171875 346.421875 434.617188 358.746094 405.390625 359.273438 C 385.257812 359.640625 366.972656 354.296875 357.671875 345.332031 Z M 357.671875 345.332031 " fill-opacity="1" fill-rule="nonzero"/>
        </g>
      </g>
    </g>
  </g>
  <g clip-path="url(#dd71a80828)">
    <g clip-path="url(#2bec5ba426)">
      <g clip-path="url(#e6dd15be57)">
        <g clip-path="url(#05f4fd603a)">
          <path fill="#c74343" d="M 450.960938 321.386719 C 454.386719 324.691406 456.15625 328.203125 456.222656 331.828125 C 456.476562 345.296875 433.183594 357.101562 405.359375 357.601562 C 385.953125 357.953125 367.6875 352.664062 358.832031 344.128906 C 355.40625 340.828125 353.632812 337.308594 353.566406 333.683594 C 353.316406 320.214844 376.605469 308.414062 404.429688 307.914062 C 423.839844 307.5625 442.105469 312.851562 450.960938 321.386719 M 453.28125 318.980469 C 444.03125 310.0625 425.546875 304.183594 404.371094 304.566406 C 374.171875 305.109375 349.929688 318.175781 350.21875 333.746094 C 350.304688 338.394531 352.570312 342.742188 356.511719 346.539062 C 365.761719 355.453125 384.246094 361.332031 405.421875 360.949219 C 435.621094 360.40625 459.863281 347.339844 459.574219 331.773438 C 459.484375 327.125 457.222656 322.777344 453.28125 318.980469 Z M 453.28125 318.980469 " fill-opacity="1" fill-rule="nonzero"/>
        </g>
      </g>
    </g>
  </g>
  <g clip-path="url(#cb1bedbc78)">
    <g clip-path="url(#dd37f59294)">
      <g clip-path="url(#e253f946aa)">
        <g clip-path="url(#c44ff2a76f)">
          <path fill="#f7a3a3" d="M 374.371094 317.019531 L 359.757812 319.277344 L 374.4375 304.046875 L 392.636719 299.144531 L 415.820312 298.726562 L 436.617188 305.242188 L 450.300781 318.429688 L 437.542969 318.65625 L 448.84375 342.339844 L 420.699219 327.839844 L 405.523438 357.082031 L 391.359375 325.886719 L 361.722656 343.542969 Z M 374.371094 317.019531 " fill-opacity="1" fill-rule="nonzero"/>
        </g>
      </g>
    </g>
  </g>
  <g clip-path="url(#b4a528640c)">
    <g clip-path="url(#6b46369e44)">
      <g clip-path="url(#c5406bc1af)">
        <g clip-path="url(#b5c5ed3222)">
          <path fill="#c74343" d="M 446.230469 316.828125 L 440.109375 316.9375 L 434.914062 317.03125 L 437.152344 321.726562 L 445.195312 338.578125 L 422.949219 327.117188 L 419.984375 325.585938 L 418.445312 328.546875 L 405.625 353.253906 L 393.65625 326.894531 L 392.105469 323.488281 L 388.890625 325.40625 L 365.613281 339.277344 L 374.519531 320.597656 L 377.246094 314.882812 L 370.984375 315.851562 L 364.40625 316.867188 L 375.320312 305.539062 L 392.871094 300.8125 L 415.582031 300.402344 L 435.742188 306.71875 L 446.230469 316.828125 M 454.371094 320.027344 L 437.496094 303.761719 L 416.0625 297.046875 L 392.398438 297.472656 L 373.554688 302.546875 L 355.105469 321.6875 L 371.5 319.15625 L 357.832031 347.8125 L 390.609375 328.28125 L 405.425781 360.910156 L 421.417969 330.09375 L 452.492188 346.101562 L 440.171875 320.285156 Z M 454.371094 320.027344 " fill-opacity="1" fill-rule="nonzero"/>
        </g>
      </g>
    </g>
  </g>
  <g clip-path="url(#ec8bf5338b)">
    <g clip-path="url(#01ac7b9ab2)">
      <g clip-path="url(#b22da9ff5b)">
        <g clip-path="url(#b1c416034c)">
          <path fill="#ed7e7e" d="M 375.078125 303.875 L 392.636719 299.144531 L 415.820312 298.726562 L 436.035156 305.058594 L 438.691406 319.234375 L 421.054688 328.394531 L 391.03125 326.632812 L 373.308594 318.167969 Z M 375.078125 303.875 " fill-opacity="1" fill-rule="nonzero"/>
        </g>
      </g>
    </g>
  </g>
  <g clip-path="url(#f821b6f118)">
    <g clip-path="url(#07e3c6db96)">
      <g clip-path="url(#f13fefbb2c)">
        <g clip-path="url(#af64d63149)">
          <path fill="#c74343" d="M 434.574219 306.351562 L 436.816406 318.320312 L 420.691406 326.695312 L 391.457031 324.976562 L 375.117188 317.175781 L 376.601562 305.199219 L 392.875 300.816406 L 415.582031 300.40625 L 434.574219 306.351562 M 437.496094 303.761719 L 416.0625 297.046875 L 392.398438 297.472656 L 373.554688 302.546875 L 371.5 319.15625 L 390.609375 328.28125 L 421.417969 330.09375 L 440.566406 320.148438 Z M 437.496094 303.761719 " fill-opacity="1" fill-rule="nonzero"/>
        </g>
      </g>
    </g>
  </g>
  <g clip-path="url(#8959661072)">
    <g clip-path="url(#c9ee9083b6)">
      <g clip-path="url(#cc91629ad0)">
        <g clip-path="url(#de62e07e76)">
          <path fill="#d84e4e" d="M 664.535156 373.796875 L 606.082031 372.375 L 601.464844 315.484375 Z M 664.535156 373.796875 " fill-opacity="1" fill-rule="nonzero"/>
        </g>
      </g>
    </g>
  </g>
  <g clip-path="url(#728cb46950)">
    <g clip-path="url(#51844e7494)">
      <g clip-path="url(#ef913acc36)">
        <g clip-path="url(#92efe1b557)">
          <path fill="#c74343" d="M 660.144531 372.015625 L 607.632812 370.738281 L 603.480469 319.625 L 660.144531 372.015625 M 668.925781 375.574219 L 599.453125 311.34375 L 604.539062 374.011719 Z M 668.925781 375.574219 " fill-opacity="1" fill-rule="nonzero"/>
        </g>
      </g>
    </g>
  </g>
  <g clip-path="url(#1035598feb)">
    <g clip-path="url(#d459f5160d)">
      <g clip-path="url(#dadf3c53b8)">
        <g clip-path="url(#f165cd7a53)">
          <path fill="#e26666" d="M 606.160156 372.148438 L 632.976562 343.78125 L 663.945312 373.816406 L 606.167969 372.375 Z M 606.160156 372.148438 " fill-opacity="1" fill-rule="nonzero"/>
        </g>
      </g>
    </g>
  </g>
  <g clip-path="url(#929d82da30)">
    <g clip-path="url(#85e9985481)">
      <g clip-path="url(#80fe2c30e0)">
        <g clip-path="url(#fd194ec41f)">
          <path fill="#c74343" d="M 659.703125 372.035156 L 609.746094 370.792969 L 633.027344 346.164062 L 659.703125 372.035156 M 668.183594 375.597656 L 632.925781 341.402344 L 604.46875 371.5 L 604.539062 374.011719 Z M 668.183594 375.597656 " fill-opacity="1" fill-rule="nonzero"/>
        </g>
      </g>
    </g>
  </g>
  <g clip-path="url(#bf8c5d837b)">
    <g clip-path="url(#a81b2330d4)">
      <g clip-path="url(#59b0d5323c)">
        <g clip-path="url(#9f1ebc6641)">
          <path fill="#ed7e7e" d="M 601.050781 308.625 C 600.90625 303.410156 602.257812 299.257812 605.0625 296.289062 C 615.113281 285.664062 640.554688 293.363281 661.785156 313.460938 C 676.40625 327.300781 685.714844 343.921875 686.074219 356.835938 C 686.21875 362.054688 684.867188 366.207031 682.0625 369.175781 C 672.011719 379.800781 646.570312 372.097656 625.339844 352.003906 C 610.71875 338.160156 601.410156 321.539062 601.050781 308.625 Z M 601.050781 308.625 " fill-opacity="1" fill-rule="nonzero"/>
        </g>
      </g>
    </g>
  </g>
  <g clip-path="url(#f9dbc30a01)">
    <g clip-path="url(#e44060f056)">
      <g clip-path="url(#1d4857a90c)">
        <g clip-path="url(#14568fb011)">
          <path fill="#c74343" d="M 684.402344 356.882812 C 684.535156 361.640625 683.335938 365.386719 680.84375 368.023438 C 671.59375 377.808594 646.699219 369.917969 626.492188 350.785156 C 612.394531 337.445312 603.066406 320.875 602.722656 308.582031 C 602.589844 303.824219 603.789062 300.070312 606.28125 297.4375 C 615.535156 287.648438 640.425781 295.542969 660.632812 314.675781 C 674.730469 328.019531 684.0625 344.589844 684.402344 356.882812 M 687.746094 356.789062 C 687.390625 343.949219 678.316406 326.804688 662.933594 312.242188 C 641.003906 291.480469 614.550781 283.820312 603.851562 295.136719 C 600.65625 298.515625 599.226562 303.203125 599.378906 308.671875 C 599.734375 321.515625 608.808594 338.660156 624.191406 353.222656 C 646.121094 373.984375 672.574219 381.640625 683.273438 370.328125 C 686.46875 366.949219 687.898438 362.261719 687.746094 356.789062 Z M 687.746094 356.789062 " fill-opacity="1" fill-rule="nonzero"/>
        </g>
      </g>
    </g>
  </g>
  <g clip-path="url(#463acb4ca4)">
    <g clip-path="url(#c0df182a30)">
      <g clip-path="url(#348a27e5bf)">
        <g clip-path="url(#c9259f9928)">
          <path fill="#f7a3a3" d="M 632.804688 300.117188 L 620.792969 291.492188 L 641.9375 290.90625 L 658.359375 300.152344 L 675.199219 316.097656 L 685.476562 335.316406 L 686.003906 354.308594 L 676.738281 345.535156 L 668.214844 370.355469 L 658.285156 340.292969 L 626.972656 350.53125 L 638.714844 318.34375 L 605.195312 310.1875 Z M 632.804688 300.117188 " fill-opacity="1" fill-rule="nonzero"/>
        </g>
      </g>
    </g>
  </g>
  <g clip-path="url(#9b3d5c1fc8)">
    <g clip-path="url(#e3e141a134)">
      <g clip-path="url(#3a3808207a)">
        <g clip-path="url(#929a169fc2)">
          <path fill="#c74343" d="M 684.21875 350.316406 L 679.773438 346.109375 L 676 342.535156 L 674.3125 347.453125 L 668.246094 365.113281 L 660.398438 341.351562 L 659.351562 338.183594 L 656.183594 339.21875 L 629.726562 347.867188 L 639.648438 320.675781 L 640.929688 317.15625 L 637.292969 316.273438 L 610.960938 309.867188 L 630.402344 302.773438 L 636.351562 300.605469 L 631.203125 296.910156 L 625.796875 293.027344 L 641.523438 292.589844 L 657.359375 301.511719 L 673.851562 317.125 L 683.816406 335.757812 L 684.21875 350.316406 M 687.789062 358.304688 L 687.140625 334.875 L 676.546875 315.066406 L 659.359375 298.796875 L 642.355469 289.21875 L 615.785156 289.953125 L 629.253906 299.628906 L 599.429688 310.507812 L 636.5 319.527344 L 624.21875 353.191406 L 657.222656 342.402344 L 668.183594 375.597656 L 677.476562 348.539062 Z M 687.789062 358.304688 " fill-opacity="1" fill-rule="nonzero"/>
        </g>
      </g>
    </g>
  </g>
  <g clip-path="url(#c09467d7cf)">
    <g clip-path="url(#334360b4ca)">
      <g clip-path="url(#050342170f)">
        <g clip-path="url(#2034ba2250)">
          <path fill="#ed7e7e" d="M 642.515625 291.230469 L 658.359375 300.152344 L 675.199219 316.097656 L 685.1875 334.777344 L 677.15625 346.75 L 658.152344 340.9375 L 637.960938 318.648438 L 631.238281 300.191406 Z M 642.515625 291.230469 " fill-opacity="1" fill-rule="nonzero"/>
        </g>
      </g>
    </g>
  </g>
  <g clip-path="url(#1437d7ea4d)">
    <g clip-path="url(#c78f97bd3f)">
      <g clip-path="url(#8bd71c1178)">
        <g clip-path="url(#44ab9a8559)">
          <path fill="#c74343" d="M 683.242188 334.675781 L 676.457031 344.785156 L 659.082031 339.46875 L 639.421875 317.765625 L 633.226562 300.753906 L 642.675781 293.242188 L 657.359375 301.515625 L 673.851562 317.128906 L 683.242188 334.675781 M 687.140625 334.875 L 676.546875 315.066406 L 659.359375 298.796875 L 642.355469 289.21875 L 629.253906 299.628906 L 636.5 319.527344 L 657.222656 342.402344 L 677.851562 348.71875 Z M 687.140625 334.875 " fill-opacity="1" fill-rule="nonzero"/>
        </g>
      </g>
    </g>
  </g>
</svg>