<svg xmlns="http://www.w3.org/2000/svg"
  xmlns:xlink="http://www.w3.org/1999/xlink" width="1080" zoomAndPan="magnify" viewBox="0 0 810 809.999993" height="1080" preserveAspectRatio="xMidYMid meet" version="1.0">
  <defs>
    <clipPath id="a4c2db3b0a">
      <path d="M 345 81 L 810 81 L 810 734.101562 L 345 734.101562 Z M 345 81 " clip-rule="nonzero"/>
    </clipPath>
    <clipPath id="a77836c88b">
      <path d="M 5 75.601562 L 427 75.601562 L 427 734.101562 L 5 734.101562 Z M 5 75.601562 " clip-rule="nonzero"/>
    </clipPath>
    <clipPath id="92db13ad06">
      <path d="M 163 308 L 232 308 L 232 340 L 163 340 Z M 163 308 " clip-rule="nonzero"/>
    </clipPath>
    <clipPath id="c5fa8fd611">
      <path d="M 192.316406 245.386719 L 249.015625 300.039062 L 201.648438 349.179688 L 144.949219 294.527344 Z M 192.316406 245.386719 " clip-rule="nonzero"/>
    </clipPath>
    <clipPath id="c609833347">
      <path d="M 192.316406 245.386719 L 249.015625 300.039062 L 201.648438 349.179688 L 144.949219 294.527344 Z M 192.316406 245.386719 " clip-rule="nonzero"/>
    </clipPath>
    <clipPath id="83ef27e644">
      <path d="M 192.316406 245.386719 L 249.015625 300.039062 L 201.648438 349.179688 L 144.949219 294.527344 Z M 192.316406 245.386719 " clip-rule="nonzero"/>
    </clipPath>
    <clipPath id="60e2f64bad">
      <path d="M 160 307 L 235 307 L 235 342 L 160 342 Z M 160 307 " clip-rule="nonzero"/>
    </clipPath>
    <clipPath id="1a38667664">
      <path d="M 192.316406 245.386719 L 249.015625 300.039062 L 201.648438 349.179688 L 144.949219 294.527344 Z M 192.316406 245.386719 " clip-rule="nonzero"/>
    </clipPath>
    <clipPath id="a313bdbb07">
      <path d="M 192.316406 245.386719 L 249.015625 300.039062 L 201.648438 349.179688 L 144.949219 294.527344 Z M 192.316406 245.386719 " clip-rule="nonzero"/>
    </clipPath>
    <clipPath id="85fdeb46a0">
      <path d="M 192.316406 245.386719 L 249.015625 300.039062 L 201.648438 349.179688 L 144.949219 294.527344 Z M 192.316406 245.386719 " clip-rule="nonzero"/>
    </clipPath>
    <clipPath id="1c41477e2a">
      <path d="M 197 308 L 231 308 L 231 340 L 197 340 Z M 197 308 " clip-rule="nonzero"/>
    </clipPath>
    <clipPath id="192d02eb8c">
      <path d="M 192.316406 245.386719 L 249.015625 300.039062 L 201.648438 349.179688 L 144.949219 294.527344 Z M 192.316406 245.386719 " clip-rule="nonzero"/>
    </clipPath>
    <clipPath id="ac8c87f174">
      <path d="M 192.316406 245.386719 L 249.015625 300.039062 L 201.648438 349.179688 L 144.949219 294.527344 Z M 192.316406 245.386719 " clip-rule="nonzero"/>
    </clipPath>
    <clipPath id="20db537030">
      <path d="M 192.316406 245.386719 L 249.015625 300.039062 L 201.648438 349.179688 L 144.949219 294.527344 Z M 192.316406 245.386719 " clip-rule="nonzero"/>
    </clipPath>
    <clipPath id="0b6243a72b">
      <path d="M 195 307 L 235 307 L 235 342 L 195 342 Z M 195 307 " clip-rule="nonzero"/>
    </clipPath>
    <clipPath id="5935e7985f">
      <path d="M 192.316406 245.386719 L 249.015625 300.039062 L 201.648438 349.179688 L 144.949219 294.527344 Z M 192.316406 245.386719 " clip-rule="nonzero"/>
    </clipPath>
    <clipPath id="3c5516bda2">
      <path d="M 192.316406 245.386719 L 249.015625 300.039062 L 201.648438 349.179688 L 144.949219 294.527344 Z M 192.316406 245.386719 " clip-rule="nonzero"/>
    </clipPath>
    <clipPath id="c41f009eba">
      <path d="M 192.316406 245.386719 L 249.015625 300.039062 L 201.648438 349.179688 L 144.949219 294.527344 Z M 192.316406 245.386719 " clip-rule="nonzero"/>
    </clipPath>
    <clipPath id="76cd84a248">
      <path d="M 155 276 L 239 276 L 239 318 L 155 318 Z M 155 276 " clip-rule="nonzero"/>
    </clipPath>
    <clipPath id="25c1007bae">
      <path d="M 192.316406 245.386719 L 249.015625 300.039062 L 201.648438 349.179688 L 144.949219 294.527344 Z M 192.316406 245.386719 " clip-rule="nonzero"/>
    </clipPath>
    <clipPath id="e54b3366ce">
      <path d="M 192.316406 245.386719 L 249.015625 300.039062 L 201.648438 349.179688 L 144.949219 294.527344 Z M 192.316406 245.386719 " clip-rule="nonzero"/>
    </clipPath>
    <clipPath id="127fffa3c9">
      <path d="M 192.316406 245.386719 L 249.015625 300.039062 L 201.648438 349.179688 L 144.949219 294.527344 Z M 192.316406 245.386719 " clip-rule="nonzero"/>
    </clipPath>
    <clipPath id="5281f14853">
      <path d="M 154 275 L 240 275 L 240 320 L 154 320 Z M 154 275 " clip-rule="nonzero"/>
    </clipPath>
    <clipPath id="a54cee3e31">
      <path d="M 192.316406 245.386719 L 249.015625 300.039062 L 201.648438 349.179688 L 144.949219 294.527344 Z M 192.316406 245.386719 " clip-rule="nonzero"/>
    </clipPath>
    <clipPath id="eb31e215db">
      <path d="M 192.316406 245.386719 L 249.015625 300.039062 L 201.648438 349.179688 L 144.949219 294.527344 Z M 192.316406 245.386719 " clip-rule="nonzero"/>
    </clipPath>
    <clipPath id="db193dc15c">
      <path d="M 192.316406 245.386719 L 249.015625 300.039062 L 201.648438 349.179688 L 144.949219 294.527344 Z M 192.316406 245.386719 " clip-rule="nonzero"/>
    </clipPath>
    <clipPath id="3a0aaa13d6">
      <path d="M 161 270 L 233 270 L 233 317 L 161 317 Z M 161 270 " clip-rule="nonzero"/>
    </clipPath>
    <clipPath id="e99d79e17c">
      <path d="M 192.316406 245.386719 L 249.015625 300.039062 L 201.648438 349.179688 L 144.949219 294.527344 Z M 192.316406 245.386719 " clip-rule="nonzero"/>
    </clipPath>
    <clipPath id="451df624f9">
      <path d="M 192.316406 245.386719 L 249.015625 300.039062 L 201.648438 349.179688 L 144.949219 294.527344 Z M 192.316406 245.386719 " clip-rule="nonzero"/>
    </clipPath>
    <clipPath id="2ef9ddfc2c">
      <path d="M 192.316406 245.386719 L 249.015625 300.039062 L 201.648438 349.179688 L 144.949219 294.527344 Z M 192.316406 245.386719 " clip-rule="nonzero"/>
    </clipPath>
    <clipPath id="0cf63dde85">
      <path d="M 157 269 L 236 269 L 236 320 L 157 320 Z M 157 269 " clip-rule="nonzero"/>
    </clipPath>
    <clipPath id="7063ef9ebc">
      <path d="M 192.316406 245.386719 L 249.015625 300.039062 L 201.648438 349.179688 L 144.949219 294.527344 Z M 192.316406 245.386719 " clip-rule="nonzero"/>
    </clipPath>
    <clipPath id="266bb3e1ec">
      <path d="M 192.316406 245.386719 L 249.015625 300.039062 L 201.648438 349.179688 L 144.949219 294.527344 Z M 192.316406 245.386719 " clip-rule="nonzero"/>
    </clipPath>
    <clipPath id="31e6d0cdcc">
      <path d="M 192.316406 245.386719 L 249.015625 300.039062 L 201.648438 349.179688 L 144.949219 294.527344 Z M 192.316406 245.386719 " clip-rule="nonzero"/>
    </clipPath>
    <clipPath id="aae3332cc6">
      <path d="M 172 270 L 224 270 L 224 294 L 172 294 Z M 172 270 " clip-rule="nonzero"/>
    </clipPath>
    <clipPath id="b0f6742b7d">
      <path d="M 192.316406 245.386719 L 249.015625 300.039062 L 201.648438 349.179688 L 144.949219 294.527344 Z M 192.316406 245.386719 " clip-rule="nonzero"/>
    </clipPath>
    <clipPath id="7b075135eb">
      <path d="M 192.316406 245.386719 L 249.015625 300.039062 L 201.648438 349.179688 L 144.949219 294.527344 Z M 192.316406 245.386719 " clip-rule="nonzero"/>
    </clipPath>
    <clipPath id="998901451e">
      <path d="M 192.316406 245.386719 L 249.015625 300.039062 L 201.648438 349.179688 L 144.949219 294.527344 Z M 192.316406 245.386719 " clip-rule="nonzero"/>
    </clipPath>
    <clipPath id="9a023c984c">
      <path d="M 170 269 L 225 269 L 225 296 L 170 296 Z M 170 269 " clip-rule="nonzero"/>
    </clipPath>
    <clipPath id="c71be99ee6">
      <path d="M 192.316406 245.386719 L 249.015625 300.039062 L 201.648438 349.179688 L 144.949219 294.527344 Z M 192.316406 245.386719 " clip-rule="nonzero"/>
    </clipPath>
    <clipPath id="69cbd1541a">
      <path d="M 192.316406 245.386719 L 249.015625 300.039062 L 201.648438 349.179688 L 144.949219 294.527344 Z M 192.316406 245.386719 " clip-rule="nonzero"/>
    </clipPath>
    <clipPath id="92a8dfd650">
      <path d="M 192.316406 245.386719 L 249.015625 300.039062 L 201.648438 349.179688 L 144.949219 294.527344 Z M 192.316406 245.386719 " clip-rule="nonzero"/>
    </clipPath>
  </defs>
  <g clip-path="url(#a4c2db3b0a)">
    <path fill="var(--fill)" d="M 796.457031 81.753906 L 358.703125 81.753906 C 351.253906 81.753906 345.160156 87.675781 345.160156 95.292969 L 345.160156 265.257812 L 359.464844 282.9375 L 372.160156 287 L 372.160156 108.828125 L 782.914062 108.828125 L 782.914062 460.855469 L 372.246094 460.855469 L 372.246094 437.082031 C 367.929688 436.574219 363.609375 435.476562 359.378906 434.121094 L 345.160156 429.554688 L 345.160156 474.476562 C 345.160156 481.921875 351.253906 488.011719 358.703125 488.011719 L 487.523438 488.011719 L 430.222656 717.199219 C 428.445312 724.476562 432.847656 731.75 440.039062 733.613281 C 441.140625 733.867188 442.242188 734.035156 443.339844 734.035156 C 449.4375 734.035156 454.9375 729.890625 456.460938 723.800781 L 488.960938 593.933594 L 666.28125 593.933594 L 698.785156 723.800781 C 700.308594 729.976562 705.808594 734.035156 711.902344 734.035156 C 713.003906 734.035156 714.101562 733.867188 715.203125 733.613281 C 722.484375 731.835938 726.882812 724.476562 725.023438 717.199219 L 667.722656 488.011719 L 796.457031 488.011719 C 803.90625 488.011719 810 481.921875 810 474.476562 L 810 95.460938 C 810 87.761719 803.90625 81.753906 796.457031 81.753906 Z M 495.734375 566.695312 L 515.453125 487.84375 L 639.789062 487.84375 L 659.511719 566.695312 Z M 495.734375 566.695312 " fill-opacity="1" fill-rule="nonzero"/>
  </g>
  <path fill="var(--fill)" d="M 435.46875 199.015625 L 719.691406 199.015625 C 727.136719 199.015625 733.230469 192.921875 733.230469 185.476562 C 733.230469 178.03125 727.222656 171.941406 719.691406 171.941406 L 435.46875 171.941406 C 428.023438 171.941406 421.929688 178.03125 421.929688 185.476562 C 422.011719 193.007812 428.023438 199.015625 435.46875 199.015625 Z M 435.46875 199.015625 " fill-opacity="1" fill-rule="nonzero"/>
  <path fill="var(--fill)" d="M 435.46875 298.335938 L 719.691406 298.335938 C 727.136719 298.335938 733.230469 292.246094 733.230469 284.800781 C 733.230469 277.355469 727.222656 271.265625 719.691406 271.265625 L 435.46875 271.265625 C 428.023438 271.265625 421.929688 277.355469 421.929688 284.800781 C 422.011719 292.246094 428.023438 298.335938 435.46875 298.335938 Z M 435.46875 298.335938 " fill-opacity="1" fill-rule="nonzero"/>
  <path fill="var(--fill)" d="M 719.773438 370.671875 L 453.414062 370.671875 C 453.160156 376.339844 451.890625 382.261719 450.199219 388.015625 C 449.097656 391.398438 447.742188 394.613281 446.136719 397.742188 L 719.859375 397.742188 C 727.308594 397.742188 733.402344 391.652344 733.402344 384.207031 C 733.316406 376.59375 727.222656 370.671875 719.773438 370.671875 Z M 719.773438 370.671875 " fill-opacity="1" fill-rule="nonzero"/>
  <g clip-path="url(#a77836c88b)">
    <path fill="var(--fill)" d="M 367.84375 408.320312 C 379.183594 412.042969 391.289062 411.195312 401.953125 405.78125 C 412.703125 400.367188 420.660156 391.058594 424.382812 379.554688 C 432 356.035156 419.050781 330.738281 395.605469 323.125 L 343.636719 306.289062 L 300.46875 253.160156 C 287.773438 237.59375 270.929688 226.59375 252.226562 220.925781 C 269.492188 205.695312 280.410156 183.53125 280.410156 158.742188 C 280.410156 112.972656 243.167969 75.664062 197.292969 75.664062 C 151.421875 75.664062 114.179688 112.890625 114.179688 158.742188 C 114.179688 182.9375 124.675781 204.765625 141.261719 219.910156 C 74.566406 238.691406 27.421875 339.539062 9.054688 385.476562 C 0 408.402344 11.171875 434.460938 34.195312 443.683594 C 39.527344 445.796875 45.113281 446.898438 50.785156 446.898438 C 69.234375 446.898438 85.65625 435.8125 92.425781 418.640625 C 97.757812 405.359375 104.105469 391.566406 111.046875 378.371094 L 108.59375 447.234375 L 59.5 675.492188 C 56.792969 688.097656 59.164062 701.042969 66.1875 711.871094 C 73.214844 722.699219 83.960938 730.144531 96.574219 732.851562 C 99.875 733.527344 103.34375 733.953125 106.730469 733.953125 C 129.328125 733.953125 149.136719 717.875 153.789062 696.21875 L 185.867188 565.847656 L 189.507812 685.726562 C 189.507812 712.378906 211.175781 734.035156 237.835938 734.035156 C 264.5 734.035156 286.167969 712.378906 286.167969 685.726562 L 286.167969 451.550781 L 283.457031 374.308594 C 288.789062 380.398438 295.644531 384.96875 303.347656 387.421875 Z M 141.179688 158.660156 C 141.179688 127.777344 166.316406 102.652344 197.210938 102.652344 C 228.101562 102.652344 253.242188 127.777344 253.242188 158.660156 C 253.242188 189.539062 228.101562 214.664062 197.210938 214.664062 C 166.316406 214.664062 141.179688 189.621094 141.179688 158.660156 Z M 278.886719 325.917969 C 275.246094 321.433594 269.070312 319.742188 263.652344 321.769531 C 258.234375 323.800781 254.679688 329.132812 254.847656 334.882812 L 258.996094 451.972656 L 258.996094 685.644531 C 258.996094 697.320312 249.433594 706.878906 237.753906 706.878906 C 226.070312 706.878906 216.507812 697.320312 216.507812 685.21875 L 209.90625 465.847656 C 209.738281 459.078125 204.574219 453.496094 197.800781 452.820312 C 197.292969 452.734375 196.871094 452.734375 196.363281 452.734375 C 190.183594 452.734375 184.769531 456.964844 183.246094 463.054688 L 127.46875 690.042969 C 125.097656 701.210938 113.5 708.738281 102.246094 706.371094 C 96.660156 705.1875 91.917969 701.886719 88.871094 697.148438 C 85.824219 692.410156 84.722656 686.742188 85.910156 681.160156 L 135.253906 451.71875 C 135.421875 450.957031 135.507812 450.113281 135.507812 449.351562 L 139.824219 327.269531 C 139.992188 321.261719 136.269531 315.847656 130.597656 313.988281 C 124.929688 312.125 118.664062 314.15625 115.195312 318.980469 C 97.25 344.273438 79.816406 376.929688 67.117188 408.65625 C 63.5625 417.539062 53.070312 422.109375 44.097656 418.554688 C 35.039062 414.917969 30.554688 404.597656 34.195312 395.542969 C 63.480469 322.023438 112.570312 243.597656 162.761719 243.597656 L 223.617188 243.597656 C 245.371094 243.597656 265.683594 253.242188 279.394531 270.164062 L 325.101562 326.425781 C 326.707031 328.453125 328.910156 329.976562 331.449219 330.738281 L 387.226562 348.84375 C 396.535156 351.890625 401.613281 361.871094 398.652344 371.179688 C 397.214844 375.746094 393.996094 379.46875 389.765625 381.585938 C 385.617188 383.699219 380.792969 384.039062 376.308594 382.601562 L 311.726562 361.703125 C 308.425781 360.601562 305.546875 358.65625 303.433594 355.949219 Z M 278.886719 325.917969 " fill-opacity="1" fill-rule="nonzero"/>
  </g>
  <g clip-path="url(#92db13ad06)">
    <g clip-path="url(#c5fa8fd611)">
      <g clip-path="url(#c609833347)">
        <g clip-path="url(#83ef27e644)">
          <path fill="#d84e4e" d="M 231.164062 308.628906 L 197.660156 339.957031 L 163.855469 310.683594 Z M 231.164062 308.628906 " fill-opacity="1" fill-rule="nonzero"/>
        </g>
      </g>
    </g>
  </g>
  <g clip-path="url(#60e2f64bad)">
    <g clip-path="url(#1a38667664)">
      <g clip-path="url(#a313bdbb07)">
        <g clip-path="url(#85fdeb46a0)">
          <path fill="#c74343" d="M 227.730469 310.046875 L 197.628906 338.191406 L 167.257812 311.890625 L 227.730469 310.046875 M 234.601562 307.210938 L 160.457031 309.472656 L 197.695312 341.722656 Z M 234.601562 307.210938 " fill-opacity="1" fill-rule="nonzero"/>
        </g>
      </g>
    </g>
  </g>
  <g clip-path="url(#1c41477e2a)">
    <g clip-path="url(#192d02eb8c)">
      <g clip-path="url(#ac8c87f174)">
        <g clip-path="url(#20db537030)">
          <path fill="#e26666" d="M 197.582031 339.789062 L 197.027344 309.1875 L 230.847656 308.96875 L 197.707031 339.910156 Z M 197.582031 339.789062 " fill-opacity="1" fill-rule="nonzero"/>
        </g>
      </g>
    </g>
  </g>
  <g clip-path="url(#0b6243a72b)">
    <g clip-path="url(#5935e7985f)">
      <g clip-path="url(#3c5516bda2)">
        <g clip-path="url(#c41f009eba)">
          <path fill="#c74343" d="M 227.496094 310.300781 L 198.84375 337.058594 L 198.363281 310.496094 L 227.496094 310.300781 M 234.195312 307.632812 L 195.691406 307.886719 L 196.277344 340.355469 L 197.695312 341.722656 Z M 234.195312 307.632812 " fill-opacity="1" fill-rule="nonzero"/>
        </g>
      </g>
    </g>
  </g>
  <g clip-path="url(#76cd84a248)">
    <g clip-path="url(#25c1007bae)">
      <g clip-path="url(#e54b3366ce)">
        <g clip-path="url(#127fffa3c9)">
          <path fill="#ed7e7e" d="M 159.859375 307.074219 C 156.914062 304.238281 155.390625 301.171875 155.335938 297.96875 C 155.128906 286.507812 173.601562 276.832031 196.511719 276.402344 C 212.296875 276.105469 226.628906 280.285156 233.917969 287.3125 C 236.863281 290.148438 238.382812 293.210938 238.441406 296.414062 C 238.648438 307.878906 220.175781 317.554688 197.261719 317.980469 C 181.480469 318.277344 167.148438 314.097656 159.859375 307.074219 Z M 159.859375 307.074219 " fill-opacity="1" fill-rule="nonzero"/>
        </g>
      </g>
    </g>
  </g>
  <g clip-path="url(#5281f14853)">
    <g clip-path="url(#a54cee3e31)">
      <g clip-path="url(#eb31e215db)">
        <g clip-path="url(#db193dc15c)">
          <path fill="#c74343" d="M 233.007812 288.253906 C 235.691406 290.84375 237.078125 293.597656 237.128906 296.441406 C 237.320312 306.996094 219.050781 316.261719 197.238281 316.667969 C 182.027344 316.957031 167.707031 312.816406 160.769531 306.128906 C 158.085938 303.542969 156.699219 300.785156 156.644531 297.945312 C 156.457031 287.386719 174.722656 278.121094 196.535156 277.714844 C 211.75 277.429688 226.066406 281.566406 233.007812 288.253906 M 234.828125 286.367188 C 227.578125 279.378906 213.089844 274.78125 196.488281 275.089844 C 172.816406 275.53125 153.804688 285.785156 154.023438 297.992188 C 154.089844 301.636719 155.863281 305.042969 158.949219 308.019531 C 166.195312 315.007812 180.683594 319.605469 197.285156 319.296875 C 220.960938 318.855469 239.972656 308.597656 239.753906 296.390625 C 239.6875 292.75 237.914062 289.339844 234.828125 286.367188 Z M 234.828125 286.367188 " fill-opacity="1" fill-rule="nonzero"/>
        </g>
      </g>
    </g>
  </g>
  <g clip-path="url(#3a0aaa13d6)">
    <g clip-path="url(#e99d79e17c)">
      <g clip-path="url(#451df624f9)">
        <g clip-path="url(#2ef9ddfc2c)">
          <path fill="#f7a3a3" d="M 172.964844 284.867188 L 161.507812 286.644531 L 173.023438 274.695312 L 187.292969 270.84375 L 205.46875 270.503906 L 221.769531 275.601562 L 232.492188 285.9375 L 222.488281 286.121094 L 231.339844 304.683594 L 209.28125 293.328125 L 197.367188 316.261719 L 186.277344 291.8125 L 163.035156 305.671875 Z M 172.964844 284.867188 " fill-opacity="1" fill-rule="nonzero"/>
        </g>
      </g>
    </g>
  </g>
  <g clip-path="url(#0cf63dde85)">
    <g clip-path="url(#7063ef9ebc)">
      <g clip-path="url(#266bb3e1ec)">
        <g clip-path="url(#31e6d0cdcc)">
          <path fill="#c74343" d="M 229.300781 284.683594 L 224.503906 284.773438 L 220.429688 284.847656 L 222.183594 288.527344 L 228.480469 301.734375 L 211.042969 292.761719 L 208.71875 291.5625 L 207.511719 293.886719 L 197.449219 313.261719 L 188.078125 292.601562 L 186.867188 289.933594 L 184.34375 291.4375 L 166.085938 302.324219 L 173.078125 287.671875 L 175.21875 283.191406 L 170.308594 283.953125 L 165.152344 284.753906 L 173.714844 275.867188 L 187.476562 272.152344 L 205.28125 271.820312 L 221.082031 276.761719 L 229.300781 284.683594 M 235.683594 287.1875 L 222.460938 274.445312 L 205.660156 269.1875 L 187.105469 269.535156 L 172.332031 273.523438 L 157.859375 288.539062 L 170.710938 286.546875 L 159.984375 309.019531 L 185.6875 293.691406 L 197.289062 319.265625 L 209.839844 295.09375 L 234.195312 307.632812 L 224.550781 287.394531 Z M 235.683594 287.1875 " fill-opacity="1" fill-rule="nonzero"/>
        </g>
      </g>
    </g>
  </g>
  <g clip-path="url(#aae3332cc6)">
    <g clip-path="url(#b0f6742b7d)">
      <g clip-path="url(#7b075135eb)">
        <g clip-path="url(#998901451e)">
          <path fill="#ed7e7e" d="M 173.523438 274.5625 L 187.292969 270.84375 L 205.46875 270.503906 L 221.3125 275.460938 L 223.386719 286.570312 L 209.558594 293.765625 L 186.023438 292.394531 L 172.128906 285.769531 Z M 173.523438 274.5625 " fill-opacity="1" fill-rule="nonzero"/>
        </g>
      </g>
    </g>
  </g>
  <g clip-path="url(#9a023c984c)">
    <g clip-path="url(#c71be99ee6)">
      <g clip-path="url(#69cbd1541a)">
        <g clip-path="url(#92a8dfd650)">
          <path fill="#c74343" d="M 220.167969 276.476562 L 221.917969 285.855469 L 209.273438 292.433594 L 186.355469 291.097656 L 173.550781 284.992188 L 174.71875 275.597656 L 187.480469 272.15625 L 205.28125 271.824219 L 220.167969 276.476562 M 222.460938 274.445312 L 205.660156 269.1875 L 187.105469 269.535156 L 172.332031 273.523438 L 170.710938 286.546875 L 185.6875 293.691406 L 209.839844 295.09375 L 224.859375 287.289062 Z M 222.460938 274.445312 " fill-opacity="1" fill-rule="nonzero"/>
        </g>
      </g>
    </g>
  </g>
</svg>