<svg xmlns="http://www.w3.org/2000/svg" xmlns:xlink="http://www.w3.org/1999/xlink" width="1080" zoomAndPan="magnify" viewBox="0 0 810 809.999993" height="1080" preserveAspectRatio="xMidYMid meet" version="1.0"><defs><clipPath id="71eb9856bf"><path d="M 13 10 L 794 10 L 794 805 L 13 805 Z M 13 10 " clip-rule="nonzero"/></clipPath><clipPath id="951a1196a4"><path d="M -20.910156 54.628906 L 711.636719 -95.382812 L 890.238281 776.769531 L 157.6875 926.78125 Z M -20.910156 54.628906 " clip-rule="nonzero"/></clipPath><clipPath id="1a737c85f2"><path d="M -20.910156 54.628906 L 711.636719 -95.382812 L 890.238281 776.769531 L 157.6875 926.78125 Z M -20.910156 54.628906 " clip-rule="nonzero"/></clipPath></defs><g clip-path="url(#71eb9856bf)"><g clip-path="url(#951a1196a4)"><g clip-path="url(#1a737c85f2)"><path fill="#21a5f9" d="M 762.675781 786.789062 C 773.699219 742.171875 831.300781 491.679688 754.898438 420.429688 C 732.699219 399.730469 701.433594 395.960938 661.960938 409.257812 C 641.699219 416.074219 622.9375 425.363281 605.777344 435.964844 C 636.539062 355.660156 655.902344 278.859375 658.925781 222.902344 C 662.226562 161.886719 647.320312 124.132812 614.617188 110.707031 C 511.449219 68.324219 359.367188 239.882812 294.617188 321.433594 C 311.980469 278.816406 328.015625 218.082031 292.628906 192.671875 C 257.363281 167.347656 216.738281 191.75 191.136719 212.644531 C 223.859375 156.699219 277.988281 54.351562 257.117188 21.550781 C 251.609375 12.886719 241.914062 9.300781 228.335938 10.890625 C 145.210938 20.59375 33.960938 186.101562 14.632812 215.789062 C 13.09375 218.144531 13.789062 221.28125 16.152344 222.78125 C 18.476562 224.253906 21.546875 223.589844 23.0625 221.296875 C 41.660156 192.980469 151.84375 30 229.515625 20.875 C 239.078125 19.761719 245.328125 21.746094 248.640625 26.929688 C 253.773438 34.984375 257.203125 59.402344 222.515625 132.339844 C 201.351562 176.832031 175.125 220.125 167.292969 232.785156 C 165.789062 235.21875 166.101562 238.492188 168.292969 240.3125 C 170.46875 242.125 173.570312 242.03125 175.648438 240.125 C 176.515625 239.335938 177.570312 238.324219 178.804688 237.132812 C 195.679688 221.09375 246.992188 172.265625 286.757812 200.816406 C 329.65625 231.632812 279.03125 333.65625 268.457031 353.785156 C 266.992188 356.574219 268.046875 359.964844 270.933594 361.390625 C 273.402344 362.617188 276.394531 361.714844 278.03125 359.503906 C 293.648438 338.363281 349 265.683594 414.605469 205.039062 C 495.789062 130.007812 563.605469 100.59375 610.78125 119.96875 C 639.089844 131.589844 651.894531 166.023438 648.851562 222.3125 C 645.710938 280.335938 624.601562 361.386719 591.238281 445.449219 C 550.859375 473.519531 520.835938 507.6875 503.511719 530.171875 C 466.578125 578.054688 444.527344 628.011719 451.066406 648.925781 C 452.515625 653.53125 457.679688 663.707031 474.402344 658.894531 C 486.710938 655.328125 503.21875 637.414062 523.441406 605.648438 C 542.09375 576.367188 562.835938 536.59375 581.875 493.691406 C 588.042969 479.789062 593.90625 465.875 599.449219 452.007812 C 619.027344 438.675781 641.011719 426.890625 665.136719 418.777344 C 700.832031 406.761719 728.714844 409.777344 747.996094 427.773438 C 819.453125 494.394531 763.101562 742.105469 752.816406 784.515625 L 748.046875 777.339844 L 739.667969 782.914062 L 754.074219 804.578125 L 775.734375 790.152344 L 770.160156 781.773438 Z M 572.714844 489.636719 C 529.167969 587.832031 488.898438 644.261719 471.617188 649.261719 C 462.546875 651.894531 461.339844 648.027344 460.683594 645.964844 C 455.894531 630.679688 473.597656 585.488281 511.488281 536.363281 C 526.492188 516.917969 551.230469 488.464844 584.058594 463.222656 C 580.40625 471.992188 576.621094 480.8125 572.714844 489.636719 Z M 572.714844 489.636719 " fill-opacity="1" fill-rule="nonzero"/></g></g></g></svg>