<svg xmlns="http://www.w3.org/2000/svg" xmlns:xlink="http://www.w3.org/1999/xlink" width="1080" zoomAndPan="magnify" viewBox="0 0 810 809.999993" height="1080" preserveAspectRatio="xMidYMid meet" version="1.0"><defs><clipPath id="45b5240650"><path d="M 3.363281 1 L 794 1 L 794 810 L 3.363281 810 Z M 3.363281 1 " clip-rule="nonzero"/></clipPath></defs><g clip-path="url(#45b5240650)"><path fill="#1e9ae0" d="M 651.164062 284.785156 C 643.890625 236.457031 649.902344 190.144531 669.003906 147.050781 C 691.800781 95.632812 732.910156 50.46875 791.226562 12.738281 C 793.941406 10.976562 794.78125 7.375 793.050781 4.644531 C 791.308594 1.863281 787.605469 1.023438 784.859375 2.816406 C 724.554688 41.808594 681.960938 88.71875 658.207031 142.28125 C 638.574219 186.574219 632.144531 234.097656 639.058594 283.589844 C 617.84375 282.347656 593.523438 285.398438 565.976562 295.191406 C 519.355469 311.753906 482.5625 341.550781 454.171875 378.765625 C 405.277344 321.191406 318.019531 287.453125 199.804688 280.792969 C 122.339844 276.433594 52.40625 284.898438 25.90625 288.746094 L 31.785156 281.539062 L 22.640625 274.074219 L 3.363281 297.710938 L 27.003906 317.007812 L 34.46875 307.859375 L 25.679688 300.6875 C 50.03125 297.066406 120.804688 288.128906 199.367188 292.574219 C 281.921875 297.242188 389.136719 318.007812 447.015625 388.539062 C 394.546875 463.386719 373.414062 564.492188 372.992188 649.128906 C 372.636719 718.726562 387.292969 794.460938 420.839844 806.742188 C 426.414062 808.777344 431.988281 809.796875 437.496094 809.796875 C 453.722656 809.796875 469.394531 801.070312 482.855469 784.214844 C 510.082031 750.136719 527.097656 685.050781 527.257812 614.339844 C 527.4375 533.675781 506.640625 456.921875 468.683594 398.21875 C 466.484375 394.824219 464.175781 391.496094 461.75 388.234375 C 489.125 351.617188 524.707031 322.371094 569.949219 306.292969 C 585.171875 300.878906 611.558594 293.785156 641.078125 295.902344 C 657.0625 382.820312 709.496094 446.566406 741.261719 454.515625 C 754.175781 457.746094 764.742188 454.144531 771.042969 444.402344 C 785.167969 422.523438 773.582031 375.546875 745.207031 339.691406 C 731.632812 322.566406 700.914062 291.847656 651.164062 284.785156 Z M 473.628906 776.863281 C 458.585938 795.6875 442.199219 802.007812 424.894531 795.671875 C 414.117188 791.714844 403.757812 774.910156 396.472656 749.574219 C 388.746094 722.699219 384.59375 687.039062 384.789062 649.195312 C 385.191406 567.722656 405.132812 470.625 454.511719 398.347656 C 455.96875 400.402344 457.390625 402.484375 458.761719 404.617188 C 539.78125 529.960938 523.882812 713.976562 473.628906 776.863281 Z M 761.121094 438.019531 C 757.632812 443.414062 752.058594 445.078125 744.125 443.09375 C 716.523438 436.191406 669.019531 376.695312 653.359375 297.339844 C 681.332031 301.832031 711 315.519531 735.964844 347.046875 C 763.175781 381.445312 771.078125 422.601562 761.121094 438.019531 Z M 761.121094 438.019531 " fill-opacity="1" fill-rule="nonzero"/></g></svg>