<svg xmlns="http://www.w3.org/2000/svg" xmlns:xlink="http://www.w3.org/1999/xlink" width="1080" zoomAndPan="magnify" viewBox="0 0 810 809.999993" height="1080" preserveAspectRatio="xMidYMid meet" version="1.0"><defs><clipPath id="bf97c5e6d0"><path d="M 22.414062 212 L 628 212 L 628 804 L 22.414062 804 Z M 22.414062 212 " clip-rule="nonzero"/></clipPath><clipPath id="2da869201a"><path d="M 22.414062 25 L 800.164062 25 L 800.164062 804 L 22.414062 804 Z M 22.414062 25 " clip-rule="nonzero"/></clipPath><clipPath id="2ccc1b4972"><path d="M 22.414062 25 L 800.164062 25 L 800.164062 804 L 22.414062 804 Z M 22.414062 25 " clip-rule="nonzero"/></clipPath><clipPath id="8b2bb94444"><path d="M 291 25 L 800.164062 25 L 800.164062 566 L 291 566 Z M 291 25 " clip-rule="nonzero"/></clipPath></defs><path fill="#ffffff" d="M 588.53125 786.527344 L 66.558594 759.367188 L 39.398438 250.226562 Z M 588.53125 786.527344 " fill-opacity="1" fill-rule="nonzero"/><g clip-path="url(#bf97c5e6d0)"><path fill="#c74343" d="M 549.734375 769.539062 L 80.796875 745.128906 L 56.386719 287.707031 L 549.734375 769.539062 M 627.328125 803.519531 L 22.4375 212.746094 L 52.351562 773.605469 Z M 627.328125 803.519531 " fill-opacity="1" fill-rule="nonzero"/></g><path fill="#ffffff" d="M 67.304688 757.363281 L 313.964844 510.707031 L 583.238281 786.589844 L 67.304688 759.398438 Z M 67.304688 757.363281 " fill-opacity="1" fill-rule="nonzero"/><path fill="#c74343" d="M 545.789062 769.628906 L 99.671875 746.148438 L 313.816406 532.003906 L 545.789062 769.628906 M 620.6875 803.519531 L 314.085938 489.4375 L 52.351562 751.171875 L 52.351562 773.605469 Z M 620.6875 803.519531 " fill-opacity="1" fill-rule="nonzero"/><path fill="#ffffff" d="M 37.394531 188.875 C 37.394531 142.242188 50.496094 105.507812 76.308594 79.695312 C 168.738281 -12.703125 394.191406 62.375 578.902344 247.085938 C 706.148438 374.304688 785.207031 525.035156 785.207031 640.4375 C 785.207031 687.070312 772.105469 723.800781 746.292969 749.617188 C 653.863281 842.015625 428.410156 766.9375 243.699219 582.226562 C 116.453125 455.007812 37.394531 304.277344 37.394531 188.875 Z M 37.394531 188.875 " fill-opacity="1" fill-rule="nonzero"/><g clip-path="url(#2da869201a)"><path fill="#c74343" d="M 770.25 640.4375 C 770.25 682.941406 758.613281 716.113281 735.703125 739.027344 C 650.601562 824.128906 430.117188 747.492188 254.289062 571.636719 C 131.617188 449.027344 52.351562 298.746094 52.351562 188.875 C 52.351562 146.371094 63.984375 113.167969 86.898438 90.253906 C 172.03125 5.152344 392.484375 81.789062 568.3125 257.644531 C 690.984375 380.285156 770.25 530.566406 770.25 640.4375 M 800.164062 640.4375 C 800.164062 525.660156 723.316406 370.324219 589.488281 236.496094 C 398.648438 45.65625 164.164062 -29.277344 65.75 69.105469 C 36.375 98.480469 22.4375 140 22.4375 188.875 C 22.4375 303.652344 99.28125 458.988281 233.109375 592.816406 C 423.953125 783.65625 658.4375 858.589844 756.851562 760.207031 C 786.222656 730.832031 800.164062 689.3125 800.164062 640.4375 Z M 800.164062 640.4375 " fill-opacity="1" fill-rule="nonzero"/></g><path fill="#ffffff" d="M 323.238281 120.765625 L 218.035156 40.75 L 407.140625 40.75 L 551.589844 127.40625 L 698.132812 273.949219 L 785.207031 448.097656 L 785.207031 617.851562 L 704.59375 537.207031 L 622.273438 756.734375 L 541 485.816406 L 258.625 569.484375 L 371.546875 284.984375 L 74.035156 203.832031 Z M 323.238281 120.765625 " fill-opacity="1" fill-rule="nonzero"/><g clip-path="url(#2ccc1b4972)"><path fill="#c74343" d="M 770.25 581.746094 L 698.730469 510.226562 L 682.429688 553.71875 L 623.859375 709.921875 L 559.605469 495.808594 L 551.050781 467.242188 L 522.457031 475.707031 L 283.902344 546.390625 L 379.292969 306.011719 L 391.617188 274.933594 L 359.34375 266.140625 L 125.636719 202.394531 L 301.132812 143.886719 L 354.824219 126 L 309.746094 91.71875 L 262.394531 55.707031 L 403.015625 55.707031 L 542.316406 139.28125 L 685.835938 282.800781 L 770.25 451.628906 L 770.25 581.746094 M 800.164062 653.957031 L 800.164062 444.570312 L 710.425781 265.09375 L 560.863281 115.53125 L 411.300781 25.792969 L 173.675781 25.792969 L 291.648438 115.53125 L 22.4375 205.269531 L 351.476562 295.003906 L 233.378906 592.574219 L 530.949219 504.394531 L 620.6875 803.519531 L 710.425781 564.21875 Z M 800.164062 653.957031 " fill-opacity="1" fill-rule="nonzero"/></g><path fill="#ffffff" d="M 412.226562 43.800781 L 551.589844 127.40625 L 698.132812 273.949219 L 782.753906 443.222656 L 708.003906 548.15625 L 539.625 491.53125 L 364.726562 287.496094 L 309.238281 121.035156 Z M 412.226562 43.800781 " fill-opacity="1" fill-rule="nonzero"/><g clip-path="url(#8b2bb94444)"><path fill="#c74343" d="M 765.375 441.847656 L 702.261719 530.449219 L 548.300781 478.667969 L 378.007812 279.988281 L 326.855469 126.539062 L 413.15625 61.808594 L 542.316406 139.3125 L 685.839844 282.832031 L 765.375 441.847656 M 800.164062 444.570312 L 710.425781 265.09375 L 560.863281 115.53125 L 411.300781 25.792969 L 291.648438 115.53125 L 351.476562 295.003906 L 530.949219 504.394531 L 713.746094 565.894531 Z M 800.164062 444.570312 " fill-opacity="1" fill-rule="nonzero"/></g></svg>