<svg xmlns="http://www.w3.org/2000/svg" xmlns:xlink="http://www.w3.org/1999/xlink" width="1080" zoomAndPan="magnify" viewBox="0 0 810 809.999993" height="1080" preserveAspectRatio="xMidYMid meet" version="1.0"><path fill="#9b1010" d="M 624.859375 818.570312 L 36.640625 773.320312 L -8.605469 185.105469 Z M 624.859375 818.570312 " fill-opacity="1" fill-rule="nonzero"/><path fill="#b71c1c" d="M 308.125 501.835938 L 36.640625 773.320312 L 624.859375 818.570312 Z M 308.125 501.835938 " fill-opacity="1" fill-rule="nonzero"/><path fill="#c62828" d="M 760.503906 773.214844 C 757.449219 776.265625 754.253906 779.171875 750.914062 781.933594 C 747.574219 784.691406 744.09375 787.300781 740.472656 789.761719 C 736.855469 792.21875 733.097656 794.523438 729.210938 796.675781 C 725.320312 798.828125 721.300781 800.824219 717.148438 802.664062 C 713 804.503906 708.722656 806.183594 704.320312 807.707031 C 699.921875 809.230469 695.398438 810.59375 690.757812 811.796875 C 686.117188 813 681.359375 814.042969 676.488281 814.921875 C 671.621094 815.800781 666.640625 816.519531 661.554688 817.074219 C 656.464844 817.628906 651.273438 818.023438 645.980469 818.25 C 640.691406 818.480469 635.300781 818.542969 629.816406 818.445312 C 624.332031 818.347656 618.757812 818.085938 613.09375 817.660156 C 607.429688 817.234375 601.683594 816.644531 595.851562 815.894531 C 590.023438 815.144531 584.117188 814.230469 578.136719 813.15625 C 572.15625 812.082031 566.105469 810.84375 559.988281 809.449219 C 553.871094 808.050781 547.691406 806.496094 541.453125 804.78125 C 535.214844 803.066406 528.917969 801.195312 522.574219 799.167969 C 516.226562 797.140625 509.832031 794.957031 503.394531 792.617188 C 496.953125 790.28125 490.476562 787.792969 483.960938 785.152344 C 477.445312 782.511719 470.902344 779.722656 464.324219 776.785156 C 457.75 773.847656 451.148438 770.765625 444.527344 767.535156 C 437.910156 764.308594 431.273438 760.941406 424.625 757.429688 C 417.972656 753.921875 411.316406 750.273438 404.652344 746.492188 C 397.992188 742.707031 391.332031 738.792969 384.671875 734.742188 C 378.011719 730.695312 371.363281 726.519531 364.722656 722.21875 C 358.082031 717.914062 351.457031 713.488281 344.855469 708.941406 C 338.25 704.394531 331.667969 699.730469 325.113281 694.949219 C 318.5625 690.167969 312.039062 685.277344 305.554688 680.273438 C 299.066406 675.273438 292.621094 670.164062 286.214844 664.953125 C 279.8125 659.738281 273.457031 654.425781 267.148438 649.015625 C 260.84375 643.605469 254.59375 638.105469 248.402344 632.511719 C 242.207031 626.917969 236.078125 621.234375 230.011719 615.472656 C 223.949219 609.707031 217.953125 603.863281 212.03125 597.941406 C 206.109375 592.015625 200.265625 586.023438 194.5 579.957031 C 188.734375 573.894531 183.054688 567.765625 177.460938 561.570312 C 171.863281 555.378906 166.363281 549.128906 160.953125 542.824219 C 155.542969 536.515625 150.230469 530.160156 145.015625 523.757812 C 139.804688 517.351562 134.695312 510.90625 129.691406 504.421875 C 124.691406 497.933594 119.796875 491.414062 115.015625 484.859375 C 110.234375 478.304688 105.570312 471.726562 101.023438 465.121094 C 96.476562 458.515625 92.050781 451.894531 87.75 445.253906 C 83.445312 438.613281 79.269531 431.964844 75.222656 425.304688 C 71.171875 418.644531 67.257812 411.984375 63.472656 405.320312 C 59.691406 398.660156 56.042969 392.003906 52.53125 385.351562 C 49.023438 378.703125 45.652344 372.070312 42.425781 365.449219 C 39.199219 358.828125 36.117188 352.230469 33.175781 345.652344 C 30.238281 339.078125 27.449219 332.53125 24.808594 326.015625 C 22.167969 319.5 19.679688 313.023438 17.339844 306.585938 C 15.003906 300.144531 12.820312 293.753906 10.792969 287.40625 C 8.765625 281.058594 6.890625 274.765625 5.175781 268.523438 C 3.464844 262.285156 1.90625 256.105469 0.511719 249.988281 C -0.886719 243.871094 -2.121094 237.820312 -3.195312 231.839844 C -4.273438 225.859375 -5.1875 219.957031 -5.9375 214.125 C -6.6875 208.296875 -7.277344 202.550781 -7.703125 196.886719 C -8.128906 191.222656 -8.390625 185.648438 -8.488281 180.164062 C -8.585938 174.679688 -8.523438 169.289062 -8.292969 163.996094 C -8.066406 158.703125 -7.675781 153.511719 -7.121094 148.425781 C -6.566406 143.339844 -5.847656 138.359375 -4.96875 133.488281 C -4.085938 128.617188 -3.046875 123.863281 -1.84375 119.21875 C -0.640625 114.578125 0.722656 110.058594 2.246094 105.65625 C 3.769531 101.253906 5.449219 96.980469 7.289062 92.828125 C 9.128906 88.679688 11.125 84.660156 13.277344 80.769531 C 15.429688 76.878906 17.734375 73.125 20.191406 69.503906 C 22.652344 65.886719 25.257812 62.40625 28.019531 59.0625 C 30.777344 55.722656 33.683594 52.527344 36.738281 49.472656 C 39.792969 46.417969 42.988281 43.511719 46.328125 40.753906 C 49.671875 37.992188 53.152344 35.382812 56.769531 32.925781 C 60.390625 30.464844 64.144531 28.160156 68.035156 26.007812 C 71.921875 23.859375 75.945312 21.863281 80.09375 20.023438 C 84.246094 18.183594 88.519531 16.5 92.921875 14.976562 C 97.324219 13.453125 101.84375 12.089844 106.484375 10.886719 C 111.125 9.683594 115.882812 8.644531 120.753906 7.761719 C 125.625 6.882812 130.601562 6.164062 135.691406 5.609375 C 140.777344 5.054688 145.96875 4.664062 151.261719 4.433594 C 156.554688 4.207031 161.941406 4.140625 167.425781 4.242188 C 172.914062 4.339844 178.488281 4.601562 184.152344 5.027344 C 189.816406 5.453125 195.5625 6.039062 201.390625 6.792969 C 207.21875 7.542969 213.125 8.457031 219.105469 9.53125 C 225.085938 10.605469 231.136719 11.839844 237.253906 13.238281 C 243.371094 14.632812 249.550781 16.1875 255.789062 17.902344 C 262.03125 19.617188 268.324219 21.488281 274.671875 23.519531 C 281.019531 25.546875 287.410156 27.730469 293.851562 30.066406 C 300.289062 32.402344 306.765625 34.894531 313.28125 37.535156 C 319.796875 40.175781 326.34375 42.964844 332.917969 45.902344 C 339.496094 48.839844 346.09375 51.921875 352.714844 55.148438 C 359.335938 58.375 365.96875 61.746094 372.621094 65.253906 C 379.269531 68.765625 385.925781 72.410156 392.589844 76.195312 C 399.25 79.976562 405.914062 83.894531 412.570312 87.941406 C 419.230469 91.988281 425.882812 96.164062 432.523438 100.46875 C 439.160156 104.769531 445.785156 109.195312 452.390625 113.742188 C 458.996094 118.289062 465.574219 122.953125 472.128906 127.734375 C 478.683594 132.515625 485.203125 137.40625 491.691406 142.410156 C 498.175781 147.414062 504.621094 152.519531 511.027344 157.734375 C 517.429688 162.945312 523.785156 168.257812 530.09375 173.667969 C 536.398438 179.078125 542.648438 184.582031 548.84375 190.175781 C 555.035156 195.769531 561.164062 201.449219 567.230469 207.214844 C 573.296875 212.980469 579.289062 218.824219 585.210938 224.746094 C 591.132812 230.667969 596.976562 236.660156 602.742188 242.726562 C 608.507812 248.792969 614.1875 254.921875 619.785156 261.113281 C 625.378906 267.308594 630.882812 273.558594 636.292969 279.863281 C 641.703125 286.167969 647.011719 292.523438 652.226562 298.929688 C 657.4375 305.332031 662.546875 311.777344 667.550781 318.265625 C 672.554688 324.753906 677.445312 331.273438 682.226562 337.828125 C 687.007812 344.378906 691.671875 350.960938 696.21875 357.5625 C 700.765625 364.167969 705.191406 370.792969 709.496094 377.433594 C 713.796875 384.070312 717.972656 390.722656 722.023438 397.382812 C 726.070312 404.039062 729.984375 410.699219 733.769531 417.363281 C 737.554688 424.027344 741.199219 430.683594 744.710938 437.332031 C 748.21875 443.980469 751.589844 450.617188 754.816406 457.238281 C 758.042969 463.859375 761.128906 470.457031 764.066406 477.03125 C 767.003906 483.609375 769.792969 490.15625 772.433594 496.667969 C 775.074219 503.183594 777.5625 509.664062 779.902344 516.101562 C 782.238281 522.539062 784.421875 528.933594 786.449219 535.28125 C 788.480469 541.628906 790.351562 547.921875 792.066406 554.160156 C 793.78125 560.398438 795.335938 566.578125 796.734375 572.695312 C 798.128906 578.8125 799.363281 584.863281 800.441406 590.84375 C 801.515625 596.824219 802.429688 602.730469 803.179688 608.558594 C 803.929688 614.390625 804.519531 620.136719 804.945312 625.800781 C 805.371094 631.464844 805.632812 637.039062 805.730469 642.523438 C 805.832031 648.007812 805.765625 653.398438 805.539062 658.6875 C 805.308594 663.980469 804.917969 669.171875 804.363281 674.261719 C 803.808594 679.347656 803.089844 684.328125 802.210938 689.195312 C 801.332031 694.066406 800.289062 698.824219 799.085938 703.464844 C 797.882812 708.105469 796.519531 712.628906 794.996094 717.027344 C 793.472656 721.429688 791.792969 725.707031 789.953125 729.855469 C 788.113281 734.007812 786.117188 738.027344 783.964844 741.917969 C 781.816406 745.808594 779.507812 749.5625 777.050781 753.179688 C 774.59375 756.800781 771.984375 760.28125 769.222656 763.621094 C 766.464844 766.960938 763.558594 770.160156 760.503906 773.214844 Z M 760.503906 773.214844 " fill-opacity="1" fill-rule="nonzero"/><path fill="#e53935" d="M 556.988281 94.609375 L 715.355469 252.976562 L 805.847656 433.964844 L 715.355469 569.707031 L 511.738281 501.835938 L 330.75 298.222656 L 262.878906 94.609375 L 398.621094 4.117188 Z M 556.988281 94.609375 " fill-opacity="1" fill-rule="nonzero"/><path fill="#ff5252" d="M 715.355469 569.707031 L 805.847656 433.964844 L 805.847656 682.828125 Z M 602.234375 818.570312 L 715.355469 569.707031 L 511.738281 501.835938 Z M 330.75 298.222656 L 212.316406 597.648438 L 511.738281 501.835938 Z M 262.878906 94.609375 L -8.605469 185.105469 L 330.75 298.222656 Z M 398.621094 4.117188 L 149.761719 4.117188 L 262.878906 94.609375 Z M 398.621094 4.117188 " fill-opacity="1" fill-rule="nonzero"/></svg>