<svg xmlns="http://www.w3.org/2000/svg" xmlns:xlink="http://www.w3.org/1999/xlink" width="1080" zoomAndPan="magnify" viewBox="0 0 810 809.999993" height="1080" preserveAspectRatio="xMidYMid meet" version="1.0"><defs><clipPath id="424fd4ca8a"><path d="M 290 285 L 489 285 L 489 426 L 290 426 Z M 290 285 " clip-rule="nonzero"/></clipPath><clipPath id="0e7826af84"><path d="M 500.347656 140.792969 L 576.359375 407.679688 L 309.472656 483.691406 L 233.460938 216.804688 Z M 500.347656 140.792969 " clip-rule="nonzero"/></clipPath><clipPath id="2e1ca404a0"><path d="M 500.347656 140.792969 L 576.359375 407.679688 L 309.472656 483.691406 L 233.460938 216.804688 Z M 500.347656 140.792969 " clip-rule="nonzero"/></clipPath><clipPath id="e5f6de12bf"><path d="M 500.347656 140.792969 L 576.359375 407.679688 L 309.472656 483.691406 L 233.460938 216.804688 Z M 500.347656 140.792969 " clip-rule="nonzero"/></clipPath><clipPath id="fb498fb52c"><path d="M 342 340 L 489 340 L 489 426 L 342 426 Z M 342 340 " clip-rule="nonzero"/></clipPath><clipPath id="96eaf21ff4"><path d="M 500.347656 140.792969 L 576.359375 407.679688 L 309.472656 483.691406 L 233.460938 216.804688 Z M 500.347656 140.792969 " clip-rule="nonzero"/></clipPath><clipPath id="d8078d0ba9"><path d="M 500.347656 140.792969 L 576.359375 407.679688 L 309.472656 483.691406 L 233.460938 216.804688 Z M 500.347656 140.792969 " clip-rule="nonzero"/></clipPath><clipPath id="d2ce92f3f7"><path d="M 500.347656 140.792969 L 576.359375 407.679688 L 309.472656 483.691406 L 233.460938 216.804688 Z M 500.347656 140.792969 " clip-rule="nonzero"/></clipPath><clipPath id="d3811df40a"><path d="M 287 226 L 523 226 L 523 398 L 287 398 Z M 287 226 " clip-rule="nonzero"/></clipPath><clipPath id="78571fdac9"><path d="M 500.347656 140.792969 L 576.359375 407.679688 L 309.472656 483.691406 L 233.460938 216.804688 Z M 500.347656 140.792969 " clip-rule="nonzero"/></clipPath><clipPath id="1ccb38d4e8"><path d="M 500.347656 140.792969 L 576.359375 407.679688 L 309.472656 483.691406 L 233.460938 216.804688 Z M 500.347656 140.792969 " clip-rule="nonzero"/></clipPath><clipPath id="8b96408d0e"><path d="M 500.347656 140.792969 L 576.359375 407.679688 L 309.472656 483.691406 L 233.460938 216.804688 Z M 500.347656 140.792969 " clip-rule="nonzero"/></clipPath><clipPath id="aad36b3d45"><path d="M 350 212 L 506 212 L 506 329 L 350 329 Z M 350 212 " clip-rule="nonzero"/></clipPath><clipPath id="23dd03d9f4"><path d="M 500.347656 140.792969 L 576.359375 407.679688 L 309.472656 483.691406 L 233.460938 216.804688 Z M 500.347656 140.792969 " clip-rule="nonzero"/></clipPath><clipPath id="37f6fdc356"><path d="M 500.347656 140.792969 L 576.359375 407.679688 L 309.472656 483.691406 L 233.460938 216.804688 Z M 500.347656 140.792969 " clip-rule="nonzero"/></clipPath><clipPath id="30ad975367"><path d="M 500.347656 140.792969 L 576.359375 407.679688 L 309.472656 483.691406 L 233.460938 216.804688 Z M 500.347656 140.792969 " clip-rule="nonzero"/></clipPath><clipPath id="36e9917fc9"><path d="M 290 212 L 523 212 L 523 397 L 290 397 Z M 290 212 " clip-rule="nonzero"/></clipPath><clipPath id="b5e11e8650"><path d="M 500.347656 140.792969 L 576.359375 407.679688 L 309.472656 483.691406 L 233.460938 216.804688 Z M 500.347656 140.792969 " clip-rule="nonzero"/></clipPath><clipPath id="49939e573a"><path d="M 500.347656 140.792969 L 576.359375 407.679688 L 309.472656 483.691406 L 233.460938 216.804688 Z M 500.347656 140.792969 " clip-rule="nonzero"/></clipPath><clipPath id="e0d76744d5"><path d="M 500.347656 140.792969 L 576.359375 407.679688 L 309.472656 483.691406 L 233.460938 216.804688 Z M 500.347656 140.792969 " clip-rule="nonzero"/></clipPath></defs><path fill="#e2d67a" d="M 682.460938 333.425781 C 691.121094 389.046875 665.945312 433.855469 637.328125 465.464844 C 597.324219 491.757812 550.511719 487.074219 538.648438 452.648438 C 549.238281 442.585938 558.792969 431.621094 567.316406 419.757812 C 572.929688 416.980469 576.097656 411.199219 577.894531 403.730469 C 578.5 402.722656 579.105469 401.707031 579.703125 400.6875 C 585.035156 391.785156 589.617188 382.511719 593.453125 372.871094 C 597.289062 363.226562 600.324219 353.339844 602.566406 343.207031 C 607.347656 337.164062 608.398438 330.175781 605.621094 322.226562 C 613.417969 223.253906 525.152344 157.019531 525.152344 157.019531 C 525.152344 157.019531 658.359375 178.59375 682.460938 333.425781 Z M 682.460938 333.425781 " fill-opacity="1" fill-rule="nonzero"/><path fill="#a09040" d="M 538.644531 452.648438 C 508.890625 480.90625 473.304688 499.65625 435.800781 510.9375 L 570.824219 518.71875 C 583.21875 511.617188 594.992188 503.605469 606.140625 494.675781 C 617.292969 485.746094 627.6875 476.011719 637.324219 465.464844 C 628.992188 466.339844 620.636719 466.726562 612.257812 466.625 C 603.882812 466.523438 595.539062 465.933594 587.230469 464.855469 C 578.921875 463.773438 570.707031 462.214844 562.582031 460.171875 C 554.453125 458.132812 546.476562 455.621094 538.644531 452.648438 Z M 538.644531 452.648438 " fill-opacity="1" fill-rule="nonzero"/><path fill="#a09040" d="M 677.117188 349.3125 C 677.894531 349.070312 678.632812 348.734375 679.328125 348.308594 C 680.019531 347.878906 680.652344 347.371094 681.214844 346.78125 C 681.78125 346.191406 682.261719 345.542969 682.660156 344.828125 C 683.058594 344.117188 683.363281 343.367188 683.574219 342.578125 C 683.359375 340.25 683.085938 337.902344 682.75 335.535156 C 682.488281 335.046875 682.183594 334.585938 681.84375 334.148438 C 681.5 333.714844 681.125 333.3125 680.710938 332.941406 C 680.300781 332.574219 679.859375 332.238281 679.390625 331.945312 C 678.921875 331.652344 678.433594 331.398438 677.917969 331.191406 C 677.40625 330.980469 676.882812 330.816406 676.339844 330.699219 C 675.800781 330.578125 675.253906 330.507812 674.703125 330.484375 C 674.148438 330.457031 673.597656 330.480469 673.050781 330.550781 C 672.5 330.621094 671.960938 330.738281 671.433594 330.902344 C 639.1875 340.867188 617.515625 331.175781 605.59375 322.222656 C 605.039062 329.285156 604.027344 336.277344 602.558594 343.207031 C 609.125 346.886719 616.054688 349.667969 623.34375 351.546875 C 630.632812 353.425781 638.042969 354.34375 645.570312 354.300781 C 656.335938 354.230469 666.851562 352.566406 677.117188 349.3125 Z M 677.117188 349.3125 " fill-opacity="1" fill-rule="nonzero"/><path fill="#a09040" d="M 661.097656 417.171875 C 623.789062 430.992188 594.917969 416.996094 577.878906 403.71875 C 574.511719 409.28125 570.988281 414.625 567.300781 419.746094 C 570.753906 422.367188 574.335938 424.792969 578.046875 427.03125 C 581.988281 429.464844 586.078125 431.613281 590.316406 433.484375 C 594.554688 435.355469 598.898438 436.929688 603.351562 438.203125 C 607.804688 439.476562 612.324219 440.441406 616.90625 441.097656 C 621.492188 441.753906 626.101562 442.09375 630.730469 442.117188 C 640.105469 442.089844 649.300781 440.816406 658.328125 438.292969 C 662.539062 431.808594 666.308594 425.082031 669.640625 418.105469 C 668.371094 417.285156 666.984375 416.792969 665.480469 416.628906 C 663.976562 416.464844 662.515625 416.644531 661.097656 417.171875 Z M 661.097656 417.171875 " fill-opacity="1" fill-rule="nonzero"/><path fill="#d14343" d="M 289.578125 141.363281 C 289.222656 140.839844 288.820312 140.355469 288.371094 139.910156 C 287.921875 139.46875 287.433594 139.070312 286.90625 138.722656 C 286.378906 138.375 285.820312 138.078125 285.234375 137.839844 C 284.648438 137.601562 284.046875 137.421875 283.425781 137.304688 C 282.804688 137.183594 282.175781 137.125 281.546875 137.128906 C 280.914062 137.132812 280.289062 137.199219 279.667969 137.324219 C 279.046875 137.453125 278.445312 137.636719 277.863281 137.882812 C 277.28125 138.128906 276.726562 138.429688 276.203125 138.78125 L 253.226562 154.328125 C 231.957031 169.179688 212.292969 174.8125 194.804688 171.074219 C 171.863281 166.167969 159.640625 146.359375 159.402344 145.964844 C 159.082031 145.421875 158.710938 144.914062 158.289062 144.445312 C 157.867188 143.972656 157.402344 143.546875 156.894531 143.167969 C 156.390625 142.789062 155.851562 142.460938 155.28125 142.1875 C 154.710938 141.914062 154.121094 141.699219 153.507812 141.542969 C 152.898438 141.386719 152.273438 141.289062 151.644531 141.253906 C 151.011719 141.222656 150.382812 141.246094 149.757812 141.335938 C 149.132812 141.425781 148.519531 141.574219 147.925781 141.785156 C 147.328125 141.996094 146.757812 142.261719 146.214844 142.582031 C 145.667969 142.90625 145.160156 143.277344 144.691406 143.699219 C 144.21875 144.121094 143.792969 144.582031 143.414062 145.089844 C 143.035156 145.59375 142.707031 146.132812 142.433594 146.703125 C 142.160156 147.273438 141.945312 147.863281 141.789062 148.476562 C 141.628906 149.089844 141.535156 149.710938 141.5 150.34375 C 141.464844 150.972656 141.492188 151.601562 141.578125 152.230469 C 141.667969 152.855469 141.816406 153.46875 142.027344 154.0625 C 142.234375 154.660156 142.5 155.230469 142.820312 155.777344 C 146.667969 161.855469 151.28125 167.285156 156.65625 172.066406 C 153.476562 172.230469 150.328125 171.988281 147.210938 171.335938 C 144.097656 170.679688 141.117188 169.640625 138.269531 168.214844 C 137.714844 167.917969 137.136719 167.675781 136.535156 167.496094 C 135.933594 167.3125 135.320312 167.1875 134.695312 167.125 C 134.070312 167.0625 133.445312 167.0625 132.820312 167.121094 C 132.195312 167.179688 131.582031 167.300781 130.980469 167.480469 C 130.375 167.660156 129.796875 167.894531 129.242188 168.1875 C 128.6875 168.480469 128.164062 168.824219 127.675781 169.222656 C 127.1875 169.617188 126.742188 170.054688 126.339844 170.539062 C 125.9375 171.019531 125.582031 171.539062 125.28125 172.089844 C 124.980469 172.640625 124.734375 173.214844 124.546875 173.816406 C 124.359375 174.414062 124.230469 175.027344 124.160156 175.652344 C 124.089844 176.277344 124.082031 176.902344 124.136719 177.53125 C 124.191406 178.15625 124.304688 178.769531 124.476562 179.375 C 124.652344 179.980469 124.882812 180.5625 125.167969 181.121094 C 125.457031 181.679688 125.796875 182.203125 126.1875 182.699219 C 126.574219 183.191406 127.011719 183.640625 127.488281 184.046875 C 127.96875 184.457031 128.480469 184.8125 129.03125 185.121094 C 132.996094 187.140625 137.144531 188.683594 141.46875 189.75 C 145.792969 190.8125 150.179688 191.375 154.632812 191.425781 C 158.558594 191.460938 162.414062 190.96875 166.203125 189.945312 C 169.992188 188.921875 173.574219 187.410156 176.949219 185.40625 C 181.300781 187.347656 185.808594 188.828125 190.464844 189.84375 C 195.457031 190.933594 200.507812 191.476562 205.617188 191.472656 C 224.238281 191.472656 243.871094 184.339844 264.121094 170.203125 L 286.984375 154.734375 C 287.507812 154.382812 287.992188 153.980469 288.4375 153.53125 C 288.882812 153.082031 289.277344 152.59375 289.625 152.066406 C 289.976562 151.539062 290.269531 150.980469 290.507812 150.394531 C 290.746094 149.8125 290.925781 149.207031 291.046875 148.585938 C 291.167969 147.964844 291.226562 147.339844 291.222656 146.707031 C 291.21875 146.074219 291.15625 145.449219 291.03125 144.828125 C 290.902344 144.210938 290.71875 143.609375 290.472656 143.027344 C 290.230469 142.441406 289.929688 141.890625 289.578125 141.363281 Z M 289.578125 141.363281 " fill-opacity="1" fill-rule="nonzero"/><path fill="#87a574" d="M 271.433594 55.488281 C 269.039062 56.957031 266.75 58.582031 264.574219 60.363281 C 262.398438 62.144531 260.355469 64.066406 258.441406 66.128906 C 256.527344 68.1875 254.761719 70.367188 253.144531 72.667969 C 251.527344 74.96875 250.074219 77.371094 248.785156 79.867188 C 247.496094 82.367188 246.382812 84.945312 245.441406 87.59375 C 244.503906 90.246094 243.75 92.949219 243.179688 95.703125 C 242.609375 98.457031 242.230469 101.238281 242.039062 104.042969 C 241.847656 106.847656 241.847656 109.65625 242.039062 112.460938 C 242.140625 114 242.3125 115.527344 242.558594 117.050781 C 242.800781 118.574219 243.117188 120.078125 243.503906 121.570312 C 243.890625 123.0625 244.34375 124.535156 244.871094 125.984375 C 245.394531 127.433594 245.988281 128.855469 246.648438 130.246094 C 247.304688 131.640625 248.03125 133 248.816406 134.324219 C 249.605469 135.648438 250.453125 136.933594 251.359375 138.179688 C 252.269531 139.425781 253.234375 140.625 254.253906 141.777344 C 255.277344 142.929688 256.351562 144.035156 257.476562 145.085938 C 258.601562 146.140625 259.773438 147.136719 260.992188 148.078125 C 262.214844 149.019531 263.476562 149.902344 264.777344 150.726562 C 266.082031 151.550781 267.417969 152.308594 268.792969 153.003906 C 270.167969 153.703125 271.570312 154.332031 273.007812 154.894531 C 274.441406 155.460938 275.898438 155.957031 277.378906 156.382812 C 278.859375 156.808594 280.355469 157.164062 281.871094 157.449219 C 283.382812 157.734375 284.90625 157.949219 286.441406 158.089844 C 287.976562 158.230469 289.515625 158.300781 291.054688 158.296875 L 454.425781 158.296875 C 508.46875 158.296875 560.398438 180.917969 596.019531 221.578125 C 618.289062 246.996094 637.832031 281.679688 645.679688 328.355469 C 656.15625 390.65625 641.265625 435.859375 622.078125 466.542969 C 656.226562 485.691406 705.078125 474.566406 733.257812 432.558594 C 758.722656 377.773438 774.664062 300.304688 735.75 210.332031 C 658.359375 31.378906 412.753906 16.148438 412.753906 16.148438 C 412.753906 16.148438 349.792969 -0.03125 318.089844 28.265625 C 311.128906 34.613281 303.433594 39.886719 295 44.085938 Z M 271.433594 55.488281 " fill-opacity="1" fill-rule="nonzero"/><path fill="#2b2b38" d="M 358.46875 55.355469 L 373.824219 51.269531 C 386.503906 47.894531 397.714844 61.183594 391.582031 72.78125 C 388.929688 77.792969 384.023438 82.117188 375.390625 84.167969 C 372.488281 84.957031 369.535156 85.355469 366.527344 85.367188 C 363.519531 85.378906 360.5625 84.996094 357.65625 84.226562 C 343.269531 80.011719 343.980469 59.207031 358.46875 55.355469 Z M 358.46875 55.355469 " fill-opacity="1" fill-rule="nonzero"/><path fill="#56723d" d="M 622.0625 466.53125 C 599.429688 502.71875 570.824219 518.714844 570.824219 518.714844 L 673.582031 518.714844 C 673.582031 518.714844 708.066406 486.710938 733.242188 432.546875 C 692.835938 456.550781 654.839844 465.421875 622.0625 466.53125 Z M 622.0625 466.53125 " fill-opacity="1" fill-rule="nonzero"/><path fill="#56723d" d="M 98.09375 328.625 C 86.761719 375.394531 80.816406 457.144531 150.917969 518.722656 L 310.761719 518.722656 C 310.761719 518.722656 169.535156 482.097656 146.59375 331.019531 C 146.160156 328.085938 145.230469 325.320312 143.8125 322.714844 C 142.394531 320.113281 140.566406 317.832031 138.335938 315.878906 C 137.941406 315.535156 137.53125 315.199219 137.113281 314.882812 C 136.695312 314.5625 136.265625 314.253906 135.828125 313.960938 C 135.390625 313.667969 134.941406 313.390625 134.484375 313.125 C 134.03125 312.863281 133.566406 312.613281 133.09375 312.378906 C 132.621094 312.144531 132.140625 311.925781 131.65625 311.722656 C 131.167969 311.515625 130.675781 311.328125 130.179688 311.15625 C 129.679688 310.984375 129.175781 310.828125 128.667969 310.6875 C 128.160156 310.546875 127.648438 310.425781 127.132812 310.316406 C 126.617188 310.210938 126.097656 310.117188 125.578125 310.042969 C 125.054688 309.96875 124.53125 309.914062 124.003906 309.871094 C 123.480469 309.832031 122.953125 309.808594 122.425781 309.800781 C 121.898438 309.792969 121.371094 309.804688 120.847656 309.832031 C 120.320312 309.859375 119.792969 309.902344 119.269531 309.960938 C 118.746094 310.023438 118.226562 310.097656 117.707031 310.191406 C 117.1875 310.285156 116.671875 310.398438 116.160156 310.523438 C 115.648438 310.648438 115.144531 310.792969 114.640625 310.953125 C 114.136719 311.113281 113.640625 311.285156 113.148438 311.476562 C 112.65625 311.667969 112.171875 311.875 111.695312 312.097656 C 111.21875 312.320312 110.746094 312.554688 110.285156 312.808594 C 109.820312 313.058594 109.367188 313.328125 108.921875 313.609375 C 108.472656 313.890625 108.039062 314.183594 107.609375 314.492188 C 107.183594 314.800781 106.765625 315.125 106.359375 315.460938 C 105.953125 315.796875 105.558594 316.144531 105.175781 316.503906 C 104.789062 316.867188 104.417969 317.238281 104.058594 317.625 C 103.695312 318.007812 103.347656 318.40625 103.015625 318.8125 C 102.679688 319.21875 102.359375 319.636719 102.050781 320.0625 C 101.742188 320.492188 101.445312 320.929688 101.167969 321.375 C 100.886719 321.820312 100.621094 322.277344 100.367188 322.742188 C 100.117188 323.203125 99.882812 323.675781 99.660156 324.152344 C 99.4375 324.632812 99.234375 325.117188 99.042969 325.609375 C 98.851562 326.101562 98.679688 326.597656 98.519531 327.101562 C 98.363281 327.605469 98.21875 328.113281 98.09375 328.625 Z M 98.09375 328.625 " fill-opacity="1" fill-rule="nonzero"/><path fill="#87a574" d="M 133.160156 631.148438 C 133.160156 631.148438 57.042969 626.59375 39.28125 697.65625 C 29.664062 736.152344 53.589844 760.546875 77.546875 774.8125 C 86.589844 780.128906 96.121094 784.34375 106.136719 787.460938 C 116.15625 790.578125 126.394531 792.515625 136.859375 793.269531 C 194.867188 797.785156 379.355469 810.007812 575.664062 800.585938 C 658.882812 771.894531 654.578125 659.597656 562.179688 631.148438 Z M 133.160156 631.148438 " fill-opacity="1" fill-rule="nonzero"/><path fill="#87a574" d="M 145.378906 502.222656 L 538.890625 502.222656 C 602.558594 518.71875 621.523438 575.675781 591.246094 637.949219 C 473.640625 644.929688 271.960938 652.105469 133.160156 631.15625 C 133.160156 631.15625 91.292969 607.558594 95.101562 558.0625 C 98.90625 508.566406 145.378906 502.222656 145.378906 502.222656 Z M 145.378906 502.222656 " fill-opacity="1" fill-rule="nonzero"/><path fill="#56723d" d="M 632.382812 136.109375 C 631.871094 135.742188 631.324219 135.425781 630.75 135.164062 C 630.171875 134.902344 629.578125 134.699219 628.960938 134.554688 C 628.34375 134.410156 627.722656 134.328125 627.089844 134.308594 C 626.457031 134.285156 625.828125 134.328125 625.203125 134.429688 C 624.582031 134.53125 623.972656 134.695312 623.378906 134.917969 C 622.789062 135.140625 622.222656 135.417969 621.6875 135.75 C 621.148438 136.085938 620.648438 136.46875 620.1875 136.902344 C 619.726562 137.332031 619.3125 137.804688 618.941406 138.320312 C 618.550781 138.828125 618.097656 139.277344 617.59375 139.671875 C 617.085938 140.066406 616.539062 140.394531 615.949219 140.648438 C 615.363281 140.90625 614.75 141.085938 614.117188 141.1875 C 613.484375 141.289062 612.847656 141.3125 612.207031 141.253906 C 612.636719 136.484375 612.207031 131.796875 610.914062 127.1875 C 617.40625 119.992188 619.230469 109.84375 616.34375 97.039062 C 616.210938 96.414062 616.019531 95.808594 615.769531 95.21875 C 615.519531 94.632812 615.210938 94.078125 614.847656 93.550781 C 614.484375 93.023438 614.074219 92.539062 613.617188 92.09375 C 613.15625 91.648438 612.660156 91.253906 612.121094 90.910156 C 611.585938 90.566406 611.019531 90.277344 610.421875 90.042969 C 609.828125 89.8125 609.21875 89.640625 608.589844 89.527344 C 607.960938 89.417969 607.324219 89.371094 606.6875 89.386719 C 606.046875 89.398438 605.417969 89.476562 604.792969 89.621094 C 604.171875 89.761719 603.570312 89.960938 602.984375 90.222656 C 602.402344 90.484375 601.851562 90.796875 601.332031 91.167969 C 600.8125 91.539062 600.332031 91.957031 599.894531 92.425781 C 599.457031 92.890625 599.070312 93.394531 598.734375 93.9375 C 598.398438 94.480469 598.117188 95.050781 597.894531 95.648438 C 597.671875 96.25 597.507812 96.863281 597.410156 97.492188 C 597.308594 98.125 597.269531 98.757812 597.296875 99.398438 C 597.320312 100.035156 597.410156 100.664062 597.558594 101.285156 C 598.363281 104.847656 599.308594 111.273438 596.644531 114.25 C 594.121094 117.082031 588.019531 117.417969 585.460938 117.140625 C 584.832031 117.0625 584.203125 117.046875 583.570312 117.09375 C 582.941406 117.140625 582.320312 117.25 581.710938 117.421875 C 581.101562 117.589844 580.511719 117.816406 579.949219 118.101562 C 579.382812 118.386719 578.851562 118.726562 578.351562 119.113281 C 577.855469 119.503906 577.398438 119.9375 576.984375 120.417969 C 576.574219 120.898438 576.210938 121.414062 575.898438 121.964844 C 575.585938 122.515625 575.332031 123.09375 575.132812 123.695312 C 574.9375 124.296875 574.796875 124.910156 574.722656 125.539062 C 574.644531 126.167969 574.628906 126.796875 574.675781 127.429688 C 574.722656 128.058594 574.832031 128.679688 575 129.289062 C 575.167969 129.898438 575.398438 130.488281 575.679688 131.054688 C 575.964844 131.617188 576.304688 132.152344 576.691406 132.648438 C 577.082031 133.148438 577.515625 133.605469 577.996094 134.019531 C 578.476562 134.429688 578.992188 134.792969 579.542969 135.105469 C 580.09375 135.417969 580.667969 135.671875 581.269531 135.871094 C 581.871094 136.070312 582.484375 136.207031 583.113281 136.285156 C 584.464844 136.441406 585.820312 136.515625 587.183594 136.507812 C 589.132812 136.503906 591.070312 136.367188 593 136.089844 C 593.351562 138.476562 593 140.753906 591.9375 142.921875 C 589.464844 147.332031 583.09375 148.597656 582.8125 148.652344 C 582.21875 148.746094 581.640625 148.894531 581.074219 149.097656 C 580.511719 149.296875 579.96875 149.550781 579.449219 149.855469 C 578.929688 150.15625 578.445312 150.507812 577.992188 150.902344 C 577.539062 151.292969 577.125 151.726562 576.753906 152.199219 C 576.382812 152.671875 576.058594 153.171875 575.777344 153.703125 C 575.5 154.238281 575.273438 154.789062 575.097656 155.363281 C 574.925781 155.941406 574.804688 156.527344 574.738281 157.121094 C 574.671875 157.71875 574.664062 158.316406 574.710938 158.917969 C 574.757812 159.515625 574.859375 160.105469 575.015625 160.683594 C 575.171875 161.265625 575.382812 161.824219 575.640625 162.367188 C 575.902344 162.90625 576.214844 163.417969 576.570312 163.902344 C 576.925781 164.382812 577.328125 164.828125 577.765625 165.238281 C 578.207031 165.644531 578.679688 166.011719 579.191406 166.328125 C 579.699219 166.648438 580.230469 166.917969 580.792969 167.136719 C 581.351562 167.359375 581.925781 167.523438 582.515625 167.636719 C 583.105469 167.75 583.699219 167.804688 584.300781 167.804688 C 584.777344 167.804688 585.25 167.769531 585.71875 167.703125 C 588.96875 167.136719 592.074219 166.140625 595.046875 164.710938 C 598.015625 163.285156 600.734375 161.476562 603.203125 159.292969 C 606.273438 160.078125 609.394531 160.476562 612.5625 160.492188 C 614.707031 160.5625 616.828125 160.371094 618.925781 159.917969 C 621.019531 159.464844 623.03125 158.761719 624.953125 157.808594 C 626.875 156.855469 628.652344 155.683594 630.28125 154.289062 C 631.914062 152.894531 633.351562 151.324219 634.59375 149.574219 C 634.964844 149.058594 635.28125 148.511719 635.542969 147.9375 C 635.804688 147.359375 636.007812 146.761719 636.152344 146.144531 C 636.296875 145.527344 636.378906 144.902344 636.402344 144.269531 C 636.425781 143.636719 636.382812 143.007812 636.28125 142.382812 C 636.179688 141.757812 636.015625 141.148438 635.792969 140.554688 C 635.570312 139.960938 635.289062 139.394531 634.957031 138.859375 C 634.621094 138.320312 634.238281 137.820312 633.804688 137.355469 C 633.371094 136.894531 632.898438 136.476562 632.382812 136.109375 Z M 632.382812 136.109375 " fill-opacity="1" fill-rule="nonzero"/><path fill="#56723d" d="M 339.554688 554.1875 C 338.921875 554.164062 338.292969 554.207031 337.671875 554.308594 C 337.046875 554.410156 336.4375 554.574219 335.847656 554.796875 C 335.253906 555.019531 334.691406 555.296875 334.152344 555.632812 C 333.617188 555.964844 333.117188 556.347656 332.652344 556.78125 C 332.191406 557.210938 331.777344 557.6875 331.410156 558.199219 C 331.039062 558.714844 330.726562 559.257812 330.464844 559.835938 C 330.203125 560.410156 330 561.007812 329.855469 561.625 C 329.710938 562.238281 329.628906 562.863281 329.609375 563.496094 C 329.453125 568.285156 325.277344 570.894531 321.730469 572.253906 C 319.796875 567.867188 317.332031 563.796875 314.34375 560.046875 C 314.464844 559.484375 314.605469 558.929688 314.695312 558.34375 C 316.179688 548.328125 311.863281 538.433594 301.855469 528.9375 C 301.398438 528.5 300.902344 528.113281 300.367188 527.773438 C 299.832031 527.4375 299.269531 527.152344 298.679688 526.925781 C 298.085938 526.699219 297.480469 526.53125 296.855469 526.421875 C 296.234375 526.316406 295.605469 526.269531 294.972656 526.285156 C 294.339844 526.300781 293.714844 526.378906 293.097656 526.519531 C 292.480469 526.660156 291.882812 526.859375 291.304688 527.113281 C 290.722656 527.371094 290.175781 527.683594 289.660156 528.050781 C 289.144531 528.414062 288.667969 528.828125 288.230469 529.285156 C 287.796875 529.746094 287.410156 530.242188 287.070312 530.777344 C 286.734375 531.316406 286.453125 531.878906 286.226562 532.46875 C 286 533.0625 285.832031 533.667969 285.726562 534.292969 C 285.617188 534.917969 285.574219 535.546875 285.589844 536.179688 C 285.609375 536.8125 285.6875 537.4375 285.828125 538.054688 C 285.96875 538.671875 286.167969 539.269531 286.425781 539.847656 C 286.683594 540.425781 286.996094 540.972656 287.359375 541.488281 C 287.726562 542.007812 288.140625 542.480469 288.601562 542.917969 C 292.148438 546.285156 296.25 551.195312 295.648438 555.46875 C 295 560.054688 289.148438 564.054688 287.132812 565.105469 C 286.570312 565.390625 286.039062 565.726562 285.539062 566.117188 C 285.042969 566.507812 284.589844 566.941406 284.175781 567.421875 C 283.765625 567.902344 283.402344 568.417969 283.09375 568.96875 C 282.78125 569.515625 282.527344 570.09375 282.332031 570.695312 C 282.132812 571.292969 281.996094 571.910156 281.921875 572.535156 C 281.84375 573.164062 281.828125 573.792969 281.875 574.421875 C 281.921875 575.054688 282.03125 575.671875 282.199219 576.28125 C 282.371094 576.890625 282.597656 577.476562 282.882812 578.042969 C 283.167969 578.605469 283.503906 579.136719 283.894531 579.636719 C 284.28125 580.132812 284.714844 580.589844 285.195312 581.003906 C 285.675781 581.414062 286.1875 581.777344 286.738281 582.089844 C 287.289062 582.398438 287.863281 582.65625 288.464844 582.851562 C 289.0625 583.050781 289.679688 583.1875 290.304688 583.265625 C 290.933594 583.34375 291.5625 583.359375 292.191406 583.3125 C 292.820312 583.265625 293.441406 583.15625 294.050781 582.988281 C 294.660156 582.820312 295.246094 582.59375 295.8125 582.308594 C 298.335938 580.976562 300.699219 579.402344 302.898438 577.578125 C 303.976562 579.417969 304.761719 581.375 305.246094 583.449219 C 305.730469 585.527344 305.894531 587.628906 305.742188 589.753906 C 304.761719 599.089844 296.199219 605.375 295.914062 605.582031 C 295.394531 605.941406 294.914062 606.347656 294.472656 606.800781 C 294.035156 607.257812 293.644531 607.75 293.300781 608.28125 C 292.957031 608.8125 292.671875 609.375 292.4375 609.960938 C 292.207031 610.550781 292.035156 611.15625 291.921875 611.777344 C 291.808594 612.402344 291.757812 613.027344 291.765625 613.660156 C 291.777344 614.292969 291.847656 614.917969 291.984375 615.539062 C 292.117188 616.15625 292.308594 616.753906 292.5625 617.335938 C 292.8125 617.914062 293.117188 618.464844 293.476562 618.984375 C 293.839844 619.507812 294.246094 619.984375 294.699219 620.425781 C 295.15625 620.867188 295.648438 621.257812 296.179688 621.601562 C 296.710938 621.941406 297.269531 622.230469 297.859375 622.460938 C 298.445312 622.695312 299.050781 622.867188 299.675781 622.980469 C 300.296875 623.09375 300.921875 623.144531 301.554688 623.136719 C 302.1875 623.125 302.8125 623.050781 303.429688 622.917969 C 304.050781 622.785156 304.648438 622.59375 305.230469 622.339844 C 305.808594 622.089844 306.359375 621.78125 306.878906 621.421875 C 308.507812 620.300781 322.84375 609.964844 324.867188 592.046875 C 324.886719 591.863281 324.894531 591.675781 324.914062 591.488281 C 335.070312 588.511719 348.324219 580.484375 348.867188 564.121094 C 348.886719 563.488281 348.84375 562.863281 348.742188 562.238281 C 348.636719 561.613281 348.476562 561.007812 348.25 560.414062 C 348.027344 559.824219 347.75 559.257812 347.414062 558.722656 C 347.082031 558.1875 346.699219 557.6875 346.265625 557.226562 C 345.835938 556.765625 345.359375 556.351562 344.847656 555.980469 C 344.332031 555.613281 343.789062 555.300781 343.210938 555.039062 C 342.636719 554.777344 342.042969 554.574219 341.425781 554.433594 C 340.808594 554.289062 340.1875 554.207031 339.554688 554.1875 Z M 339.554688 554.1875 " fill-opacity="1" fill-rule="nonzero"/><path fill="#56723d" d="M 546.453125 712.914062 C 545.820312 712.914062 545.191406 712.972656 544.574219 713.097656 C 543.953125 713.21875 543.351562 713.402344 542.765625 713.644531 C 542.183594 713.886719 541.625 714.183594 541.101562 714.535156 C 540.574219 714.886719 540.089844 715.285156 539.640625 715.734375 C 539.195312 716.179688 538.796875 716.667969 538.445312 717.195312 C 538.09375 717.71875 537.796875 718.273438 537.554688 718.859375 C 537.3125 719.445312 537.128906 720.046875 537.007812 720.667969 C 536.882812 721.289062 536.820312 721.914062 536.820312 722.546875 C 536.820312 728.078125 531.980469 731.128906 528.066406 732.695312 C 525.835938 727.949219 523.011719 723.585938 519.585938 719.609375 C 519.714844 718.945312 519.851562 718.285156 519.9375 717.597656 C 521.128906 707.179688 516.300781 697.066406 505.578125 687.542969 C 505.105469 687.136719 504.59375 686.777344 504.050781 686.464844 C 503.503906 686.15625 502.9375 685.902344 502.34375 685.707031 C 501.746094 685.507812 501.140625 685.367188 500.519531 685.289062 C 499.898438 685.210938 499.273438 685.191406 498.648438 685.234375 C 498.023438 685.273438 497.410156 685.375 496.804688 685.539062 C 496.199219 685.699219 495.617188 685.917969 495.054688 686.195312 C 494.492188 686.472656 493.960938 686.800781 493.464844 687.179688 C 492.964844 687.558594 492.507812 687.980469 492.09375 688.449219 C 491.675781 688.917969 491.308594 689.421875 490.992188 689.964844 C 490.675781 690.503906 490.414062 691.070312 490.207031 691.660156 C 490 692.253906 489.851562 692.859375 489.761719 693.476562 C 489.675781 694.097656 489.644531 694.722656 489.679688 695.347656 C 489.710938 695.972656 489.804688 696.589844 489.957031 697.195312 C 490.109375 697.804688 490.320312 698.390625 490.585938 698.957031 C 490.855469 699.523438 491.175781 700.058594 491.546875 700.566406 C 491.917969 701.070312 492.335938 701.53125 492.796875 701.953125 C 496.738281 705.457031 501.324219 710.617188 500.816406 715.347656 C 500.269531 720.414062 494.078125 724.96875 491.9375 726.171875 C 491.386719 726.476562 490.875 726.835938 490.394531 727.242188 C 489.917969 727.648438 489.484375 728.101562 489.09375 728.59375 C 488.703125 729.085938 488.363281 729.609375 488.074219 730.171875 C 487.789062 730.730469 487.558594 731.3125 487.382812 731.914062 C 487.210938 732.519531 487.09375 733.132812 487.042969 733.761719 C 486.988281 734.386719 486.996094 735.011719 487.066406 735.636719 C 487.132812 736.261719 487.261719 736.875 487.453125 737.476562 C 487.640625 738.074219 487.886719 738.648438 488.1875 739.203125 C 488.488281 739.753906 488.839844 740.269531 489.242188 740.753906 C 489.648438 741.238281 490.09375 741.675781 490.582031 742.070312 C 491.070312 742.464844 491.59375 742.808594 492.148438 743.105469 C 492.703125 743.398438 493.285156 743.632812 493.886719 743.8125 C 494.488281 743.992188 495.101562 744.113281 495.726562 744.171875 C 496.351562 744.230469 496.980469 744.230469 497.605469 744.164062 C 498.230469 744.101562 498.84375 743.980469 499.445312 743.796875 C 500.046875 743.613281 500.621094 743.375 501.175781 743.078125 C 503.945312 741.511719 506.503906 739.65625 508.855469 737.515625 C 510.179688 739.519531 511.164062 741.679688 511.808594 743.992188 C 512.453125 746.304688 512.726562 748.660156 512.632812 751.0625 C 511.902344 761.164062 502.914062 768.210938 502.652344 768.414062 C 502.144531 768.792969 501.683594 769.21875 501.261719 769.6875 C 500.835938 770.15625 500.464844 770.660156 500.140625 771.203125 C 499.820312 771.746094 499.550781 772.316406 499.339844 772.910156 C 499.128906 773.503906 498.980469 774.113281 498.886719 774.738281 C 498.796875 775.363281 498.765625 775.992188 498.796875 776.621094 C 498.832031 777.253906 498.921875 777.875 499.078125 778.484375 C 499.230469 779.097656 499.445312 779.691406 499.714844 780.261719 C 499.984375 780.832031 500.308594 781.371094 500.683594 781.875 C 501.058594 782.382812 501.480469 782.847656 501.949219 783.273438 C 502.417969 783.695312 502.921875 784.070312 503.464844 784.394531 C 504.003906 784.71875 504.570312 784.988281 505.167969 785.203125 C 505.761719 785.414062 506.371094 785.570312 506.992188 785.660156 C 507.617188 785.753906 508.246094 785.785156 508.875 785.757812 C 509.503906 785.726562 510.125 785.636719 510.738281 785.484375 C 511.351562 785.332031 511.945312 785.121094 512.515625 784.851562 C 513.085938 784.582031 513.625 784.261719 514.132812 783.886719 C 514.792969 783.398438 530.316406 771.742188 531.832031 752.722656 C 531.855469 752.417969 531.855469 752.109375 531.875 751.804688 C 542.347656 748.449219 556.101562 739.671875 556.101562 722.550781 C 556.101562 721.917969 556.039062 721.289062 555.917969 720.667969 C 555.792969 720.046875 555.609375 719.441406 555.367188 718.859375 C 555.125 718.273438 554.828125 717.714844 554.476562 717.191406 C 554.125 716.664062 553.722656 716.175781 553.273438 715.726562 C 552.828125 715.28125 552.339844 714.882812 551.8125 714.53125 C 551.285156 714.179688 550.730469 713.882812 550.144531 713.640625 C 549.558594 713.398438 548.953125 713.214844 548.332031 713.09375 C 547.710938 712.972656 547.085938 712.910156 546.453125 712.914062 Z M 546.453125 712.914062 " fill-opacity="1" fill-rule="nonzero"/><path fill="#56723d" d="M 183.023438 697.6875 C 181.726562 693.445312 179.921875 689.425781 177.613281 685.636719 C 175.308594 681.847656 172.566406 678.402344 169.394531 675.304688 C 168.933594 674.878906 168.433594 674.503906 167.898438 674.175781 C 167.367188 673.847656 166.804688 673.574219 166.214844 673.355469 C 165.628906 673.136719 165.023438 672.980469 164.40625 672.878906 C 163.785156 672.777344 163.164062 672.738281 162.535156 672.761719 C 161.910156 672.78125 161.289062 672.863281 160.679688 673.007812 C 160.070312 673.148438 159.476562 673.347656 158.90625 673.609375 C 158.335938 673.867188 157.792969 674.175781 157.28125 674.539062 C 156.773438 674.902344 156.300781 675.3125 155.871094 675.769531 C 155.4375 676.226562 155.054688 676.71875 154.722656 677.25 C 154.386719 677.78125 154.105469 678.339844 153.882812 678.921875 C 153.65625 679.507812 153.488281 680.109375 153.382812 680.730469 C 153.273438 681.347656 153.226562 681.96875 153.238281 682.597656 C 153.253906 683.222656 153.328125 683.84375 153.460938 684.457031 C 153.597656 685.070312 153.789062 685.664062 154.039062 686.238281 C 154.289062 686.8125 154.59375 687.359375 154.949219 687.875 C 155.308594 688.390625 155.710938 688.867188 156.160156 689.304688 C 158.621094 691.628906 165.519531 699.957031 164.992188 707.453125 C 164.886719 708.933594 164.570312 713.441406 157.207031 718.664062 C 156.691406 719.03125 156.214844 719.445312 155.78125 719.902344 C 155.347656 720.363281 154.960938 720.859375 154.625 721.394531 C 154.289062 721.929688 154.007812 722.496094 153.78125 723.085938 C 153.554688 723.675781 153.390625 724.285156 153.285156 724.90625 C 153.175781 725.53125 153.132812 726.160156 153.152344 726.792969 C 153.167969 727.421875 153.246094 728.046875 153.386719 728.664062 C 153.527344 729.28125 153.726562 729.878906 153.984375 730.457031 C 154.242188 731.035156 154.554688 731.582031 154.921875 732.097656 C 155.289062 732.613281 155.699219 733.089844 156.160156 733.523438 C 156.617188 733.957031 157.117188 734.34375 157.652344 734.679688 C 158.1875 735.015625 158.75 735.296875 159.339844 735.523438 C 159.929688 735.75 160.539062 735.914062 161.160156 736.023438 C 161.785156 736.128906 162.414062 736.171875 163.046875 736.15625 C 163.675781 736.136719 164.300781 736.058594 164.917969 735.917969 C 165.535156 735.777344 166.132812 735.578125 166.707031 735.320312 C 167.285156 735.0625 167.832031 734.75 168.347656 734.382812 C 171.238281 732.449219 173.816406 730.164062 176.082031 727.527344 C 178.34375 724.886719 180.210938 721.992188 181.683594 718.84375 C 183.386719 719.878906 184.871094 721.167969 186.132812 722.710938 C 187.394531 724.253906 188.363281 725.964844 189.039062 727.839844 C 190.824219 734.402344 185.511719 742.386719 180.738281 747.933594 C 180.324219 748.414062 179.964844 748.929688 179.652344 749.480469 C 179.34375 750.03125 179.089844 750.605469 178.890625 751.207031 C 178.695312 751.808594 178.558594 752.421875 178.480469 753.050781 C 178.402344 753.675781 178.390625 754.304688 178.4375 754.9375 C 178.484375 755.566406 178.59375 756.1875 178.761719 756.796875 C 178.929688 757.40625 179.160156 757.992188 179.441406 758.554688 C 179.726562 759.121094 180.066406 759.652344 180.453125 760.148438 C 180.84375 760.648438 181.277344 761.101562 181.757812 761.515625 C 182.234375 761.929688 182.75 762.289062 183.300781 762.601562 C 183.851562 762.914062 184.425781 763.167969 185.027344 763.367188 C 185.625 763.5625 186.238281 763.699219 186.867188 763.777344 C 187.496094 763.855469 188.125 763.871094 188.753906 763.824219 C 189.382812 763.777344 190.003906 763.667969 190.613281 763.5 C 191.222656 763.332031 191.808594 763.105469 192.371094 762.820312 C 192.9375 762.535156 193.46875 762.199219 193.96875 761.808594 C 194.464844 761.421875 194.921875 760.988281 195.332031 760.507812 C 206.753906 747.238281 210.878906 734.496094 207.589844 722.636719 C 203.511719 707.960938 189.515625 700.449219 183.023438 697.6875 Z M 183.023438 697.6875 " fill-opacity="1" fill-rule="nonzero"/><path fill="#56723d" d="M 170.261719 634.8125 C 261.785156 639.945312 468.523438 648.164062 662.574219 632.160156 C 663.183594 632.105469 663.785156 632.167969 664.378906 632.335938 C 664.96875 632.507812 665.507812 632.78125 665.996094 633.152344 C 666.488281 633.523438 666.894531 633.972656 667.21875 634.496094 C 667.542969 635.015625 667.761719 635.582031 667.875 636.183594 C 667.992188 636.789062 667.992188 637.394531 667.882812 638 C 667.773438 638.605469 667.558594 639.171875 667.238281 639.695312 C 666.917969 640.222656 666.515625 640.671875 666.03125 641.046875 C 665.542969 641.425781 665.003906 641.699219 664.417969 641.875 C 587.019531 664.800781 402.988281 703.296875 168.800781 644.613281 C 168.199219 644.464844 167.648438 644.210938 167.140625 643.855469 C 166.636719 643.5 166.210938 643.066406 165.867188 642.550781 C 165.523438 642.035156 165.28125 641.476562 165.148438 640.871094 C 165.011719 640.269531 164.988281 639.660156 165.082031 639.050781 C 165.171875 638.4375 165.371094 637.863281 165.675781 637.324219 C 165.980469 636.785156 166.375 636.320312 166.851562 635.929688 C 167.332031 635.539062 167.863281 635.246094 168.453125 635.050781 C 169.039062 634.859375 169.644531 634.777344 170.261719 634.8125 Z M 170.261719 634.8125 " fill-opacity="1" fill-rule="nonzero"/><path fill="#56723d" d="M 688.105469 630.726562 C 696.847656 628.464844 734 615.664062 730.414062 561.863281 C 726.351562 500.949219 671.050781 502.214844 671.050781 502.214844 L 538.890625 502.214844 C 555.066406 512.496094 583.039062 536.117188 583.039062 576.601562 C 583.039062 617.8125 565.675781 639.847656 556.085938 648.878906 C 554.171875 650.738281 552.109375 652.402344 549.890625 653.878906 C 549.890625 653.878906 608.65625 680.265625 608.65625 731.203125 C 608.65625 758.761719 591.460938 783.582031 575.671875 800.585938 C 616.230469 798.640625 657.292969 795.769531 697.855469 791.71875 C 697.855469 791.71875 780.144531 782.691406 778.875 695.121094 C 777.710938 614.90625 700.984375 627.96875 688.105469 630.726562 Z M 688.105469 630.726562 " fill-opacity="1" fill-rule="nonzero"/><g clip-path="url(#424fd4ca8a)"><g clip-path="url(#0e7826af84)"><g clip-path="url(#2e1ca404a0)"><g clip-path="url(#e5f6de12bf)"><path fill="#9b1010" d="M 488.347656 395.269531 L 342.136719 425.011719 L 290.382812 285.070312 Z M 488.347656 395.269531 " fill-opacity="1" fill-rule="nonzero"/></g></g></g></g><g clip-path="url(#fb498fb52c)"><g clip-path="url(#96eaf21ff4)"><g clip-path="url(#d8078d0ba9)"><g clip-path="url(#d2ce92f3f7)"><path fill="#b71c1c" d="M 389.363281 340.171875 L 342.136719 425.011719 L 488.347656 395.269531 Z M 389.363281 340.171875 " fill-opacity="1" fill-rule="nonzero"/></g></g></g></g><g clip-path="url(#d3811df40a)"><g clip-path="url(#78571fdac9)"><g clip-path="url(#1ccb38d4e8)"><g clip-path="url(#8b96408d0e)"><path fill="#c62828" d="M 518.199219 374.839844 C 517.667969 375.792969 517.089844 376.722656 516.46875 377.625 C 515.847656 378.527344 515.179688 379.402344 514.472656 380.25 C 513.761719 381.101562 513.007812 381.921875 512.210938 382.714844 C 511.414062 383.507812 510.574219 384.269531 509.691406 385.003906 C 508.808594 385.742188 507.886719 386.445312 506.921875 387.121094 C 505.957031 387.796875 504.949219 388.441406 503.90625 389.054688 C 502.859375 389.667969 501.773438 390.253906 500.652344 390.804688 C 499.527344 391.355469 498.367188 391.875 497.167969 392.363281 C 495.96875 392.847656 494.734375 393.304688 493.460938 393.726562 C 492.191406 394.148438 490.882812 394.539062 489.542969 394.894531 C 488.203125 395.25 486.828125 395.574219 485.421875 395.863281 C 484.015625 396.148438 482.574219 396.40625 481.105469 396.625 C 479.636719 396.847656 478.136719 397.035156 476.605469 397.1875 C 475.078125 397.339844 473.519531 397.457031 471.9375 397.542969 C 470.351562 397.628906 468.742188 397.675781 467.105469 397.691406 C 465.46875 397.707031 463.808594 397.6875 462.121094 397.632812 C 460.4375 397.582031 458.730469 397.492188 457.003906 397.371094 C 455.277344 397.246094 453.527344 397.089844 451.761719 396.898438 C 449.992188 396.710938 448.207031 396.484375 446.402344 396.226562 C 444.601562 395.964844 442.78125 395.671875 440.949219 395.347656 C 439.113281 395.019531 437.265625 394.660156 435.40625 394.269531 C 433.546875 393.875 431.675781 393.449219 429.792969 392.992188 C 427.910156 392.53125 426.019531 392.039062 424.117188 391.519531 C 422.21875 390.996094 420.308594 390.4375 418.398438 389.851562 C 416.484375 389.265625 414.566406 388.648438 412.644531 388 C 410.722656 387.351562 408.800781 386.671875 406.875 385.964844 C 404.949219 385.253906 403.023438 384.515625 401.101562 383.75 C 399.175781 382.980469 397.253906 382.1875 395.335938 381.363281 C 393.417969 380.539062 391.503906 379.6875 389.59375 378.808594 C 387.683594 377.929688 385.785156 377.023438 383.890625 376.089844 C 381.996094 375.160156 380.113281 374.203125 378.238281 373.21875 C 376.363281 372.238281 374.5 371.230469 372.648438 370.203125 C 370.796875 369.171875 368.960938 368.117188 367.140625 367.042969 C 365.316406 365.96875 363.511719 364.871094 361.71875 363.75 C 359.929688 362.632812 358.160156 361.492188 356.40625 360.335938 C 354.652344 359.175781 352.921875 357.996094 351.210938 356.800781 C 349.5 355.605469 347.808594 354.390625 346.144531 353.160156 C 344.476562 351.929688 342.835938 350.679688 341.21875 349.417969 C 339.601562 348.15625 338.011719 346.878906 336.445312 345.585938 C 334.882812 344.296875 333.347656 342.992188 331.84375 341.671875 C 330.335938 340.355469 328.859375 339.027344 327.414062 337.6875 C 325.96875 336.351562 324.554688 335 323.171875 333.644531 C 321.789062 332.285156 320.441406 330.917969 319.125 329.542969 C 317.8125 328.167969 316.535156 326.789062 315.289062 325.402344 C 314.046875 324.015625 312.839844 322.625 311.667969 321.226562 C 310.5 319.832031 309.367188 318.433594 308.273438 317.03125 C 307.179688 315.628906 306.125 314.226562 305.109375 312.824219 C 304.097656 311.417969 303.121094 310.015625 302.1875 308.609375 C 301.253906 307.207031 300.363281 305.808594 299.515625 304.40625 C 298.664062 303.007812 297.859375 301.613281 297.097656 300.222656 C 296.332031 298.832031 295.613281 297.445312 294.9375 296.066406 C 294.261719 294.683594 293.628906 293.3125 293.042969 291.945312 C 292.457031 290.582031 291.914062 289.222656 291.417969 287.875 C 290.921875 286.527344 290.472656 285.1875 290.070312 283.863281 C 289.664062 282.535156 289.308594 281.21875 288.996094 279.917969 C 288.6875 278.613281 288.421875 277.324219 288.203125 276.046875 C 287.988281 274.773438 287.816406 273.511719 287.691406 272.265625 C 287.570312 271.019531 287.492188 269.789062 287.464844 268.578125 C 287.433594 267.367188 287.453125 266.171875 287.519531 264.996094 C 287.585938 263.820312 287.699219 262.664062 287.859375 261.527344 C 288.015625 260.390625 288.222656 259.273438 288.476562 258.179688 C 288.730469 257.082031 289.03125 256.011719 289.378906 254.960938 C 289.726562 253.910156 290.121094 252.882812 290.558594 251.878906 C 291 250.875 291.484375 249.894531 292.015625 248.941406 C 292.546875 247.988281 293.125 247.058594 293.746094 246.15625 C 294.367188 245.253906 295.03125 244.375 295.742188 243.527344 C 296.453125 242.679688 297.207031 241.859375 298.003906 241.066406 C 298.800781 240.273438 299.640625 239.507812 300.523438 238.773438 C 301.402344 238.039062 302.328125 237.332031 303.292969 236.660156 C 304.257812 235.984375 305.261719 235.339844 306.308594 234.722656 C 307.355469 234.109375 308.4375 233.527344 309.5625 232.976562 C 310.6875 232.425781 311.847656 231.90625 313.046875 231.417969 C 314.246094 230.929688 315.480469 230.476562 316.753906 230.050781 C 318.023438 229.628906 319.332031 229.242188 320.671875 228.886719 C 322.011719 228.53125 323.386719 228.207031 324.792969 227.917969 C 326.199219 227.628906 327.640625 227.375 329.109375 227.152344 C 330.578125 226.933594 332.078125 226.746094 333.609375 226.59375 C 335.136719 226.4375 336.695312 226.320312 338.277344 226.238281 C 339.863281 226.152344 341.472656 226.101562 343.109375 226.085938 C 344.746094 226.070312 346.40625 226.089844 348.089844 226.144531 C 349.777344 226.199219 351.480469 226.285156 353.210938 226.410156 C 354.9375 226.53125 356.6875 226.6875 358.453125 226.878906 C 360.222656 227.070312 362.007812 227.296875 363.808594 227.554688 C 365.613281 227.8125 367.429688 228.105469 369.265625 228.433594 C 371.097656 228.757812 372.945312 229.117188 374.808594 229.511719 C 376.667969 229.902344 378.539062 230.328125 380.421875 230.789062 C 382.304688 231.246094 384.195312 231.738281 386.097656 232.261719 C 387.996094 232.785156 389.902344 233.339844 391.816406 233.925781 C 393.730469 234.511719 395.648438 235.128906 397.570312 235.777344 C 399.492188 236.425781 401.414062 237.105469 403.339844 237.816406 C 405.265625 238.523438 407.1875 239.261719 409.113281 240.03125 C 411.039062 240.796875 412.960938 241.59375 414.878906 242.417969 C 416.796875 243.242188 418.710938 244.09375 420.621094 244.972656 C 422.527344 245.851562 424.429688 246.757812 426.324219 247.6875 C 428.21875 248.621094 430.101562 249.578125 431.976562 250.558594 C 433.851562 251.539062 435.714844 252.546875 437.566406 253.578125 C 439.417969 254.609375 441.253906 255.660156 443.074219 256.734375 C 444.898438 257.8125 446.703125 258.910156 448.492188 260.027344 C 450.285156 261.148438 452.054688 262.285156 453.808594 263.445312 C 455.558594 264.605469 457.292969 265.78125 459.003906 266.976562 C 460.714844 268.175781 462.40625 269.390625 464.070312 270.621094 C 465.738281 271.851562 467.378906 273.097656 468.996094 274.359375 C 470.613281 275.625 472.203125 276.902344 473.765625 278.191406 C 475.332031 279.484375 476.867188 280.789062 478.371094 282.105469 C 479.878906 283.421875 481.355469 284.75 482.800781 286.089844 C 484.246094 287.429688 485.660156 288.777344 487.042969 290.136719 C 488.425781 291.496094 489.773438 292.863281 491.085938 294.234375 C 492.402344 295.609375 493.679688 296.992188 494.925781 298.378906 C 496.167969 299.765625 497.375 301.15625 498.546875 302.550781 C 499.714844 303.949219 500.847656 305.347656 501.941406 306.746094 C 503.035156 308.148438 504.089844 309.554688 505.105469 310.957031 C 506.117188 312.359375 507.09375 313.765625 508.023438 315.167969 C 508.957031 316.570312 509.851562 317.972656 510.699219 319.371094 C 511.546875 320.769531 512.355469 322.164062 513.117188 323.558594 C 513.882812 324.949219 514.601562 326.332031 515.277344 327.714844 C 515.953125 329.09375 516.585938 330.46875 517.171875 331.832031 C 517.757812 333.199219 518.296875 334.554688 518.792969 335.902344 C 519.289062 337.253906 519.742188 338.589844 520.144531 339.917969 C 520.546875 341.246094 520.90625 342.558594 521.21875 343.863281 C 521.527344 345.167969 521.792969 346.457031 522.011719 347.730469 C 522.226562 349.007812 522.398438 350.269531 522.519531 351.515625 C 522.644531 352.757812 522.722656 353.988281 522.75 355.199219 C 522.777344 356.414062 522.761719 357.605469 522.695312 358.785156 C 522.628906 359.960938 522.515625 361.117188 522.355469 362.253906 C 522.195312 363.390625 521.988281 364.507812 521.734375 365.601562 C 521.480469 366.695312 521.179688 367.769531 520.835938 368.820312 C 520.488281 369.871094 520.09375 370.898438 519.652344 371.902344 C 519.214844 372.90625 518.726562 373.882812 518.199219 374.839844 Z M 518.199219 374.839844 " fill-opacity="1" fill-rule="nonzero"/></g></g></g></g><g clip-path="url(#aad36b3d45)"><g clip-path="url(#23dd03d9f4)"><g clip-path="url(#37f6fdc356)"><g clip-path="url(#30ad975367)"><path fill="#e53935" d="M 421.683594 223.878906 L 471.175781 251.429688 L 505.726562 289.183594 L 493.117188 328.46875 L 438.890625 326.066406 L 380.761719 289.078125 L 350.148438 244.253906 L 376.894531 212.839844 Z M 421.683594 223.878906 " fill-opacity="1" fill-rule="nonzero"/></g></g></g></g><g clip-path="url(#36e9917fc9)"><g clip-path="url(#b5e11e8650)"><g clip-path="url(#49939e573a)"><g clip-path="url(#e0d76744d5)"><path fill="#ff5252" d="M 493.117188 328.46875 L 505.726562 289.183594 L 522.964844 349.710938 Z M 482.84375 396.835938 L 493.117188 328.46875 L 438.890625 326.066406 Z M 380.761719 289.078125 L 372.699219 370.113281 L 438.890625 326.066406 Z M 350.148438 244.253906 L 290.382812 285.070312 L 380.761719 289.078125 Z M 376.894531 212.839844 L 316.367188 230.078125 L 350.148438 244.253906 Z M 376.894531 212.839844 " fill-opacity="1" fill-rule="nonzero"/></g></g></g></g></svg>